<svg width="715" height="752" viewBox="0 0 715 752" fill="none" xmlns="http://www.w3.org/2000/svg">
<g clip-path="url(#clip0_11_2)">
<path d="M250.43 268.658L264.346 267.572C278.263 314.455 302.311 409.85 287.17 416.367C272.028 422.883 227.421 429.219 207.01 431.572C205.674 426.793 203.113 343.779 202 302.87L250.43 268.658Z" fill="#7B5709" stroke="black" stroke-width="4"/>
<path d="M283 416L228 393.5L283.5 399.5C283.1 400.7 283 411 283 416Z" fill="#473204"/>
<path d="M507.517 28.5628C464.83 3.76654 390.053 50.8577 358 77.5029L441.374 202.572L464.163 188.977L480.282 156.351C516.744 144.605 566.62 109.767 587 93.8162C568.324 105.997 511.408 115.567 485.284 118.83C510.481 99.0728 550.204 53.3591 507.517 28.5628Z" fill="#734E00" stroke="black" stroke-width="4"/>
<path d="M521.165 75.1081C543.836 21.2428 462.553 -9.46041 368 75.1081C457.577 9.39244 534.989 14.2403 516.742 81.5719L521.165 75.1081Z" fill="#D9D9D9"/>
<path d="M480.789 265.415C474.987 268.039 420.723 278.898 394.316 284L372 276.894L430.579 253.936L478.558 155C479.004 161.122 513.705 226.788 531 258.856L497.526 261.589L471.863 211.847L480.789 265.415Z" fill="#FFB921"/>
<g filter="url(#filter0_d_11_2)">
<path d="M297.25 39.501C290.596 43.8825 265.644 75.648 254 90.9831C305.013 94.4882 351.775 81.4899 368.779 74.5526C379.425 64.4753 412.029 43.6999 427 34.5719C427 34.5719 409.811 41.6918 297.25 39.501Z" fill="#FFB921"/>
<path d="M297.25 39.501C290.596 43.8825 265.644 75.648 254 90.9831C305.013 94.4882 351.775 81.4899 368.779 74.5526C379.425 64.4753 412.029 43.6999 427 34.5719C427 34.5719 409.811 41.6918 297.25 39.501Z" stroke="black" stroke-width="4"/>
</g>
<path d="M447.103 126.699C449.33 113.273 450.629 86.0944 451 74.1836C423.165 67.1454 366.938 70.3938 334.649 83.9288L289 131.572C349.124 129.948 414.814 104.502 447.103 126.699Z" fill="#F0A501" stroke="black" stroke-width="4"/>
<path d="M432.836 671.572L419 637.566C435.419 633.909 468.811 627.693 471.025 632.081C473.239 636.469 495.931 660.237 507 671.572H432.836Z" fill="#734E00" stroke="black" stroke-width="4"/>
<path d="M480.778 642.856C463 629.269 480.222 602.095 508 545.572L408 593.942L418 636.878C443.333 646.878 470.407 645.03 480.778 642.856Z" fill="#FAD484" stroke="black" stroke-width="4"/>
<path d="M347 276.594C301.426 260.933 285.565 198.287 283.331 168.922L279.98 164.572C261.922 196.112 226.922 262.02 231.39 273.331C235.858 284.642 310.325 280.219 347 276.594Z" fill="#7C5605" stroke="black" stroke-width="4"/>
<path d="M229 250.5C230.6 248.5 255 191.667 267 163.5L265 153.5L221.5 190L214.5 245C218.667 247.667 227.4 252.5 229 250.5Z" fill="#FFB921" stroke="black" stroke-width="4"/>
<path d="M321.021 668C344.402 648.412 339.948 627.191 311 545.574L364.443 520L371.124 617.941L412.876 609.779L419 639.162C386.489 657.444 340.134 666.005 321.021 668Z" fill="#FAD484" stroke="black" stroke-width="4"/>
<path d="M466.104 589.336C467.772 627.848 444.419 631.645 431.075 603.439C420.881 589.155 403.718 569.808 416.618 606.693C432.743 652.8 481.673 640.324 477.78 579.572L466.104 589.336Z" fill="#FFBD2F" stroke="black" stroke-width="4"/>
<path d="M278 702.572C296.185 692.069 319.212 670.845 328.452 661.546L418.823 638.572C429.468 654.326 438.043 680.509 441 691.632L416.605 692.179C416.051 660.999 408.844 650.059 382.231 693.273C378.239 694.586 311.081 700.019 278 702.572Z" fill="#734E00" stroke="black" stroke-width="4"/>
<path d="M376.241 383.526C375.797 377.447 387.143 339.745 392.872 321.654C391.763 319.121 388.769 314.164 385.665 314.599C382.561 315.033 319.327 336.489 288.098 347.163C284.772 356.932 286.435 438.884 282 476.876L315.262 555.572L400.633 502.384C408.763 484.474 424.359 448.762 421.698 449.196C418.372 449.739 376.795 391.124 376.241 383.526Z" fill="#EFB22E" stroke="black" stroke-width="4"/>
<path d="M371.5 418C356.333 429.167 324.5 452.8 318.5 458" stroke="black" stroke-width="3"/>
<path d="M337 441.458C348.653 433.024 362.722 423.299 372 417L334 335L327 337.5C325.4 337.9 322.333 339 321 339.5L339.5 389C311.9 419 326.333 436.472 337 441.458Z" fill="#B17C09"/>
<path d="M371.863 617.572C372.972 599.056 362.436 544.053 358 484.693L410.125 483.604C417.519 487.96 439.182 495.585 466.687 491.228C494.191 486.871 512.158 502.12 517.703 510.288L567.056 507.021L558.183 451.473L567.056 446.572L597 569.648H579.81L568.719 516.823L514.93 530.438C489.422 589.798 449.497 601.779 371.863 617.572Z" fill="#F1B32E" stroke="black" stroke-width="4"/>
<path d="M477.02 541.529C482.172 540.724 500.927 537.858 511 534C487.021 594.904 417.575 608.452 373.486 616C374.675 614.39 372.991 597.214 372 588.828C443.73 583.595 471.901 555.115 477.02 541.529Z" fill="#FFDD94"/>
<path d="M364.729 531.651L363.029 517.674C376.863 517.642 405.624 517.063 409.995 515C408.229 519.692 396.703 529.592 364.729 531.651Z" fill="#FFEFCD"/>
<path d="M479 540C469.045 547.274 400.852 556.165 368 559.701L371.484 589C448.736 584.151 475.35 554.313 479 540Z" fill="#FFEFCD"/>
<path d="M288 347.572L289.117 275.873C313.505 273.157 368.426 269.572 393 276.959L387.973 316.611L288 347.572Z" fill="#FAD484" stroke="black" stroke-width="4"/>
<path d="M371.834 379.572L394 279.132C389.567 274.38 381.809 274.632 378.484 275.352L359.089 368.232L334.707 271.572L307 275.352L343.019 377.952L371.834 379.572Z" fill="#734E00" stroke="black" stroke-width="4"/>
<path d="M444.095 199.936C462.913 170.482 505.528 187.936 447.97 237.572C443.726 231.936 437.011 216.518 444.095 199.936Z" fill="#D69200" stroke="black" stroke-width="4"/>
<path d="M295.209 214.4C283.702 203.073 283.776 188.26 285.251 182.27L288.017 149.05C371.662 105.048 428.716 115.104 446.787 125.633C440.149 181.725 444.574 222.024 449 249.254C441.476 254.917 394.97 270.492 372.658 277.572C323.975 269.294 299.634 252.703 293.549 245.441C244.314 261.234 242.101 189.894 295.209 214.4Z" fill="#FAD484" stroke="black" stroke-width="4"/>
<path d="M318.5 176C332.1 175.6 351.5 179.5 359.5 181.5L360 185.5C356.8 183.5 331 178.333 318.5 176Z" fill="#EDE9E9"/>
<path d="M358 374.572C370.703 374.572 381 384.869 381 397.572C381 410.274 370.703 420.572 358 420.572C345.297 420.572 335 410.274 335 397.572C335 384.869 345.297 374.572 358 374.572Z" fill="#FFC039" stroke="black" stroke-width="4"/>
<path d="M393.687 278.202C421.548 299.038 484.181 360.383 511.82 439.086C514.978 444.159 513.715 462.675 483.401 496.156C497.332 489.09 524.079 493.982 469.47 532.572C468.295 532.19 465.539 529.278 461.17 521.701H433.25C428.235 522.97 417.313 525.289 413.747 524.419C412.654 524.152 411.463 519.487 410.284 512.462C407.513 512.896 399.551 511.193 395.916 510.287L403.717 452.13C423.406 448.688 462.449 439.629 461.112 430.933C459.44 420.062 419.319 336.36 387 317.336L391.458 276.572L393.687 278.202Z" fill="#FAD484"/>
<path d="M483.401 496.156C513.715 462.675 514.978 444.159 511.82 439.086C484.181 360.383 421.548 299.038 393.687 278.202L391.458 276.572L387 317.336C419.319 336.36 459.44 420.062 461.112 430.933C462.449 439.629 423.406 448.688 403.717 452.13M483.401 496.156V510.287M483.401 496.156C497.332 489.09 524.079 493.982 469.47 532.572C468.295 532.19 465.539 529.278 461.17 521.701M461.17 521.701C457.253 514.91 452.041 504.371 445.509 488.546L461.17 521.701ZM461.17 521.701H433.25M433.25 521.701L427.678 488.546C425.263 484.561 420.88 475.828 422.663 472.784C424.446 469.74 430.464 466.805 433.25 465.718M433.25 521.701C428.235 522.97 417.313 525.289 413.747 524.419C412.654 524.152 411.463 519.487 410.284 512.462M403.717 452.13L395.916 510.287C399.551 511.193 407.513 512.896 410.284 512.462M403.717 452.13C405.005 468.589 407.615 496.566 410.284 512.462" stroke="black" stroke-width="4"/>
<ellipse cx="333.5" cy="182.572" rx="7.5" ry="8" fill="black"/>
<path d="M323 174.572C330.731 174.989 348.955 176.572 360 179.572" stroke="black" stroke-width="4"/>
<path d="M422.5 161C402.5 164.2 394.167 175 392.5 180C400.5 172 421.167 163.333 430.5 160C428.9 160 424.5 160.667 422.5 161Z" fill="#D9D9D9"/>
<circle cx="405.5" cy="174.072" r="7.5" fill="black"/>
<path d="M336.639 221.878C341.1 228.419 361.734 251.857 398.54 239.321L336.639 221.878Z" fill="#734E00"/>
<path d="M432 139.572C430.327 139.572 392.963 143.387 384.041 165.19M428.096 158.104C417.872 159.013 396.086 164.536 390.733 179.362M311.544 160.285C348.35 160.285 329.389 165.19 367.311 169.551M380.695 172.821C380.695 196.805 385.156 209.887 384.041 215.882M418.616 204.981C417.501 221.878 432 219.698 429.212 204.981M339.427 246.952C339.427 266.029 327.159 258.398 327.716 246.952M314.89 232.235C314.89 250.767 300.948 246.952 302.064 232.235M336.639 221.878C341.1 228.419 361.734 251.857 398.54 239.321L336.639 221.878Z" stroke="black" stroke-width="4"/>
<path d="M199.566 252.906C203.11 257.253 214.7 261.962 220.053 263.773C224.851 281.886 233.784 318.003 231.126 317.568C228.469 317.133 167.268 286.958 137 271.924C137.923 253.811 168.117 185.853 281.512 58.9189L302.552 71.7125C306.631 66.4072 311.82 61.6592 321.931 54.5719C327.098 59.8246 336.991 72.6121 335.219 81.7409C339.095 82.2843 353.491 101.303 350.722 106.193C348.507 110.105 317.686 124.487 302.552 131.189C310.525 128.146 340.571 125.574 354.598 124.668C357.256 128.146 357.182 142.418 356.813 149.12C320.491 148.685 303.659 152.629 299.783 154.655C312.225 162.4 327.127 173.074 335.773 179.549C332.229 183.462 324.33 190.96 320.823 194.221C317.28 189.874 295.723 179.731 285.387 175.202L269.331 174.659C244.599 198.93 196.023 248.559 199.566 252.906Z" fill="#FAD484"/>
<path d="M281.512 145.316C285.25 146.15 292.04 149.836 299.783 154.655M299.783 154.655C312.225 162.4 327.127 173.074 335.773 179.549C332.229 183.462 324.33 190.96 320.823 194.221C317.28 189.874 295.723 179.731 285.387 175.202L269.331 174.659C244.599 198.93 196.023 248.559 199.566 252.906C203.11 257.253 214.7 261.962 220.053 263.773C224.851 281.886 233.784 318.003 231.126 317.568C228.469 317.133 167.268 286.958 137 271.924C137.923 253.811 168.117 185.853 281.512 58.9189L302.552 71.7125M299.783 154.655C303.659 152.629 320.491 148.685 356.813 149.12C357.182 142.418 357.256 128.146 354.598 124.668C340.571 125.574 310.525 128.146 302.552 131.189C317.686 124.487 348.507 110.105 350.722 106.193C353.491 101.303 339.095 82.2843 335.219 81.7409M335.219 81.7409C332.118 81.3062 303.659 106.918 289.817 119.778M335.219 81.7409C336.991 72.6121 327.098 59.8246 321.931 54.5719C311.82 61.6592 306.631 66.4072 302.552 71.7125M239.985 159.988C277.636 140.426 273.206 136.622 273.206 117.061C291.963 91.1534 295.685 80.6434 302.552 71.7125" stroke="black" stroke-width="4"/>
<path d="M293 261.572L284.164 397.572L228.94 391.588L219 261.572C224.522 262.66 235.788 265.38 236.672 267.556C238.512 266.831 243.63 265.815 249.373 267.556C252.58 282.122 258.787 311.702 258.783 317.143C259.532 301.028 261.314 269.054 262.627 266.468C269.99 264.836 286.373 261.572 293 261.572Z" fill="#B0811B"/>
<path d="M236.672 267.556C235.788 265.38 224.522 262.66 219 261.572L228.94 391.588L284.164 397.572L293 261.572C286.373 261.572 269.99 264.836 262.627 266.468C261.301 269.079 259.498 301.647 258.761 317.604C259.203 313.687 252.687 282.607 249.373 267.556C243.63 265.815 238.512 266.831 236.672 267.556ZM236.672 267.556C237.776 287.14 240.537 327.396 242.746 331.748" stroke="black" stroke-width="4"/>
<path d="M479 156C495.167 189.333 528.2 256.3 531 257.5C519.833 258.5 497.4 260.4 497 260C488.833 244.333 472.4 212.7 472 211.5L481 264.5C455 270.167 402.6 281.5 401 281.5" stroke="black" stroke-width="3"/>
<path d="M363.169 519.408C380.239 520.212 400.216 517.285 408.07 515.721L408.544 515.709L408.467 512.634L395.163 510.915C395.142 510.095 396.586 492.075 397.31 483.168C396.573 484.007 371.461 484.84 358.997 485.152C359.826 488.003 362.124 509.177 363.169 519.408Z" fill="#734E00"/>
<path d="M241.523 170.004C253.523 170.411 264.522 171.852 268.521 172.521C242.908 194.505 214.153 228.653 202.977 242.979C206.986 229.382 230.345 188.663 241.523 170.004Z" fill="#ECE5D4"/>
<path d="M174 203C180.62 182.394 247.026 99.9689 279.401 61.3323L280.272 60L299 71.5466C295.976 76.3923 286.952 93.036 277.03 106.741C276.946 106.864 276.865 106.976 276.787 107.075C276.868 106.964 276.949 106.852 277.03 106.741C279.951 102.441 286.454 83.7215 289.418 74.6553C288.373 73.5894 283.756 70.3623 281.578 68.882C276.352 71.0137 207.682 159.182 174 203Z" fill="#E5D4AD"/>
<path d="M291 74.5C289.8 73.7 284.167 69.5 281.5 67.5C223.1 131.9 184.833 187.667 173 207.5C178.6 198.3 246 134.667 279 104C278.2 102 286.667 83.5 291 74.5Z" fill="#AD8329"/>
<path d="M456 141.894C465.889 136.428 482.707 125.25 489.88 120.345C516.983 118.242 554.586 107.906 570 103C542.164 136.638 482.402 142.945 456 141.894Z" fill="#C5C5C5"/>
<path d="M371.727 381.614C367.611 376.763 359.409 375.861 355.823 376.016C354.7 378.255 348.807 403.072 346 415.201C347.403 417.067 351.613 418 352.549 418C353.297 418 365.646 394.054 371.727 382.081C373.442 383.946 375.843 386.465 371.727 381.614Z" fill="#FFEABD"/>
<path d="M449 239.5C451 238.3 460.5 228.667 465 224C464.6 227.6 467.5 253.167 469 265.5L399.5 280.5C398.7 279.7 393.167 275.833 390.5 274C401 272 444 255.5 451 250C450.6 249.2 449.5 242.667 449 239.5Z" fill="#A6750C"/>
<path d="M369.5 618C367.9 603.6 352.833 559.667 345.5 539.5C345.333 539.5 345.1 539.4 345.5 539C345.9 538.6 355.667 532.5 360.5 529.5C362.9 540.3 367.5 593 369.5 618Z" fill="#AA832E"/>
<path d="M449.984 632.927L451 624.135V623.618C439.616 622.377 432.705 610.689 430.672 605L420 608.62C425.285 629.72 442.191 633.616 449.984 632.927Z" fill="#9B7930"/>
<path d="M463 432C465.4 427.6 442.667 385.833 431 365.5C448.2 381.5 466.167 416.5 473 432C473 433.2 466.333 432.5 463 432Z" fill="#A78438"/>
</g>
<defs>
<filter id="filter0_d_11_2" x="246.167" y="32.7151" width="185.875" height="68.8567" filterUnits="userSpaceOnUse" color-interpolation-filters="sRGB">
<feFlood flood-opacity="0" result="BackgroundImageFix"/>
<feColorMatrix in="SourceAlpha" type="matrix" values="0 0 0 0 0 0 0 0 0 0 0 0 0 0 0 0 0 0 127 0" result="hardAlpha"/>
<feOffset dy="4"/>
<feGaussianBlur stdDeviation="2"/>
<feComposite in2="hardAlpha" operator="out"/>
<feColorMatrix type="matrix" values="0 0 0 0 0 0 0 0 0 0 0 0 0 0 0 0 0 0 0.25 0"/>
<feBlend mode="normal" in2="BackgroundImageFix" result="effect1_dropShadow_11_2"/>
<feBlend mode="normal" in="SourceGraphic" in2="effect1_dropShadow_11_2" result="shape"/>
</filter>
<clipPath id="clip0_11_2">
<rect width="715" height="752" fill="white"/>
</clipPath>
</defs>
</svg>
