<svg width="712" height="804" viewBox="0 0 712 804" fill="none" xmlns="http://www.w3.org/2000/svg">
<path d="M319.596 85.615C326.674 83.9305 333.309 83.5034 339.158 84.6201C332.455 84.7127 325.933 85.0499 319.596 85.615C260.116 99.7709 169.337 202.725 250.658 224.62C231.659 236.786 192.759 261.819 189.159 264.619C136.702 205.962 188.856 97.2751 319.596 85.615Z" fill="#BF0003"/>
<path d="M417.159 191.119C380.659 185.619 400.659 120.619 374.159 105.119C371.493 140.452 369.959 210.219 385.159 206.619C400.359 203.019 412.826 194.786 417.159 191.119Z" fill="#BF0003"/>
<path d="M339.158 84.6201C284.159 74.1192 159.659 200.119 250.658 224.62C231.659 236.786 192.759 261.819 189.159 264.619C134.159 203.119 194.157 86.6212 339.158 84.6201ZM374.159 105.119C400.659 120.619 380.659 185.619 417.159 191.119C412.826 194.786 400.359 203.019 385.159 206.619C369.959 210.219 371.493 140.452 374.159 105.119Z" stroke="black" stroke-width="3"/>
<path d="M180.5 250C157.3 210 177.5 168.667 190.5 153C181.866 166.638 176.856 179.85 174.298 192L215.5 178L215 180C201.153 185.558 173.463 196.607 173.479 196.337C169.356 221.019 175.195 240.798 180.5 250Z" fill="#D9D9D9"/>
<path d="M270.5 97C280.5 93.4 295.333 90.5 301.5 89.5C300.3 89.9 298 91 297 91.5C290.6 92.3 276.667 95.5 270.5 97Z" fill="#D9D9D9"/>
<path d="M456 685C449.6 682.2 432.333 656.167 424.5 643.5C391.7 644.7 350.167 643 333.5 642C329.5 658 328.5 679.667 328.5 688.5H349.5C345.5 651.5 356 652.5 380 685C389.6 686.2 434.667 685.5 456 685Z" fill="#5B1515" stroke="black" stroke-width="3"/>
<path d="M316.5 399C311.7 378.6 291.5 328.833 282 306.5C294.4 303.7 327.167 303 342 303C359.2 331.4 382 372 385.5 397C368.7 397 332.5 398.333 316.5 399Z" fill="#FF8181" stroke="black" stroke-width="3"/>
<path d="M425 643.442C419.8 619.442 423.833 568.775 426.5 546.442C424.5 545.642 375 546.108 350.5 546.442C349.7 550.442 339.167 611.775 334 641.942C343.6 643.542 398.667 643.608 425 643.442Z" fill="#D42E2E"/>
<path d="M291 644.942C295.4 636.942 323.833 575.942 337.5 546.442C331.1 545.642 267.833 546.108 237 546.442C226.5 567.442 163 643.442 163 644.942C174.6 642.942 253.167 644.108 291 644.942Z" fill="#D42E2E"/>
<path d="M425 643.442C419.8 619.442 423.833 568.775 426.5 546.442C424.5 545.642 375 546.108 350.5 546.442C349.7 550.442 339.167 611.775 334 641.942C343.6 643.542 398.667 643.608 425 643.442Z" stroke="black" stroke-width="3"/>
<path d="M291 644.942C295.4 636.942 323.833 575.942 337.5 546.442C331.1 545.642 267.833 546.108 237 546.442C226.5 567.442 163 643.442 163 644.942C174.6 642.942 253.167 644.108 291 644.942Z" stroke="black" stroke-width="3"/>
<path d="M166.5 643C204.983 597.147 231.845 557.895 240.466 544H241.5C237.362 554.074 216.879 587.977 168.052 643H166.5Z" fill="#FFE3E3"/>
<path d="M237 546C252.2 523.6 263 494 266.5 482C279.7 453.6 274 415.833 269.5 400.5C271.5 399.3 354 397.667 395 397L426 483C427.6 492.6 427 529 426.5 546H237Z" fill="#2B0000" stroke="black" stroke-width="3"/>
<path d="M570 356C518.4 325.2 396.5 307.833 342 303C391 387 388.5 393 391.5 483.5C393.1 485.5 416.5 484.333 428 483.5C418 445.9 401.833 396.833 395 377C436.6 367 504.333 376.833 533 383C532.6 395.8 536.167 413.333 538 420.5C542 422.5 560.333 420.667 569 419.5C584.5 455.5 581.5 451.5 606.5 450.5C583.3 432.1 572.5 379.833 570 356Z" fill="#6C0A0A"/>
<path d="M334.5 483.5C333.7 436.7 299.167 346 282 306.5C188 323.7 123.833 388 103.5 418C140.7 432 216 452.833 249 461.5C257.4 455.5 267.833 446 272 442C263.2 437.2 228.667 411.333 212.5 399C218.1 391.8 246.167 388.667 259.5 388C280.7 408 272.667 460 266 483.5C271.6 482.3 314 483 334.5 483.5Z" fill="#6C0A0A"/>
<path d="M570 356C518.4 325.2 396.5 307.833 342 303C391 387 388.5 393 391.5 483.5C393.1 485.5 416.5 484.333 428 483.5C418 445.9 401.833 396.833 395 377C436.6 367 504.333 376.833 533 383C532.6 395.8 536.167 413.333 538 420.5C542 422.5 560.333 420.667 569 419.5C584.5 455.5 581.5 451.5 606.5 450.5C583.3 432.1 572.5 379.833 570 356Z" stroke="black" stroke-width="3"/>
<path d="M334.5 483.5C333.7 436.7 299.167 346 282 306.5C188 323.7 123.833 388 103.5 418C140.7 432 216 452.833 249 461.5C257.4 455.5 267.833 446 272 442C263.2 437.2 228.667 411.333 212.5 399C218.1 391.8 246.167 388.667 259.5 388C280.7 408 272.667 460 266 483.5C271.6 482.3 314 483 334.5 483.5Z" stroke="black" stroke-width="3"/>
<path d="M342 303C340.4 301.4 323.667 281 315.5 271C282.7 242.6 260.833 249.167 254 256C258.4 258 274.5 290.5 282 306.5C286 304.9 323.667 303.5 342 303Z" fill="#AD2B2B" stroke="black" stroke-width="3"/>
<path d="M368.673 271.167C330.273 280.367 274.34 264.334 251.173 255.167C208.172 280.668 200.674 253.667 202.174 253.167C203.374 252.767 232.34 233.667 246.673 224.167C109.674 191.667 460.174 -101.333 368.673 271.167Z" fill="#C94242" stroke="black" stroke-width="3"/>
<path d="M290.5 645C286 658 276.8 684.8 276 688C275.955 688.18 275.914 688.345 275.876 688.496L276 688.5C275.685 689.601 275.252 691.028 275.876 688.496L258 688C273 657 246.5 651 228 685.5C205 685.167 153.3 684.6 130.5 685C139.333 674 158.1 650.6 162.5 645C190.5 644.333 255.3 643.4 290.5 645Z" fill="#5B1515" stroke="black" stroke-width="3"/>
<path d="M454 684C437.666 666.355 427.134 650.916 423.91 645.403H421.224C428.961 661.042 439.851 677.651 444.328 684H454Z" fill="#FF5757"/>
<path d="M425.522 544.648C426.812 518.582 426.06 494.689 425.522 486H421.761C424.77 498.03 423.373 530.111 422.299 544.648H425.522Z" fill="#FF5757"/>
<path d="M421.38 641.842H423.907C416.494 627.067 422.503 573.124 426.434 548H423.064C412.956 601.909 417.729 633.023 421.38 641.842Z" fill="#FFE3E3"/>
<path d="M422 482C424 481.6 425.5 481.5 426 481.5C422.5 466.667 412.6 429.4 401 399C407.667 420.667 421.2 467.6 422 482Z" fill="#FF9191"/>
<path d="M290 643C295.2 634.2 322.167 576 335 548H333C322.2 571.2 296.5 621 285 643H290Z" fill="#FFE3E3"/>
<path d="M284 646.5H288.5C286.333 652.167 280.5 668.1 274.5 686.5H271C275 675 283.2 650.9 284 646.5Z" fill="#FF5757"/>
<path d="M134 683C134.4 683 153.833 658.667 163.5 646.5H165C153.4 663.3 142.833 677.833 139 683H134Z" fill="#FF5757"/>
<path d="M284.5 316C284.1 315.2 282 310.667 281 308.5C242.5 310 145.6 356.2 106 417C132.167 388.333 204.5 328 284.5 316Z" fill="#DF7A7A"/>
<path d="M533 383C532.5 374.5 531.2 354.6 530 343" stroke="black" stroke-width="3"/>
<path d="M568.5 357C510.5 323.4 395.333 308.333 345 305L347 308.5C484.2 322.5 548.833 348 564 359C562 383.8 582.5 429.667 593 449.5C597.4 449.9 601.167 449.333 602.5 449C578.1 419.8 569.667 375.5 568.5 357Z" fill="#DF7A7A"/>
<path d="M367.5 270C402.7 142.4 373.167 97.1667 354 90.5C394.8 122.9 378.667 223 365.5 269C338.7 273.4 305 268.5 291.5 265.5C326.3 275.5 356.667 272.667 367.5 270Z" fill="#FF9696"/>
<path d="M383 141.5C346.5 160 346.4 146.4 342 224M253.5 166C255.5 161 262.3 150.7 273.5 149.5C294.5 162 324.5 171 327.5 171M364 245C355 246.333 335.1 249.6 327.5 252M321.5 183.5C314.667 179.833 292.2 174.5 257 182.5C293.4 176.9 315.167 180.833 321.5 183.5ZM385 167.5C379.167 166.667 370.3 167.2 355.5 178C365.1 170.4 379.167 167.833 385 167.5Z" stroke="black" stroke-width="3"/>
<circle cx="309.5" cy="189.5" r="10.5" fill="black"/>
<ellipse cx="372" cy="180" rx="7" ry="10" fill="black"/>
<path d="M271.999 442C238.5 468 202.099 517 254.499 515C260.832 499.5 273.198 463.2 271.999 442Z" fill="#D42E2E" stroke="black" stroke-width="3"/>
</svg>
