<svg width="740" height="791" viewBox="0 0 740 791" fill="none" xmlns="http://www.w3.org/2000/svg">
<path d="M276.499 116C225.5 195 384.5 77.5 443.999 183.5L441.5 212.5L211 222.5C169 169.3 237.166 129.333 276.499 116Z" fill="#C7F9FF" stroke="black" stroke-width="3"/>
<path d="M226.5 552C238.5 548 271.833 527.333 287 517.5C328.6 536.3 383.333 592.333 405.5 618C394.7 634 336.333 676 308.5 695C323.5 636.5 303.5 595.5 226.5 552Z" fill="#8BF3FF" stroke="black" stroke-width="3"/>
<path d="M482 678C481.6 675.6 479.833 613.333 479 582.5C459.4 587.3 418.5 584.5 400.5 582.5C400.9 649.3 359 710.667 338 733C405.2 716.6 462 689.5 482 678Z" fill="#8BF3FF" stroke="black" stroke-width="3"/>
<path d="M286.5 518C328.1 495.2 339.833 469.833 340.5 460C377 416.5 471 492.5 473.5 507.5C475.5 519.5 482.333 561.5 485.5 581C461.5 588.2 418.5 585 400 582.5C403.6 557.3 398.5 527 395.5 515C372.3 533.8 357.5 556.167 353 565C349 554.6 307 529.333 286.5 518Z" fill="#199DAB" fill-opacity="0.96" stroke="black" stroke-width="3"/>
<path d="M472.5 509.032C470.833 509.434 463.472 505.845 460 504C461.667 510.843 468.333 559.518 471.458 583C473.542 583 481.354 581.323 485 580.484C484.167 577.666 476.319 531.675 472.5 509.032Z" fill="#003E45"/>
<path d="M493 356C487.8 339.6 477.5 319.833 473 312C489.8 307.6 512.667 286.833 522 277C495 238.5 407.5 175.5 444.5 159.5C443.7 159.5 416.167 111.5 402.5 87.5C408.9 83.5 426.167 80.8333 434 80C435.6 87.2 456 129 466 149C468.4 146.2 468.333 105.5 468 85.5C473.6 84.3 490.333 89.6667 498 92.5C498.8 99.3 497.667 123 497 134C504.2 134 512 141.667 515 145.5C525 145.1 531.167 151 533 154C534.6 178.4 528.667 188.167 525.5 190C541.5 216.5 572.8 271.4 570 279C567.2 286.6 517.5 333.5 493 356Z" fill="#5EDDEB"/>
<path d="M515 145.5C525 145.1 531.167 151 533 154C534.6 178.4 528.667 188.167 525.5 190C541.5 216.5 572.8 271.4 570 279C567.2 286.6 517.5 333.5 493 356C487.8 339.6 477.5 319.833 473 312C489.8 307.6 512.667 286.833 522 277C495 238.5 407.5 175.5 444.5 159.5M515 145.5C514.667 154.5 512.8 173.4 508 177M515 145.5C512 141.667 504.2 134 497 134M497 134C497 144 496.5 165 494.5 169M497 134C497.667 123 498.8 99.3 498 92.5C490.333 89.6667 473.6 84.3 468 85.5C468.333 105.5 468.4 146.2 466 149C456 129 435.6 87.2 434 80C426.167 80.8333 408.9 83.5 402.5 87.5C416.167 111.5 443.7 159.5 444.5 159.5M444.5 159.5C445.5 159.5 469 174 477.5 173C486 172 495.5 199 450 183.5" stroke="black" stroke-width="3"/>
<path d="M308 400C317.6 396.8 356.333 373 374.5 361.5L473 311C479.333 322.667 492.5 349.1 494.5 361.5C491.7 367.5 463.333 390.333 449.5 401C450.7 412.2 466 477 473.5 508C452 503.5 421.5 466.5 419 468C417 469.2 394.833 467.5 384 466.5L385 459.5L384 461.5C374 463.9 346.833 461.167 334.5 459.5C351.7 440.7 351.333 427.667 349 423.5C346.6 428.3 324 445.833 313 454C307.833 444.333 299.6 420 308 400Z" fill="#BAF8FF"/>
<path d="M308 400C317.6 396.8 356.333 373 374.5 361.5L473 311C479.333 322.667 492.5 349.1 494.5 361.5C491.7 367.5 463.333 390.333 449.5 401C450.7 412.2 466 477 473.5 508C452 503.5 421.5 466.5 419 468C417 469.2 394.833 467.5 384 466.5L385 459.5L384 461.5C374 463.9 346.833 461.167 334.5 459.5C351.7 440.7 351.333 427.667 349 423.5C346.6 428.3 324 445.833 313 454M308 400C312.5 404 319.8 420.4 313 454M308 400C299.6 420 307.833 444.333 313 454" stroke="black" stroke-width="3"/>
<path d="M434 373.5C444.8 371.9 474.833 355.167 488.5 347C490.9 351.4 492.5 358.5 493 361.5C490.2 367.1 462.167 389.5 448.5 400C448.5 399.6 438.833 382.167 434 373.5Z" fill="#588A90"/>
<path d="M267.5 363.5C263.5 396.5 257 426 308.5 400.5C316.1 408.5 316.333 429.833 315.5 439.5C313.9 443.9 296.5 461.667 288 470C178.8 464.8 157.5 425.833 160.5 407C164.5 416.2 188.833 424.167 200.5 427C168.163 397.98 157.482 396.459 169.597 368C172.094 362.136 175.558 355.128 180 346.5C180.8 356.5 206 384.333 218.5 397C214.5 391 199.167 356.167 192 339.5C191.2 333.9 211 333.5 221 334C223.8 337.2 236.5 367 242.5 381.5C250.5 356.5 248 347 267.5 363.5Z" fill="#8BF3FF"/>
<path d="M169.597 368C172.094 362.136 175.558 355.128 180 346.5C180.8 356.5 206 384.333 218.5 397C214.5 391 199.167 356.167 192 339.5C191.2 333.9 211 333.5 221 334C223.8 337.2 236.5 367 242.5 381.5C250.5 356.5 248 347 267.5 363.5C263.5 396.5 257 426 308.5 400.5C316.1 408.5 316.333 429.833 315.5 439.5C313.9 443.9 296.5 461.667 288 470C178.8 464.8 157.5 425.833 160.5 407C164.5 416.2 188.833 424.167 200.5 427C168.163 397.98 157.482 396.459 169.597 368ZM169.597 368C170 368.5 182 390.5 209.5 413.5" stroke="black" stroke-width="3"/>
<path d="M242.5 381.5C239.5 391.667 236.4 414.6 248 425" stroke="black" stroke-width="3"/>
<path d="M239 392C237.833 398 237.6 413 246 425C229.667 425 205.4 418.4 239 392Z" fill="#1B646C"/>
<path d="M313 453C311.4 450.75 311 448.688 311 447.938C311 447.037 313 444.938 314 444C314 445.8 313.333 450.75 313 453Z" fill="#006C78"/>
<path d="M284 306.5C251 291.5 237 329.5 295 337.5C295 328.833 292.8 310.5 284 306.5Z" fill="#41B9C6" stroke="black" stroke-width="3"/>
<path d="M296.5 353.5C292.5 299.5 255 256 211 222.5C235.8 200.5 291.333 202 316 205.5C311.2 199.1 295.333 187.167 288 182C351.2 130 416.667 180.667 441.5 212.5C441.9 218.1 438.667 248.5 437 263C488.5 230 460 308.5 434.5 295.5C434.9 299.1 434.333 310.667 434 316C425 327 375.5 352.5 372.5 353.5C370.1 354.3 320.833 353.833 296.5 353.5Z" fill="#5EDDEB" stroke="black"/>
<path d="M407.5 223.5C398.5 213.833 375.4 199.1 355 217.5M397 238C390.333 230.833 375.7 220.3 370.5 235.5" stroke="black" stroke-width="2"/>
<path d="M353 285C352.5 284 325 209 275 259.5M294 281C293.333 273 297.7 256.7 320.5 255.5" stroke="black" stroke-width="2"/>
<path d="M396.5 282C402.5 322.5 365.5 356 328 317C343.333 308.5 378.5 289.6 396.5 282Z" fill="#0A2225" stroke="black"/>
<path d="M340 327C336 325 330.333 319.5 328 317C353.2 302.6 384.167 287.667 396.5 282C397.3 287.6 397.167 292.667 397 294.5L340 327Z" fill="white" stroke="black"/>
<path d="M359.905 334.499C361.076 329.994 357.79 321.7 356 318.116C359.124 316.478 384.635 301.051 397 293.542C394.267 327.946 371.131 335.182 359.905 334.499Z" fill="#006C77" stroke="black"/>
<path d="M449.5 294.5C451.5 293 456 289.3 458 286.5C467.833 302.333 473.7 331.6 418.5 322C403.3 324.8 403.5 313.833 405.5 308C416.7 302.4 421.833 310.333 423 315C439.833 318.5 468.7 319.3 449.5 294.5Z" fill="#04454C"/>
<path d="M418.5 322C473.7 331.6 467.833 302.333 458 286.5C456 289.3 451.5 293 449.5 294.5C468.7 319.3 439.833 318.5 423 315M418.5 322C420.333 320.833 423.8 317.8 423 315M418.5 322C403.3 324.8 403.5 313.833 405.5 308C416.7 302.4 421.833 310.333 423 315" stroke="black" stroke-width="3"/>
<path d="M298.5 167.5C343.922 140.058 366.261 143.658 391 163.739C393.5 209.977 327.5 227.5 298.5 167.5C292.79 170.505 280.308 177.195 272.043 182C305.586 223.5 281 242 271 249C261 256 220 247 219 226C218.2 209.2 252.333 190.667 269.5 183.5C270.288 183.027 271.14 182.525 272.043 182C280.308 177.195 292.79 170.505 298.5 167.5Z" fill="white"/>
<path d="M442 213C420.774 192.882 405.476 175.489 391 163.739M298.5 167.5C343.922 140.058 366.261 143.658 391 163.739M298.5 167.5C327.5 227.5 393.5 209.977 391 163.739M298.5 167.5C292.79 170.505 280.308 177.195 272.043 182M272.043 182C271.14 182.525 270.288 183.027 269.5 183.5C252.333 190.667 218.2 209.2 219 226C220 247 261 256 271 249C281 242 305.586 223.5 272.043 182Z" stroke="black" stroke-width="3"/>
<path d="M243 209C227.4 219 234.167 237.833 239.5 246C243.9 248 251.667 249.167 255 249.5C247 241.9 243.667 219.333 243 209Z" fill="black"/>
<path d="M264 198C254.8 206.4 261.167 235.833 265.5 249.5C279.833 244.667 302.3 226.4 277.5 192C274.7 192.4 267.333 196.167 264 198Z" fill="black"/>
<path d="M314.5 170C312.1 177.6 313.5 185.5 314.5 188.5C315.465 193.7 327.569 199.333 333.5 201.5C327.5 195.9 330.667 167.833 333 154.5C327.833 156.5 316.9 162.4 314.5 170Z" fill="black"/>
<path d="M340 153.5C336 173.5 336.667 194.833 337.5 203C338.7 203.8 342 204 343.5 204C340 183 347.5 154.5 347 153.5C346.6 152.7 342.167 153.167 340 153.5Z" fill="black"/>
<path d="M356.5 205.5C353.7 188.3 363.333 162.667 368.5 152C372.5 150.8 385.167 159.5 391 164C392.2 191.2 368.5 203 356.5 205.5Z" fill="black"/>
<path d="M243 209C227.4 219 234.167 237.833 239.5 246C243.9 248 251.667 249.167 255 249.5C247 241.9 243.667 219.333 243 209Z" stroke="black"/>
<path d="M264 198C254.8 206.4 261.167 235.833 265.5 249.5C279.833 244.667 302.3 226.4 277.5 192C274.7 192.4 267.333 196.167 264 198Z" stroke="black"/>
<path d="M314.5 170C312.1 177.6 313.5 185.5 314.5 188.5C315.465 193.7 327.569 199.333 333.5 201.5C327.5 195.9 330.667 167.833 333 154.5C327.833 156.5 316.9 162.4 314.5 170Z" stroke="black"/>
<path d="M340 153.5C336 173.5 336.667 194.833 337.5 203C338.7 203.8 342 204 343.5 204C340 183 347.5 154.5 347 153.5C346.6 152.7 342.167 153.167 340 153.5Z" stroke="black"/>
<path d="M356.5 205.5C353.7 188.3 363.333 162.667 368.5 152C372.5 150.8 385.167 159.5 391 164C392.2 191.2 368.5 203 356.5 205.5Z" stroke="black"/>
<path d="M411.5 343C414 358.667 419 385.5 421.5 390C415.5 387.333 402.4 381.8 398 381C403.667 373 414.3 354.2 411.5 343Z" stroke="black" stroke-width="3"/>
<path d="M485.5 581C481 581.833 471.4 583.6 469 584" stroke="black" stroke-width="3"/>
<path d="M477.5 584.5C457.1 587.7 437.333 587.167 430 586.5C442.8 587.7 455.667 589.667 460.5 590.5C463.3 603.7 457.667 662.667 454.5 690.5L480.5 677.5C479.7 668.3 478.167 611.667 477.5 584.5Z" fill="#2F98A4"/>
<path d="M383 638C385.4 612 341.333 561.167 319 539C336.6 549 378.333 590.833 397 610.5C397 612.5 394.333 624 393 629.5L383 638Z" fill="#2F98A4"/>
<path d="M389 392C388.667 411.667 387.2 454 384 466" stroke="black" stroke-width="3"/>
<path d="M363 504C368.2 507.2 387.167 511.333 396 513C374 529.8 358.167 552.667 353 562C347 554 329.167 542 321 537C328.2 526.6 352 510.667 363 504Z" fill="#003E45"/>
<path d="M326 486.5C331.296 486.613 338.318 486.812 346.5 487.107M449 494C421.853 490.898 388.231 488.881 361.5 487.708M400 478C399.667 485.667 399.6 502 402 506M375 476.5C373.667 483.333 371.5 498.2 373.5 503M349.5 461.5C347.667 468.072 344.5 482.393 346.5 487.107M346.5 487.107C351.159 487.276 356.194 487.475 361.5 487.708M364 462.5C362 469.305 358.7 483.875 361.5 487.708" stroke="black" stroke-width="3"/>
<path d="M396.5 513.5C386.833 511.667 366.6 507.2 363 504" stroke="black" stroke-width="3"/>
<path d="M330 485C336.4 478.2 340.667 466.833 342 462C342 468.8 336.667 480.167 334 485H330Z" fill="#60F0FF"/>
<path d="M384 383C380.833 384 373.6 387.4 370 393C371.5 384.667 374.3 366.8 373.5 362" stroke="black" stroke-width="3"/>
<path d="M373.5 361.5V353L407.5 335C421.1 347.8 400.833 379 389 393C387.8 391 378.167 371.167 373.5 361.5Z" fill="#3CD9EB" stroke="black" stroke-width="3"/>
<path d="M289.5 518C306.498 509.2 322.214 494.333 327.947 488H332.5C330.476 495.2 307.712 513.667 296.582 522C295.773 521.2 291.524 519 289.5 518Z" fill="#60F0FF"/>
<path d="M345 414.5C345.5 415 349 419 350 424" stroke="black"/>
<path d="M325 443C343.4 429.4 348.333 422.667 348.5 421C348.5 419.4 346.167 416.333 345 415C342.6 422.6 330.667 436.833 325 443Z" fill="#588A90"/>
<ellipse cx="388.5" cy="254" rx="7.5" ry="9" fill="black"/>
<ellipse cx="317.5" cy="280" rx="7.5" ry="9" fill="black"/>
<path d="M343.5 268.5C346 272.667 351.2 281.8 352 285C353 289 314.5 291.5 343.5 268.5Z" fill="#D9D9D9"/>
<path d="M293 280C283.4 278 277.667 265.833 276 260C303.6 230.8 327.5 246.5 336 258C302.4 247.2 293.333 268.167 293 280Z" fill="#2E7880"/>
<path d="M369.5 235C361.9 231.8 357.333 222.333 356 218C368 207.2 381.667 209.167 387 211.5C388.2 215.9 385.5 224 384 227.5C375.2 224.3 370.667 231.167 369.5 235Z" fill="#2E7880"/>
<path d="M481 653.5C433 663.9 411.333 697.167 406.5 712.5C422.1 676.5 462.667 660.167 481 656.5V653.5Z" fill="black"/>
<path d="M380.5 671.5C379.667 681.333 383.7 703.3 406.5 712.5M406.5 712.5C411.333 697.167 433 663.9 481 653.5V656.5C462.667 660.167 422.1 676.5 406.5 712.5Z" stroke="black" stroke-width="2"/>
<path d="M381 668C380.667 669.167 380.1 672.6 380.5 677" stroke="black" stroke-width="2"/>
<path d="M363 656.5C357.4 658.5 327.667 658 313.5 657.5C320.7 659.5 343.833 661.333 354.5 662C356.9 660 361.167 657.5 363 656.5Z" fill="black" stroke="black" stroke-width="2"/>
</svg>
