<svg width="452" height="583" viewBox="0 0 452 583" fill="none" xmlns="http://www.w3.org/2000/svg">
<path d="M228.5 92.5C219 126.5 253.5 132.5 237 145C237.167 142.167 236 135.8 230 133C232 138.5 233.7 150.8 224.5 156C224.888 154.497 225.202 152.261 225.237 149.5C220.991 143.667 212 130.6 210 125C209.921 132.5 211.311 149.4 217.5 157C203.833 155.833 173.4 142 161 96L228.5 92.5Z" fill="#54114A"/>
<path d="M225.237 149.5C225.202 152.261 224.888 154.497 224.5 156C233.7 150.8 232 138.5 230 133C236 135.8 237.167 142.167 237 145C253.5 132.5 219 126.5 228.5 92.5L161 96C173.4 142 203.833 155.833 217.5 157C211.311 149.4 209.921 132.5 210 125C212 130.6 220.991 143.667 225.237 149.5ZM225.237 149.5C225.321 142.771 223.74 132.927 217.5 123C220.325 127 225.826 137.9 225.237 149.5Z" stroke="black"/>
<path d="M200.768 123.141C169.99 143.957 104.95 141.727 158.376 54C176.959 59.6998 214.938 72.7349 218.19 79.2772C221.442 85.8195 214.125 98.359 210.06 103.811C226.9 111.245 199.026 128.345 200.768 123.141Z" fill="#D889CC" stroke="black"/>
<path d="M94.7667 239.994C81.1415 217.403 78.6086 186.34 79.0453 173.632C98.6971 158.1 122.279 215.991 127.52 221.639C131.712 226.157 107.431 235.758 94.7667 239.994Z" fill="#D889CC" stroke="black"/>
<path d="M132.096 256.994C321.77 200.781 243.062 130.514 213.385 155.81C215.449 188.414 135.967 148.783 95.9673 124.893C81.5159 97.9101 80.4836 113.65 81.7739 124.893C79.7095 126.017 69.7311 149.72 65 161.431C67.0645 165.928 87.3653 179.232 97.2576 185.322C97.2576 205.559 120.483 241.535 132.096 256.994Z" fill="#D889CC" stroke="black"/>
<path d="M197.468 536.509C220.156 476.559 214.656 400.301 209.07 369.666C191.452 344.687 160.856 312.261 179.42 382.392C197.983 452.522 117.541 522.841 75 549.234C117.284 553.759 162.231 536.98 179.42 528.025C179.42 528.497 178.904 531.702 176.841 540.751L197.468 536.509Z" fill="#D889CC" stroke="black"/>
<path d="M197.647 536.096C200.753 528.139 204.98 512.888 206.706 506.257L208 501.994C193.333 512.414 155.718 528.992 122.588 511.941C116.376 518.761 88.9412 539.412 76 548.884C114.306 554.568 160.98 537.043 179.529 527.571L176.941 540.359L197.647 536.096Z" fill="#FFD7FF" stroke="black"/>
<path d="M380 469.097C279.844 493.929 216.48 418.304 197.317 377.388C193.911 353.402 195.018 317.001 226.7 363.279C258.382 409.556 321.661 392.908 349.34 378.799L358.282 405.606L327.622 404.195C334.776 435.799 365.522 460.631 380 469.097Z" fill="#D889CC" stroke="black"/>
<path d="M313 299.631C286.043 316.54 248.817 251.721 200.038 231.994C165.123 246.649 142.701 254.07 135.855 255.949C127.64 307.803 148.692 364.918 160.245 386.994C206.456 386.994 281.336 328.752 313 299.631Z" fill="#FFD2FF" stroke="black"/>
<path d="M316.931 472.523C324.172 439.295 311.328 405.207 304 392.317C320.552 390.025 341.069 381.814 349.259 377.994L358.31 405.207L327.276 403.775C334.517 435.858 364.776 461.065 379 469.659C354.172 477.68 327.276 474.911 316.931 472.523Z" fill="#FFD7FF" stroke="black"/>
<mask id="path-11-inside-1_4_93" fill="white">
<path d="M109.298 104.73C125.746 95.9699 146.308 103.019 155.225 120.474L158.638 127.157L164.466 124.055C180.925 115.291 201.5 122.346 210.42 139.812C219.341 157.279 213.228 178.542 196.769 187.306L131.263 222.183L98.9603 158.932L99.0712 158.873L95.6602 152.196C86.744 134.741 92.8495 113.489 109.298 104.73Z"/>
</mask>
<path d="M109.298 104.73C125.746 95.9699 146.308 103.019 155.225 120.474L158.638 127.157L164.466 124.055C180.925 115.291 201.5 122.346 210.42 139.812C219.341 157.279 213.228 178.542 196.769 187.306L131.263 222.183L98.9603 158.932L99.0712 158.873L95.6602 152.196C86.744 134.741 92.8495 113.489 109.298 104.73Z" fill="#BD295D"/>
<path d="M109.298 104.73L108.815 103.825L108.815 103.825L109.298 104.73ZM155.225 120.474L156.094 120.033L156.094 120.033L155.225 120.474ZM158.638 127.157L157.769 127.598L158.244 128.528L159.12 128.061L158.638 127.157ZM164.466 124.055L164.948 124.959L164.948 124.959L164.466 124.055ZM210.42 139.812L211.289 139.371L211.289 139.371L210.42 139.812ZM196.769 187.306L196.286 186.402L196.286 186.402L196.769 187.306ZM131.263 222.183L130.394 222.624L130.869 223.554L131.745 223.088L131.263 222.183ZM98.9603 158.932L98.4764 158.029L97.6346 158.479L98.0913 159.373L98.9603 158.932ZM99.0712 158.873L99.5551 159.777L100.397 159.326L99.9402 158.432L99.0712 158.873ZM95.6602 152.196L94.7913 152.637L94.7913 152.637L95.6602 152.196ZM109.298 104.73L109.78 105.634C125.747 97.1305 145.7 103.971 154.356 120.915L155.225 120.474L156.094 120.033C146.917 102.068 125.745 94.8092 108.815 103.825L109.298 104.73ZM155.225 120.474L154.356 120.915L157.769 127.598L158.638 127.157L159.507 126.716L156.094 120.033L155.225 120.474ZM158.638 127.157L159.12 128.061L164.948 124.959L164.466 124.055L163.983 123.15L158.156 126.253L158.638 127.157ZM164.466 124.055L164.948 124.959C180.926 116.452 200.892 123.298 209.551 140.253L210.42 139.812L211.289 139.371C202.108 121.394 180.924 114.131 163.983 123.151L164.466 124.055ZM210.42 139.812L209.551 140.253C218.217 157.222 212.277 177.888 196.286 186.402L196.769 187.306L197.251 188.21C214.179 179.197 220.464 157.335 211.289 139.371L210.42 139.812ZM196.769 187.306L196.286 186.402L130.781 221.279L131.263 222.183L131.745 223.088L197.251 188.21L196.769 187.306ZM131.263 222.183L132.132 221.742L99.8293 158.491L98.9603 158.932L98.0913 159.373L130.394 222.624L131.263 222.183ZM98.9603 158.932L99.4442 159.836L99.5551 159.777L99.0712 158.873L98.5873 157.97L98.4764 158.029L98.9603 158.932ZM99.0712 158.873L99.9402 158.432L96.5292 151.755L95.6602 152.196L94.7913 152.637L98.2023 159.314L99.0712 158.873ZM95.6602 152.196L96.5292 151.755C87.867 134.798 93.8007 114.144 109.78 105.634L109.298 104.73L108.815 103.825C91.8983 112.835 85.6209 134.685 94.7913 152.637L95.6602 152.196Z" fill="black" mask="url(#path-11-inside-1_4_93)"/>
<path d="M213.197 196.857C238.455 207.139 178.256 212.566 145 213.994L177.835 196.857H181.624C190.464 192.573 179.098 168.295 189.202 168.295C192.148 169.247 197.032 174.293 192.99 186.86C200.568 184.004 213.197 174.007 215.723 165.439C236.063 162.785 229.446 172.518 219.561 181.246L224.563 191.145L213.197 196.857Z" fill="#D889CC"/>
<path d="M145 213.994C178.256 212.566 238.455 207.139 213.197 196.857L224.563 191.145L219.511 181.148L210.671 188.288C223.3 179.244 241.991 162.011 215.723 165.439C213.197 174.007 200.568 184.004 192.99 186.86C197.032 174.293 192.148 169.247 189.202 168.295C179.098 168.295 190.464 192.573 181.624 196.857H177.835L145 213.994Z" stroke="black"/>
<path d="M173.512 90.9026C170.317 86.5562 176.174 66.9978 179.501 57.7618C173.845 58.6673 162.132 64.2813 160.534 79.4935C160.015 79.4935 158.414 74.9318 157.842 69.7142C156.577 70.4386 153.946 72.5393 153.547 75.1471C152.743 71.3671 152.269 62.7648 155.479 54.4625C150.353 65.6316 143.815 84.0483 146.559 95.2489C145.061 94.7759 142.166 92.158 142.566 85.4697C139.371 94.1623 138.573 98.8708 138.573 100.138C132.417 96.3355 125.895 80.1454 149.054 45.8094C140.953 50.8483 138.722 53.2503 138.58 53.8972C138.578 53.9178 138.575 53.9383 138.573 53.9588C138.573 53.9404 138.575 53.9199 138.58 53.8972C140.213 40.8074 185.555 5.13602 226.42 51.7856C229.913 62.6514 226.919 115.351 213.941 120.784C214.74 119.48 214.607 116.618 214.44 115.351C212.045 121.435 204.791 123.319 201.463 123.5C204.657 121.327 205.123 118.973 204.957 118.067C204.558 118.502 200.465 120.421 198.468 121.327C203.197 116.179 206.624 110.243 209.067 104.128C204.797 99.8651 203.497 89.0396 203.332 80.5817C202.684 86.8735 201.01 94.4688 199.966 98.5086C195.174 98.074 191.647 84.0613 190.482 77.1092C187.928 82.7782 185.018 87.4617 182.496 87.4617L180.999 93.619C178.836 90.9026 175.209 83.4051 178.004 75.1471C177.605 74.2779 174.843 85.2886 173.512 90.9026Z" fill="#801770"/>
<path d="M185.491 75.1471L182.496 87.4617M182.496 87.4617L180.999 93.619C178.836 90.9026 175.209 83.4051 178.004 75.1471C177.605 74.2779 174.843 85.2886 173.512 90.9026C170.317 86.5562 176.174 66.9978 179.501 57.7618C173.845 58.6673 162.132 64.2813 160.534 79.4935C160.015 79.4935 158.414 74.9318 157.842 69.7142M182.496 87.4617C185.018 87.4617 187.928 82.7782 190.482 77.1092M190.482 77.1092C192.78 72.0088 194.791 66.1107 195.973 62.1081L190.482 77.1092ZM190.482 77.1092C191.647 84.0613 195.174 98.074 199.966 98.5086C201.463 92.7135 204.258 79.6021 203.46 73.5173C202.96 81.6666 203.46 99.2692 209.449 104.485C212.444 95.9733 217.535 76.125 213.941 64.8246C215.605 76.2337 214.84 103.507 198.468 121.327C200.465 120.421 204.558 118.502 204.957 118.067C205.123 118.973 204.657 121.327 201.463 123.5C204.791 123.319 212.045 121.435 214.44 115.351C214.607 116.618 214.74 119.48 213.941 120.784C226.919 115.351 229.913 62.6514 226.42 51.7856C185.491 5.06262 140.07 40.9198 138.573 53.9588C138.573 53.4155 140.669 51.025 149.054 45.8094C125.895 80.1454 132.417 96.3355 138.573 100.138C138.573 98.8708 139.371 94.1623 142.566 85.4696C142.166 92.158 145.061 94.7759 146.559 95.2489C143.364 82.2099 152.75 59.3917 157.842 49.6125C152.094 59.1744 152.584 70.6197 153.547 75.1471C153.946 72.5393 156.577 70.4386 157.842 69.7142M157.842 69.7142C157.315 64.9062 157.662 59.5412 160.534 56.6752C159.239 57.3996 156.886 61.0216 157.842 69.7142ZM223.924 71.8874C222.094 76.9581 218.733 88.4034 219.931 93.619M223.924 64.8246C220.763 59.7539 211.845 49.6125 201.463 49.6125M223.924 69.7142L218.433 68.6276M176.007 51.7856C172.514 51.9667 164.927 54.2848 162.531 62.1081M149.054 53.9588C146.06 58.8484 140.569 69.9315 142.566 75.1471M190.482 49.6125C187.82 54.5021 182.496 65.8025 182.496 71.8874" stroke="black"/>
<path d="M219.325 79.7174C220.106 66.8101 227.414 37.5758 233.979 58.0934C232.416 67.8158 230.345 88.2664 234.565 92.2895C234.194 92.0609 232.81 93.1213 231.418 93.6652C245.463 108.893 245.361 120.412 243.358 124.474C243.827 122.865 242.381 117.769 241.599 115.422C242.537 121.457 238.473 126.988 236.324 129C241.013 112.908 224.014 112.405 219.325 79.7174Z" fill="#801770"/>
<path d="M233.979 58.0934C227.414 37.5758 220.106 66.8101 219.325 79.7174C224.014 112.405 241.013 112.908 236.324 129C238.473 126.988 242.537 121.457 241.599 115.422C242.381 117.769 243.827 122.865 243.358 124.474C245.507 120.116 245.468 107.175 228.117 90.278C228.032 97.5195 233.748 91.7866 234.565 92.2895C230.345 88.2664 232.416 67.8158 233.979 58.0934Z" stroke="black"/>
<path d="M163.683 102.657C183.354 73.0936 161.915 68.8415 149.59 72.502M169.732 82.3411C169.159 78.108 164.847 70.5695 152.177 74.2807M182.792 85.9736C188.749 84.996 201.856 85.9799 206.63 97.7369M183.161 87.4613C188.892 86.7738 200.943 87.7792 203.303 97.3004" stroke="black"/>
<path d="M166 80.7639C166 82.4207 164.657 83.7639 163 83.7639C161.343 83.7639 160 82.4207 160 80.7639C160 79.107 161.343 77.7639 163 77.7639C164.657 77.7639 166 79.107 166 80.7639Z" fill="black"/>
<path d="M194.5 93.3293C194.5 94.9861 193.157 96.3293 191.5 96.3293C189.843 96.3293 188.5 94.9861 188.5 93.3293C188.5 91.6724 189.843 90.3293 191.5 90.3293C193.157 90.3293 194.5 91.6724 194.5 93.3293Z" fill="black"/>
<path d="M153.02 109C153.867 113.649 159.259 121.688 174.052 116.649" stroke="black"/>
</svg>
