<svg width="831" height="890" viewBox="0 0 831 890" fill="none" xmlns="http://www.w3.org/2000/svg">
<path d="M473 662.793C455.435 674.606 425.643 686.404 419 680.5L430 674.5C436 637.7 414.5 629.833 403 630.5C411.4 625.7 451.834 613.5 471 608C498.2 583.6 514 608.5 518.5 624L515.604 626.414C516.458 626.112 521.073 630.828 534 652.5C551 681 520 704.5 509.5 686C501.1 671.2 481.667 664.362 473 662.793Z" fill="#EC0999"/>
<path d="M363 785.5C358.167 788.833 347.1 794 341.5 788C332.611 804 296.5 817.5 278 800C276.167 798.333 276.5 791.1 292.5 775.5L304.5 751.5C302.667 749.5 299.8 744.8 303 742C293 709.5 278.5 679.5 288.5 676H289L290 678.5C293.5 684.5 308.6 691.5 341 671.5L339 667.5C345 667 353.5 697.5 358 739C361.389 743.041 366.451 754.035 365.433 770.5C365.15 775.086 364.395 780.097 363 785.5Z" fill="#EC0999"/>
<path d="M485.5 651C483.928 654.405 479.235 658.6 473 662.793M473 662.793C455.435 674.606 425.643 686.404 419 680.5L430 674.5C436 637.7 414.5 629.833 403 630.5C411.4 625.7 451.834 613.5 471 608C498.2 583.6 514 608.5 518.5 624L515.5 626.5C516 625.667 520.4 629.7 534 652.5C551 681 520 704.5 509.5 686C501.1 671.2 481.667 664.362 473 662.793ZM341.5 788C347.1 794 358.167 788.833 363 785.5C364.395 780.097 365.15 775.086 365.433 770.5M341.5 788C342.334 786.5 344.2 783.1 345 781.5C350.956 779 363.38 773.3 365.433 770.5M341.5 788C332.611 804 296.5 817.5 278 800C276.167 798.333 276.5 791.1 292.5 775.5L304.5 751.5C302.667 749.5 299.8 744.8 303 742C293 709.5 278.5 679.5 288.5 676H289L290 678.5C293.5 684.5 308.6 691.5 341 671.5C340.5 670.5 339.4 668.3 339 667.5C345 667 353.5 697.5 358 739C361.389 743.041 366.451 754.035 365.433 770.5" stroke="black" stroke-width="3"/>
<path d="M485.5 651C483.928 654.405 479.235 658.6 473 662.793M473 662.793C455.435 674.606 425.643 686.404 419 680.5L430 674.5C436 637.7 414.5 629.833 403 630.5C411.4 625.7 451.834 613.5 471 608C498.2 583.6 514 608.5 518.5 624L515.5 626.5C516 625.667 520.4 629.7 534 652.5C551 681 520 704.5 509.5 686C501.1 671.2 481.667 664.362 473 662.793ZM341.5 788C347.1 794 358.167 788.833 363 785.5C364.395 780.097 365.15 775.086 365.433 770.5M341.5 788C342.334 786.5 344.2 783.1 345 781.5C350.956 779 363.38 773.3 365.433 770.5M341.5 788C332.611 804 296.5 817.5 278 800C276.167 798.333 276.5 791.1 292.5 775.5L304.5 751.5C302.667 749.5 299.8 744.8 303 742C293 709.5 278.5 679.5 288.5 676H289L290 678.5C293.5 684.5 308.6 691.5 341 671.5C340.5 670.5 339.4 668.3 339 667.5C345 667 353.5 697.5 358 739C361.389 743.041 366.451 754.035 365.433 770.5" stroke="black" stroke-opacity="0.2" stroke-width="3"/>
<path d="M400.037 631C398.872 627.766 397.443 624.23 396.5 622L341 630C372.6 702 403 691 430 674C436.4 635.2 412.691 629.167 400.037 631Z" fill="#FFADE1"/>
<path d="M341 671.5C337 668.7 331.333 639.333 329 625C327.5 620 275.5 621 274 625C272.8 628.2 284.167 662 290 678.5C302 692.5 329 679.667 341 671.5Z" fill="#FFADE1"/>
<path d="M402 638C402 636.835 401.136 634.052 400.037 631M400.037 631C398.872 627.766 397.443 624.23 396.5 622L341 630C372.6 702 403 691 430 674C436.4 635.2 412.691 629.167 400.037 631ZM329 625C331.333 639.333 337 668.7 341 671.5C329 679.667 302 692.5 290 678.5C284.167 662 272.8 628.2 274 625C275.5 621 327.5 620 329 625Z" stroke="black" stroke-width="3"/>
<path d="M402 638C402 636.835 401.136 634.052 400.037 631M400.037 631C398.872 627.766 397.443 624.23 396.5 622L341 630C372.6 702 403 691 430 674C436.4 635.2 412.691 629.167 400.037 631ZM329 625C331.333 639.333 337 668.7 341 671.5C329 679.667 302 692.5 290 678.5C284.167 662 272.8 628.2 274 625C275.5 621 327.5 620 329 625Z" stroke="black" stroke-opacity="0.2" stroke-width="3"/>
<path d="M471.5 580C455.9 548.8 372.333 599.333 332.5 628.5C356.306 629.939 377.695 627.175 396.262 622.174C434.474 611.882 460.732 592.114 471.5 580Z" fill="#47002D"/>
<path d="M471.5 580C455.9 548.8 372.333 599.333 332.5 628.5C356.306 629.939 377.695 627.175 396.262 622.174C434.474 611.882 460.732 592.114 471.5 580Z" stroke="black" stroke-width="3"/>
<path d="M471.5 580C455.9 548.8 372.333 599.333 332.5 628.5C356.306 629.939 377.695 627.175 396.262 622.174C434.474 611.882 460.732 592.114 471.5 580Z" stroke="black" stroke-opacity="0.2" stroke-width="3"/>
<path d="M402.5 447C459.5 479.5 530 504 535 418C512.2 423.2 467.167 406.167 447.5 397C448.3 399.8 441.5 401.833 438 402.5C438 418.1 425 426 418.5 428C417.7 439.6 407.5 445.5 402.5 447Z" fill="#EC0999"/>
<path d="M402.5 447C459.5 479.5 530 504 535 418C512.2 423.2 467.167 406.167 447.5 397C448.3 399.8 441.5 401.833 438 402.5C438 418.1 425 426 418.5 428C417.7 439.6 407.5 445.5 402.5 447Z" stroke="black" stroke-width="3"/>
<path d="M402.5 447C459.5 479.5 530 504 535 418C512.2 423.2 467.167 406.167 447.5 397C448.3 399.8 441.5 401.833 438 402.5C438 418.1 425 426 418.5 428C417.7 439.6 407.5 445.5 402.5 447Z" stroke="black" stroke-opacity="0.2" stroke-width="3"/>
<path d="M442.5 392C444.5 392.8 446.667 395.667 447.5 397C447.5 401 441.167 402.333 438 402.5C438 418.1 425.333 425 419 426.5C420.6 436.1 409.667 444.167 404 447C390.8 440.2 408.5 430.5 419 426.5C428.2 422.1 428.5 405 427.5 397C432.7 398.6 439.667 394.333 442.5 392Z" fill="#D9D9D9"/>
<path d="M419 426.5C428.2 422.1 428.5 405 427.5 397C432.7 398.6 439.667 394.333 442.5 392C444.5 392.8 446.667 395.667 447.5 397C447.5 401 441.167 402.333 438 402.5C438 418.1 425.333 425 419 426.5ZM419 426.5C408.5 430.5 390.8 440.2 404 447C409.667 444.167 420.6 436.1 419 426.5Z" stroke="black" stroke-width="3"/>
<path d="M419 426.5C428.2 422.1 428.5 405 427.5 397C432.7 398.6 439.667 394.333 442.5 392C444.5 392.8 446.667 395.667 447.5 397C447.5 401 441.167 402.333 438 402.5C438 418.1 425.333 425 419 426.5ZM419 426.5C408.5 430.5 390.8 440.2 404 447C409.667 444.167 420.6 436.1 419 426.5Z" stroke="black" stroke-opacity="0.2" stroke-width="3"/>
<path d="M380 377C408 372.2 433.333 385 442.5 392L396.5 487.5C402.1 491.1 400.833 498 399.5 501C414.3 509.4 454 555.833 472 578C468 588 455.333 588.5 449.5 587.5C439.1 604.3 417.833 608.5 408.5 608.5C366.5 638.5 338 632 329 625C308.6 631.4 253 619.5 261 627.5C248.6 632.7 231.5 620.333 224.5 613.5C207.7 615.5 200.5 606.667 199 602C205 580.4 240.5 526 257.5 501.5C255.5 494 263 488 263 486C263 484.4 262 472.667 261.5 467C228.7 496.6 201.167 501.333 191.5 500C177.5 518 163.667 507.5 158.5 500C156.833 502.167 150.8 503.4 140 491C129.2 478.6 159.833 436.833 176.5 417.5C188.833 428.333 220.7 441.1 249.5 405.5C278.3 369.9 348.5 371.667 380 377Z" fill="#EC0999"/>
<path d="M380 377C408 372.2 433.333 385 442.5 392L396.5 487.5C402.1 491.1 400.833 498 399.5 501C414.3 509.4 454 555.833 472 578C468 588 455.333 588.5 449.5 587.5C439.1 604.3 417.833 608.5 408.5 608.5C366.5 638.5 338 632 329 625C308.6 631.4 253 619.5 261 627.5C248.6 632.7 231.5 620.333 224.5 613.5C207.7 615.5 200.5 606.667 199 602C205 580.4 240.5 526 257.5 501.5C255.5 494 263 488 263 486C263 484.4 262 472.667 261.5 467C228.7 496.6 201.167 501.333 191.5 500C177.5 518 163.667 507.5 158.5 500C156.833 502.167 150.8 503.4 140 491C129.2 478.6 159.833 436.833 176.5 417.5C188.833 428.333 220.7 441.1 249.5 405.5C278.3 369.9 348.5 371.667 380 377Z" stroke="black" stroke-width="3"/>
<path d="M380 377C408 372.2 433.333 385 442.5 392L396.5 487.5C402.1 491.1 400.833 498 399.5 501C414.3 509.4 454 555.833 472 578C468 588 455.333 588.5 449.5 587.5C439.1 604.3 417.833 608.5 408.5 608.5C366.5 638.5 338 632 329 625C308.6 631.4 253 619.5 261 627.5C248.6 632.7 231.5 620.333 224.5 613.5C207.7 615.5 200.5 606.667 199 602C205 580.4 240.5 526 257.5 501.5C255.5 494 263 488 263 486C263 484.4 262 472.667 261.5 467C228.7 496.6 201.167 501.333 191.5 500C177.5 518 163.667 507.5 158.5 500C156.833 502.167 150.8 503.4 140 491C129.2 478.6 159.833 436.833 176.5 417.5C188.833 428.333 220.7 441.1 249.5 405.5C278.3 369.9 348.5 371.667 380 377Z" stroke="black" stroke-opacity="0.2" stroke-width="3"/>
<path d="M329 479V476.5C327.4 454.5 344.667 453 353.5 455C355.5 463.8 355 473 354.5 476.5C349.7 477.3 344.167 474.5 342 473C340.8 475.4 332.833 478 329 479Z" fill="#6C0044"/>
<path d="M276 471C276.4 469.4 276.833 468.333 277 468C278.2 463.6 297.5 457.5 307 455L299 476.5C295 476.1 289.333 471.667 287 469.5C283.4 471.9 278.167 471.5 276 471Z" fill="#6C0044"/>
<path d="M303.25 450.891C304.494 447.095 310.336 431.382 313.102 424C314.761 424.844 316.559 425.406 317.25 425.582C316.835 426.847 311.546 444.388 308.954 453C306.88 450.891 304.287 450.715 303.25 450.891Z" fill="#6C0044"/>
<path d="M180.5 401.5C182.1 407.1 177.833 416.833 175.5 421C177.025 429.515 177.042 436.64 176.175 442.5C181.35 468.5 165.5 483 164.5 483C163.7 483 158.5 480 156 478.5C127 483 115.5 453.5 110 451.5C79.5998 436.3 82.3332 424.167 87.4998 420C90.6998 422.8 105.206 430.5 112.059 434C85.756 406.054 92.687 392.327 100.02 388.851C100.027 383.237 103.473 380.152 107 379C111.5 384.833 120.8 396.6 122 397C123.2 397.4 131.833 409.5 136 415.5C122.8 383.9 125.5 373 128.5 371.5C137.5 361 150 404 158.5 425.5C163.3 401.5 175.166 399.5 180.5 401.5Z" fill="#FFADE1"/>
<path d="M164.5 464C168.366 461.839 174.312 455.086 176.175 442.5M158.5 425.5C163.3 401.5 175.166 399.5 180.5 401.5C182.1 407.1 177.833 416.833 175.5 421C177.025 429.515 177.042 436.64 176.175 442.5M158.5 425.5C153.5 429.5 143.8 439.9 145 449.5M158.5 425.5C150 404 137.5 361 128.5 371.5C125.5 373 122.8 383.9 136 415.5C131.833 409.5 123.2 397.4 122 397C120.8 396.6 111.5 384.833 107 379C103.473 380.152 100.027 383.237 100.02 388.851M125.5 425.5C105.956 408.001 100.012 396.237 100.02 388.851M100.02 388.851C92.687 392.327 85.756 406.054 112.059 434M131.5 421C123.9 428.2 119.333 436.667 118 440C115.853 437.931 113.877 435.932 112.059 434M112.059 434C105.206 430.5 90.6998 422.8 87.4998 420C82.3332 424.167 79.5998 436.3 110 451.5C115.5 453.5 127 483 156 478.5C158.5 480 163.7 483 164.5 483C165.5 483 181.35 468.5 176.175 442.5" stroke="black" stroke-width="3"/>
<path d="M164.5 464C168.366 461.839 174.312 455.086 176.175 442.5M158.5 425.5C163.3 401.5 175.166 399.5 180.5 401.5C182.1 407.1 177.833 416.833 175.5 421C177.025 429.515 177.042 436.64 176.175 442.5M158.5 425.5C153.5 429.5 143.8 439.9 145 449.5M158.5 425.5C150 404 137.5 361 128.5 371.5C125.5 373 122.8 383.9 136 415.5C131.833 409.5 123.2 397.4 122 397C120.8 396.6 111.5 384.833 107 379C103.473 380.152 100.027 383.237 100.02 388.851M125.5 425.5C105.956 408.001 100.012 396.237 100.02 388.851M100.02 388.851C92.687 392.327 85.756 406.054 112.059 434M131.5 421C123.9 428.2 119.333 436.667 118 440C115.853 437.931 113.877 435.932 112.059 434M112.059 434C105.206 430.5 90.6998 422.8 87.4998 420C82.3332 424.167 79.5998 436.3 110 451.5C115.5 453.5 127 483 156 478.5C158.5 480 163.7 483 164.5 483C165.5 483 181.35 468.5 176.175 442.5" stroke="black" stroke-opacity="0.2" stroke-width="3"/>
<path d="M330 424.5C324.8 428.5 315.833 425.167 312 423C306 429.8 286.167 432.833 277 433.5C275.8 423.5 279.5 413 281.5 409C279.1 402.6 281.833 394 283.5 390.5C297.9 388.1 310.5 397.999 315 403.248C316.35 401.198 317.831 399.779 319 399C327.4 399.4 333.5 401.833 335.5 403C335.641 403.802 335.707 404.64 335.71 405.5C341.64 401.167 357.2 394 372 400C371.667 406.667 369.7 420.3 364.5 421.5C364 428.833 361.8 443.5 357 443.5C350 441 334.8 433.7 330 424.5Z" fill="#D9D9D9"/>
<path d="M312 423C315.833 425.167 324.8 428.5 330 424.5M312 423C310.135 413.942 312.307 407.338 315 403.248M312 423C306 429.8 286.167 432.833 277 433.5C275.8 423.5 279.5 413 281.5 409C279.1 402.6 281.833 394 283.5 390.5C297.9 388.1 310.5 397.999 315 403.248M330 424.5C330 424.047 335.741 413.752 335.71 405.5M330 424.5C334.8 433.7 350 441 357 443.5C361.8 443.5 364 428.833 364.5 421.5C369.7 420.3 371.667 406.667 372 400C357.2 394 341.64 401.167 335.71 405.5M335.71 405.5C335.707 404.64 335.641 403.802 335.5 403C333.5 401.833 327.4 399.4 319 399C317.831 399.779 316.35 401.198 315 403.248" stroke="black" stroke-width="3"/>
<path d="M312 423C315.833 425.167 324.8 428.5 330 424.5M312 423C310.135 413.942 312.307 407.338 315 403.248M312 423C306 429.8 286.167 432.833 277 433.5C275.8 423.5 279.5 413 281.5 409C279.1 402.6 281.833 394 283.5 390.5C297.9 388.1 310.5 397.999 315 403.248M330 424.5C330 424.047 335.741 413.752 335.71 405.5M330 424.5C334.8 433.7 350 441 357 443.5C361.8 443.5 364 428.833 364.5 421.5C369.7 420.3 371.667 406.667 372 400C357.2 394 341.64 401.167 335.71 405.5M335.71 405.5C335.707 404.64 335.641 403.802 335.5 403C333.5 401.833 327.4 399.4 319 399C317.831 399.779 316.35 401.198 315 403.248" stroke="black" stroke-opacity="0.2" stroke-width="3"/>
<path d="M360 441C368.902 455.709 377.587 451.003 381.159 446.454C382.129 448.452 386.682 451.264 389 452.5C373.8 469.3 361.333 460.167 357 453.5C355.4 453.1 351.333 453.667 349.5 454C349.9 452.8 347.333 444.5 346 440.5C357.6 445.3 360.166 442.833 360 441Z" fill="#D9D9D9"/>
<path d="M311.395 464.5C315.385 455.315 321.092 453.074 324.5 453.5C326.833 457.667 330.2 465.6 325 464C319.8 462.4 317.5 479.333 317 488C321.28 488.428 328.837 498.593 314 500.703L311 524C316.43 526.212 318.3 530.851 317.556 534.5C322.801 575.7 346.371 579.667 357.5 576.5C369.9 600.9 387 596 394 590.5C424.4 601.7 437.667 584.5 440.5 574.5C452.5 578.9 461.167 572.333 464 568.5C467.2 571.7 470 576.167 471 578C470.6 586.4 456.5 587.833 449.5 587.5C431.9 613.9 408.167 609.5 398.5 604C368.9 628.4 348.5 609.167 342 596.5C304.852 592.13 298.045 558.966 299.389 538.597C295.306 565.006 275.831 576.503 266 579C240.8 624.2 210.5 614.167 198.5 603.5L203.5 593.5C231.9 609.5 251 583.5 257 568.5C280.6 563.3 286.833 545.595 287 537.392C281.761 535.269 280.106 528.473 291 523.5C292.333 517.624 295.1 504.584 295.5 499.435C285.645 495.796 290.737 487.226 298.5 486C303.5 462 300 461.5 302 452C310 451.6 311.597 460.167 311.395 464.5Z" fill="#D9D9D9"/>
<path d="M237 533C238.167 530.833 240.6 526.4 241 526C256.6 532.8 249.5 545.833 244 551.5C257 573.5 229 591 212 577.5C212.4 576.3 216.833 567.667 219 563.5C219 587 256 562.5 232 553C249.2 539 242.5 533.833 237 533Z" fill="#D9D9D9"/>
<path d="M277.5 430C277.36 430.09 277.217 430.18 277.074 430.27C276.312 431.043 276.356 432.993 276.5 434C277.3 434 285.167 433 289 432.5C287.4 433.3 283.667 440.167 282 443.5C280.4 444.7 275.333 443 273 442C252.6 450.4 248.833 435.167 249.5 426.5C228.415 422.9 237.381 413.667 244.5 409.5C246.1 418.7 255.167 415.667 259.5 413C251.62 440.579 267.671 436.143 277.074 430.27C277.195 430.148 277.336 430.055 277.5 430Z" fill="#D9D9D9"/>
<path d="M195 462C205.4 449.2 197.333 433 192 426.5C215.6 431.3 212.5 451.5 208 461C219.2 479.4 202.667 494 193 499C188.2 510.2 172 508.667 164.5 506.5C176.5 506.5 180.167 497.5 180.5 493C205.3 487.852 200.5 470.188 195 462Z" fill="#D9D9D9"/>
<path d="M381.5 446C378.166 450.667 369.2 456.2 360 441C360.166 442.833 357.6 445.3 346 440.5C347.333 444.5 349.9 452.8 349.5 454C351.333 453.667 355.4 453.1 357 453.5C361.333 460.167 373.8 469.3 389 452.5C386.5 451.167 381.4 448 381 446M307 487.5C307.433 477.1 309.14 469.691 311.395 464.5M311.395 464.5C315.385 455.315 321.092 453.074 324.5 453.5C326.833 457.667 330.2 465.6 325 464C319.8 462.4 317.5 479.333 317 488M311.395 464.5C311.597 460.167 310 451.6 302 452C300 461.5 303.5 462 298.5 486M298.5 486C299.7 486 311.333 487.333 317 488M298.5 486C290.737 487.226 285.645 495.796 295.5 499.435M317 488C321.28 488.428 328.837 498.593 314 500.703M314 500.703C311.506 501.058 308.38 501.185 304.5 501C300.659 500.817 297.705 500.25 295.5 499.435M314 500.703L311 524C316.43 526.212 318.3 530.851 317.556 534.5M300 533C297 552.167 301.2 591.7 342 596.5C348.5 609.167 368.9 628.4 398.5 604C408.167 609.5 431.9 613.9 449.5 587.5C456.5 587.833 470.6 586.4 471 578C470 576.167 467.2 571.7 464 568.5C461.167 572.333 452.5 578.9 440.5 574.5C437.667 584.5 424.4 601.7 394 590.5C387 596 369.9 600.9 357.5 576.5C346.371 579.667 322.801 575.7 317.556 534.5M300 533C309.565 543.163 316.449 539.924 317.556 534.5M300 533C295.921 538.099 290.61 538.855 287 537.392M300 533C298 563.4 276.5 576.333 266 579C240.8 624.2 210.5 614.167 198.5 603.5L203.5 593.5C231.9 609.5 251 583.5 257 568.5C280.6 563.3 286.833 545.595 287 537.392M295.5 499.435C295.1 504.584 292.333 517.624 291 523.5C280.106 528.473 281.761 535.269 287 537.392M241 526C240.6 526.4 238.167 530.833 237 533C242.5 533.833 249.2 539 232 553C256 562.5 219 587 219 563.5C216.833 567.667 212.4 576.3 212 577.5C229 591 257 573.5 244 551.5C249.5 545.833 256.6 532.8 241 526ZM277.5 430C268.167 436 251.5 441 259.5 413C255.167 415.667 246.1 418.7 244.5 409.5C237.381 413.667 228.415 422.9 249.5 426.5C248.833 435.167 252.6 450.4 273 442C275.333 443 280.4 444.7 282 443.5C283.667 440.167 287.4 433.3 289 432.5C285.167 433 277.3 434 276.5 434C276.333 432.833 276.3 430.4 277.5 430ZM192 426.5C197.333 433 205.4 449.2 195 462C200.5 470.188 205.3 487.852 180.5 493C180.167 497.5 176.5 506.5 164.5 506.5C172 508.667 188.2 510.2 193 499C202.667 494 219.2 479.4 208 461C212.5 451.5 215.6 431.3 192 426.5Z" stroke="black" stroke-width="3"/>
<path d="M381.5 446C378.166 450.667 369.2 456.2 360 441C360.166 442.833 357.6 445.3 346 440.5C347.333 444.5 349.9 452.8 349.5 454C351.333 453.667 355.4 453.1 357 453.5C361.333 460.167 373.8 469.3 389 452.5C386.5 451.167 381.4 448 381 446M307 487.5C307.433 477.1 309.14 469.691 311.395 464.5M311.395 464.5C315.385 455.315 321.092 453.074 324.5 453.5C326.833 457.667 330.2 465.6 325 464C319.8 462.4 317.5 479.333 317 488M311.395 464.5C311.597 460.167 310 451.6 302 452C300 461.5 303.5 462 298.5 486M298.5 486C299.7 486 311.333 487.333 317 488M298.5 486C290.737 487.226 285.645 495.796 295.5 499.435M317 488C321.28 488.428 328.837 498.593 314 500.703M314 500.703C311.506 501.058 308.38 501.185 304.5 501C300.659 500.817 297.705 500.25 295.5 499.435M314 500.703L311 524C316.43 526.212 318.3 530.851 317.556 534.5M300 533C297 552.167 301.2 591.7 342 596.5C348.5 609.167 368.9 628.4 398.5 604C408.167 609.5 431.9 613.9 449.5 587.5C456.5 587.833 470.6 586.4 471 578C470 576.167 467.2 571.7 464 568.5C461.167 572.333 452.5 578.9 440.5 574.5C437.667 584.5 424.4 601.7 394 590.5C387 596 369.9 600.9 357.5 576.5C346.371 579.667 322.801 575.7 317.556 534.5M300 533C309.565 543.163 316.449 539.924 317.556 534.5M300 533C295.921 538.099 290.61 538.855 287 537.392M300 533C298 563.4 276.5 576.333 266 579C240.8 624.2 210.5 614.167 198.5 603.5L203.5 593.5C231.9 609.5 251 583.5 257 568.5C280.6 563.3 286.833 545.595 287 537.392M295.5 499.435C295.1 504.584 292.333 517.624 291 523.5C280.106 528.473 281.761 535.269 287 537.392M241 526C240.6 526.4 238.167 530.833 237 533C242.5 533.833 249.2 539 232 553C256 562.5 219 587 219 563.5C216.833 567.667 212.4 576.3 212 577.5C229 591 257 573.5 244 551.5C249.5 545.833 256.6 532.8 241 526ZM277.5 430C268.167 436 251.5 441 259.5 413C255.167 415.667 246.1 418.7 244.5 409.5C237.381 413.667 228.415 422.9 249.5 426.5C248.833 435.167 252.6 450.4 273 442C275.333 443 280.4 444.7 282 443.5C283.667 440.167 287.4 433.3 289 432.5C285.167 433 277.3 434 276.5 434C276.333 432.833 276.3 430.4 277.5 430ZM192 426.5C197.333 433 205.4 449.2 195 462C200.5 470.188 205.3 487.852 180.5 493C180.167 497.5 176.5 506.5 164.5 506.5C172 508.667 188.2 510.2 193 499C202.667 494 219.2 479.4 208 461C212.5 451.5 215.6 431.3 192 426.5Z" stroke="black" stroke-opacity="0.2" stroke-width="3"/>
<path d="M313 386C297.4 378.4 303.5 368.5 308.5 364.5C313 378 323.5 373.5 328.502 390C331.872 383.302 339.423 379.96 344 379C374.872 377.8 378.197 368.833 376 364.5C391.6 371.7 377.167 381.833 368 386C343.6 386 336.5 397.333 336 403C335.064 402.064 331.116 401.082 327 400.295C324.08 399.737 321.075 399.277 319 399C318.6 389.8 314.833 386.5 313 386Z" fill="#D9D9D9"/>
<path d="M325 475.5C323.4 431.5 328.333 423.167 331 424.5C356.5 441.5 350 472 350 473.5C346.5 474.5 341.5 469 339 467.5C336 473 327 475.5 325 475.5Z" fill="#D9D9D9"/>
<path d="M295 472C295.4 469.2 306.5 438.167 312 423C289.5 411.5 274 463.5 274 466.5C278.8 466.5 284 464.5 286 463.5C286.4 467.1 292.167 470.667 295 472Z" fill="#D9D9D9"/>
<path d="M327 400.295C324.08 399.737 321.075 399.277 319 399C318.6 389.8 314.833 386.5 313 386C297.4 378.4 303.5 368.5 308.5 364.5C313 378 323.5 373.5 328.502 390M327 400.295C331.116 401.082 335.064 402.064 336 403C336.5 397.333 343.6 386 368 386C377.167 381.833 391.6 371.7 376 364.5C378.197 368.833 374.872 377.8 344 379C339.423 379.96 331.872 383.302 328.502 390M327 400.295C326.408 396.223 327.086 392.815 328.502 390M331 424.5C328.333 423.167 323.4 431.5 325 475.5C327 475.5 336 473 339 467.5C341.5 469 346.5 474.5 350 473.5C350 472 356.5 441.5 331 424.5ZM312 423C306.5 438.167 295.4 469.2 295 472C292.167 470.667 286.4 467.1 286 463.5C284 464.5 278.8 466.5 274 466.5C274 463.5 289.5 411.5 312 423Z" stroke="black" stroke-width="3"/>
<path d="M327 400.295C324.08 399.737 321.075 399.277 319 399C318.6 389.8 314.833 386.5 313 386C297.4 378.4 303.5 368.5 308.5 364.5C313 378 323.5 373.5 328.502 390M327 400.295C331.116 401.082 335.064 402.064 336 403C336.5 397.333 343.6 386 368 386C377.167 381.833 391.6 371.7 376 364.5C378.197 368.833 374.872 377.8 344 379C339.423 379.96 331.872 383.302 328.502 390M327 400.295C326.408 396.223 327.086 392.815 328.502 390M331 424.5C328.333 423.167 323.4 431.5 325 475.5C327 475.5 336 473 339 467.5C341.5 469 346.5 474.5 350 473.5C350 472 356.5 441.5 331 424.5ZM312 423C306.5 438.167 295.4 469.2 295 472C292.167 470.667 286.4 467.1 286 463.5C284 464.5 278.8 466.5 274 466.5C274 463.5 289.5 411.5 312 423Z" stroke="black" stroke-opacity="0.2" stroke-width="3"/>
<path d="M467 425.5C440.6 427.9 442.667 404.833 447 393C450.2 391 508 387.167 536.5 385.5C554.5 415.1 532.333 421.167 519 420.5C503.4 448.1 477.833 435.333 467 425.5Z" fill="#D9D9D9"/>
<path d="M467 425.5C440.6 427.9 442.667 404.833 447 393C450.2 391 508 387.167 536.5 385.5C554.5 415.1 532.333 421.167 519 420.5C503.4 448.1 477.833 435.333 467 425.5Z" stroke="black" stroke-width="3"/>
<path d="M467 425.5C440.6 427.9 442.667 404.833 447 393C450.2 391 508 387.167 536.5 385.5C554.5 415.1 532.333 421.167 519 420.5C503.4 448.1 477.833 435.333 467 425.5Z" stroke="black" stroke-opacity="0.2" stroke-width="3"/>
<path d="M339 80.5C273.8 87.7 266.5 139.5 271 164.5L476.5 235C479.3 226.2 497.333 204.333 506 194.5C506 115 420.5 71.5 339 80.5Z" fill="#EC0999"/>
<path d="M339 80.5C273.8 87.7 266.5 139.5 271 164.5L476.5 235C479.3 226.2 497.333 204.333 506 194.5C506 115 420.5 71.5 339 80.5Z" stroke="black" stroke-width="3"/>
<path d="M339 80.5C273.8 87.7 266.5 139.5 271 164.5L476.5 235C479.3 226.2 497.333 204.333 506 194.5C506 115 420.5 71.5 339 80.5Z" stroke="black" stroke-opacity="0.2" stroke-width="3"/>
<path d="M263.486 312.5C257.32 325.667 245.186 353.1 245.986 357.5C256.487 373 276.487 391.5 236.487 414C233.986 418.833 232.386 429.4 245.986 433C232.987 437.5 207.287 428.5 222.487 402.5C214.487 402.5 199.687 398.3 204.487 381.5C210.321 387.5 222.987 394.6 226.987 375C202.987 351 231.987 323 243.486 297.5L253 200C238.492 213.5 210.977 244.8 216.987 262C206.487 274.5 211.487 290 214.487 312.5C214.987 319.167 211.187 333.6 191.987 338C195.654 336 202.687 327.8 201.487 311C201.5 343.5 149.687 352.1 152.487 306.5C153.376 319.5 176 329 180 303.5C178.694 301.343 177.299 298.653 176 295.595C154.5 295.595 133.6 257 176 225C163.5 231 142.8 213 158 195C161.167 204 171.7 216.9 188.5 196.5C201.167 163.5 241.5 110.5 271 164C306.6 217.2 280.824 285.167 263.486 312.5Z" fill="#FF50BF"/>
<path d="M263.486 312.5C257.32 325.667 245.186 353.1 245.986 357.5M263.486 312.5C280.824 285.167 306.6 217.2 271 164C241.5 110.5 201.167 163.5 188.5 196.5C171.7 216.9 161.167 204 158 195C142.8 213 163.5 231 176 225M263.486 312.5L243.486 297.5M245.986 357.5C243.986 352 240.686 339 243.486 331M245.986 357.5C256.487 373 276.487 391.5 236.487 414M236.487 414C233.986 418.833 232.386 429.4 245.986 433C232.987 437.5 207.287 428.5 222.487 402.5C214.487 402.5 199.687 398.3 204.487 381.5C210.321 387.5 222.987 394.6 226.987 375M236.487 414C247.686 394.4 234.82 379.833 226.987 375M226.987 375C202.987 351 231.987 323 243.486 297.5M243.486 297.5L253 200C238.492 213.5 210.977 244.8 216.987 262C206.487 274.5 211.487 290 214.487 312.5C214.987 319.167 211.187 333.6 191.987 338C195.654 336 202.687 327.8 201.487 311C201.5 343.5 149.687 352.1 152.487 306.5C153.376 319.5 176 329 180 303.5C178.694 301.343 177.299 298.653 176 295.595M181 247C166.281 260.738 170.173 281.876 176 295.595M176 295.595C154.5 295.595 133.6 257 176 225M176 225C182.837 220 197.01 208.3 199 201.5" stroke="black" stroke-width="3"/>
<path d="M263.486 312.5C257.32 325.667 245.186 353.1 245.986 357.5M263.486 312.5C280.824 285.167 306.6 217.2 271 164C241.5 110.5 201.167 163.5 188.5 196.5C171.7 216.9 161.167 204 158 195C142.8 213 163.5 231 176 225M263.486 312.5L243.486 297.5M245.986 357.5C243.986 352 240.686 339 243.486 331M245.986 357.5C256.487 373 276.487 391.5 236.487 414M236.487 414C233.986 418.833 232.386 429.4 245.986 433C232.987 437.5 207.287 428.5 222.487 402.5C214.487 402.5 199.687 398.3 204.487 381.5C210.321 387.5 222.987 394.6 226.987 375M236.487 414C247.686 394.4 234.82 379.833 226.987 375M226.987 375C202.987 351 231.987 323 243.486 297.5M243.486 297.5L253 200C238.492 213.5 210.977 244.8 216.987 262C206.487 274.5 211.487 290 214.487 312.5C214.987 319.167 211.187 333.6 191.987 338C195.654 336 202.687 327.8 201.487 311C201.5 343.5 149.687 352.1 152.487 306.5C153.376 319.5 176 329 180 303.5C178.694 301.343 177.299 298.653 176 295.595M181 247C166.281 260.738 170.173 281.876 176 295.595M176 295.595C154.5 295.595 133.6 257 176 225M176 225C182.837 220 197.01 208.3 199 201.5" stroke="black" stroke-opacity="0.2" stroke-width="3"/>
<path d="M325 374C296.5 356.5 267.5 350 262 304.5C262 9.3 413 181.167 488.5 304C443.5 333.167 347.8 388 325 374Z" fill="#FFADE1" stroke="black" stroke-width="3"/>
<path d="M393.119 382.5C387.645 367.062 384.594 350.605 412.002 326C415.603 322.612 431.835 319.922 439.5 319C418.842 349.812 419.011 372.91 422.554 383.668C423.129 384.944 423.69 386.222 424.222 387.5C431.003 403.77 433.213 420.062 402.386 433.5C398.544 439.275 397.418 445.098 406.502 453.5C352 456.5 395.001 401 393.119 382.5Z" fill="#FF50BF"/>
<path d="M399.502 411C400.633 400.819 396.432 391.846 393.119 382.5M393.119 382.5C387.645 367.062 384.594 350.605 412.002 326C415.603 322.612 431.835 319.922 439.5 319C415.9 354.2 419.482 379.333 424.222 387.5M393.119 382.5C395.001 401 352 456.5 406.502 453.5C397.418 445.098 398.544 439.275 402.386 433.5M415 408.5C415.546 419.69 407.004 426.56 402.386 433.5M402.386 433.5C433.213 420.062 431.003 403.77 424.222 387.5M413 355.5C413 365.569 419.65 376.529 424.222 387.5" stroke="black" stroke-width="3"/>
<path d="M399.502 411C400.633 400.819 396.432 391.846 393.119 382.5M393.119 382.5C387.645 367.062 384.594 350.605 412.002 326C415.603 322.612 431.835 319.922 439.5 319C415.9 354.2 419.482 379.333 424.222 387.5M393.119 382.5C395.001 401 352 456.5 406.502 453.5C397.418 445.098 398.544 439.275 402.386 433.5M415 408.5C415.546 419.69 407.004 426.56 402.386 433.5M402.386 433.5C433.213 420.062 431.003 403.77 424.222 387.5M413 355.5C413 365.569 419.65 376.529 424.222 387.5" stroke="black" stroke-opacity="0.2" stroke-width="3"/>
<path d="M479 228.5C511 160 570 192 554 252C551.167 267 552.5 292.5 580.5 274.5C583.551 286.703 562.462 305.014 549.175 287.286C557.948 306.041 566.108 307.528 565 333C562.5 341.167 553.5 357 537.5 355C544 352.667 553.6 339.2 540 304C543.667 316.667 545.8 343.8 525 351C481 335.833 410.2 290.1 479 228.5Z" fill="#FF50BF"/>
<path d="M479 228.5C511 160 570 192 554 252C551.167 267 552.5 292.5 580.5 274.5C583.551 286.703 562.462 305.014 549.175 287.286C557.948 306.041 566.108 307.528 565 333C562.5 341.167 553.5 357 537.5 355C544 352.667 553.6 339.2 540 304C543.667 316.667 545.8 343.8 525 351C481 335.833 410.2 290.1 479 228.5Z" stroke="black" stroke-width="3"/>
<path d="M479 228.5C511 160 570 192 554 252C551.167 267 552.5 292.5 580.5 274.5C583.551 286.703 562.462 305.014 549.175 287.286C557.948 306.041 566.108 307.528 565 333C562.5 341.167 553.5 357 537.5 355C544 352.667 553.6 339.2 540 304C543.667 316.667 545.8 343.8 525 351C481 335.833 410.2 290.1 479 228.5Z" stroke="black" stroke-opacity="0.2" stroke-width="3"/>
<path d="M267 292.5V295C269.334 297 274.3 301.2 275.5 302C248.5 311.5 189.5 279 250.5 208.5C240.5 217.167 219.7 240.1 216.5 262.5C193.5 221 246 193.5 269.5 166.5C292.638 139.916 344.858 105.092 387.982 136C432.5 122.5 510.5 222.5 469.5 273C464.833 299.667 443.1 346 393.5 318C408.865 316.998 420.113 298.647 425.91 274.5C395 258 419 236 393.5 201.5C385.695 238.184 343.47 230.701 349.56 203.777C342.515 226.911 347.898 253.703 375 244C343.943 280.738 307.435 229.974 323.5 191.456C301 211 291.362 235.5 269.931 244C267.495 258.161 266.39 274.251 267 292.5Z" fill="#FF50BF"/>
<path d="M368 147.5C338.058 146.229 283.461 165.352 269.931 244M267 295V292.5C266.39 274.251 267.495 258.161 269.931 244M267 295C255.4 282.2 255.834 259.667 257.5 250M267 295C269.334 297 274.3 301.2 275.5 302C248.5 311.5 189.5 279 250.5 208.5C240.5 217.167 219.7 240.1 216.5 262.5C193.5 221 246 193.5 269.5 166.5C292.638 139.916 344.858 105.092 387.982 136M390 137.5C389.33 136.984 388.657 136.484 387.982 136M387.982 136C432.5 122.5 510.5 222.5 469.5 273M469.5 273C471.167 263 470.9 234.5 456.5 200.5M469.5 273C464.833 299.667 443.1 346 393.5 318M393.5 318C405.833 320.167 432.3 316.5 439.5 284.5M393.5 318C408.865 316.998 420.113 298.647 425.91 274.5M385 152.5C427.357 155.164 437.468 226.354 425.91 274.5M425.91 274.5C395 258 419 236 393.5 201.5M393.5 201.5C393.833 197.333 392.5 186.4 384.5 176M393.5 201.5C383.5 248.5 317 223 368 177C342.5 191.5 334.5 258.5 375 244C343.943 280.738 307.435 229.974 323.5 191.456M357 161.5C339.175 168.048 328.643 179.124 323.5 191.456M323.5 191.456C301 211 291.362 235.5 269.931 244" stroke="black" stroke-width="3"/>
<path d="M302.5 135C284.5 99.5 320.5 100 303.5 135.5C303.295 135.596 303.093 135.691 302.892 135.784L303 136C302.946 135.937 302.892 135.873 302.836 135.809C288.917 142.218 283.148 139.633 282 137.5C287.536 123.266 298.087 130.332 302.836 135.809C302.855 135.801 302.873 135.792 302.892 135.784L302.5 135Z" fill="#D197BC"/>
<path d="M360 125C351 119.5 334.1 99.9 338.5 65.5C353.167 69.1667 384.4 84.2 392 115C396.333 112.333 405.5 109.8 407.5 121C416.5 109.833 443.5 88.4 479.5 92C475.167 115.333 454.4 156.9 406 136.5C403.5 138.5 382.5 142.5 385.5 133.5C377.167 130.772 360.4 125.252 360 125Z" fill="#D197BC"/>
<path d="M404 84.5C412.5 76.3333 428.4 66.2 424 91C417.167 90.3333 403.6 88.1 404 84.5Z" fill="#D197BC"/>
<path d="M392 115C384.4 84.2 353.167 69.1667 338.5 65.5C334.1 99.9 351 119.5 360 125C360.4 125.252 377.167 130.772 385.5 133.5M392 115C389.5 119.667 384.7 129.9 385.5 133.5M392 115C396.333 112.333 405.5 109.8 407.5 121M385.5 133.5C382.5 142.5 403.5 138.5 406 136.5M407.5 121C407.833 125.5 408 134.9 406 136.5M407.5 121C416.5 109.833 443.5 88.4 479.5 92C475.167 115.333 454.4 156.9 406 136.5M303.5 135.5C320.5 100 284.5 99.5 302.5 135L303 136C298.333 130.5 287.6 123.1 282 137.5C283.166 139.667 289.099 142.3 303.5 135.5ZM404 84.5C412.5 76.3333 428.4 66.2 424 91C417.167 90.3333 403.6 88.1 404 84.5Z" stroke="black" stroke-width="3"/>
<path d="M392 115C384.4 84.2 353.167 69.1667 338.5 65.5C334.1 99.9 351 119.5 360 125C360.4 125.252 377.167 130.772 385.5 133.5M392 115C389.5 119.667 384.7 129.9 385.5 133.5M392 115C396.333 112.333 405.5 109.8 407.5 121M385.5 133.5C382.5 142.5 403.5 138.5 406 136.5M407.5 121C407.833 125.5 408 134.9 406 136.5M407.5 121C416.5 109.833 443.5 88.4 479.5 92C475.167 115.333 454.4 156.9 406 136.5M303.5 135.5C320.5 100 284.5 99.5 302.5 135L303 136C298.333 130.5 287.6 123.1 282 137.5C283.166 139.667 289.099 142.3 303.5 135.5ZM404 84.5C412.5 76.3333 428.4 66.2 424 91C417.167 90.3333 403.6 88.1 404 84.5Z" stroke="black" stroke-opacity="0.2" stroke-width="3"/>
<path d="M447.5 382.078C442.367 372.125 448.151 360.427 452 355.5C466.167 350.333 498.7 341.5 515.5 347.5C532.3 353.5 533.167 367 531.5 373C534.7 378.6 537.5 387.667 538.5 391.5C538.1 412.7 521.333 409.667 513 405.5C498.2 439.5 479.167 422.333 471.5 409.5C448.3 427.5 445.833 398.719 447.5 382.078Z" fill="#EC0999"/>
<path d="M449 384.5C448.421 383.708 447.923 382.899 447.5 382.078M447.5 382.078C442.367 372.125 448.151 360.427 452 355.5C466.167 350.333 498.7 341.5 515.5 347.5C532.3 353.5 533.167 367 531.5 373C534.7 378.6 537.5 387.667 538.5 391.5C538.1 412.7 521.333 409.667 513 405.5C498.2 439.5 479.167 422.333 471.5 409.5C448.3 427.5 445.833 398.719 447.5 382.078ZM515.5 358.5H517C531.86 371.33 466.5 403 456.5 370.5" stroke="black" stroke-width="3"/>
<path d="M449 384.5C448.421 383.708 447.923 382.899 447.5 382.078M447.5 382.078C442.367 372.125 448.151 360.427 452 355.5C466.167 350.333 498.7 341.5 515.5 347.5C532.3 353.5 533.167 367 531.5 373C534.7 378.6 537.5 387.667 538.5 391.5C538.1 412.7 521.333 409.667 513 405.5C498.2 439.5 479.167 422.333 471.5 409.5C448.3 427.5 445.833 398.719 447.5 382.078ZM515.5 358.5H517C531.86 371.33 466.5 403 456.5 370.5" stroke="black" stroke-opacity="0.2" stroke-width="3"/>
<path d="M448.5 310.5C448.5 290.5 429.5 251.5 446 250.5C459.5 245.5 463.5 303.5 470 303.5C474 302.5 480.5 245 493.5 250.5C504 250.5 492.5 289.5 491 303.5C498.6 297.1 504.833 304.167 507 308.5C521.167 306.353 521.707 315.91 517.132 325.5C516.815 332.591 515.294 344.187 511.705 353.5L513.5 373C462.3 399.8 458.833 377.831 463.5 363.497C447.768 355.196 431.311 337.606 448.5 310.5Z" fill="#FFADE1"/>
<path d="M473 367.5C470.078 366.574 466.805 365.24 463.5 363.497M491 303.5C492.5 289.5 504 250.5 493.5 250.5C480.5 245 474 302.5 470 303.5C463.5 303.5 459.5 245.5 446 250.5C429.5 251.5 448.5 290.5 448.5 310.5C431.311 337.606 447.768 355.196 463.5 363.497M491 303.5C485.333 311 476 328.1 484 336.5C486.431 339.053 489.109 338.653 491.78 336.5M491 303.5C498.6 297.1 504.833 304.167 507 308.5M507 308.5C503.984 317.433 497.898 331.568 491.78 336.5M507 308.5C521.167 306.353 521.707 315.91 517.132 325.5M491.78 336.5C495.934 351.053 511.051 338.248 517.132 325.5M517.132 325.5C516.815 332.591 515.294 344.187 511.705 353.5M500.5 367.5C505.507 365.664 509.136 360.167 511.705 353.5M511.705 353.5L513.5 373C462.3 399.8 458.833 377.831 463.5 363.497" stroke="black" stroke-width="3"/>
<path d="M473 367.5C470.078 366.574 466.805 365.24 463.5 363.497M491 303.5C492.5 289.5 504 250.5 493.5 250.5C480.5 245 474 302.5 470 303.5C463.5 303.5 459.5 245.5 446 250.5C429.5 251.5 448.5 290.5 448.5 310.5C431.311 337.606 447.768 355.196 463.5 363.497M491 303.5C485.333 311 476 328.1 484 336.5C486.431 339.053 489.109 338.653 491.78 336.5M491 303.5C498.6 297.1 504.833 304.167 507 308.5M507 308.5C503.984 317.433 497.898 331.568 491.78 336.5M507 308.5C521.167 306.353 521.707 315.91 517.132 325.5M491.78 336.5C495.934 351.053 511.051 338.248 517.132 325.5M517.132 325.5C516.815 332.591 515.294 344.187 511.705 353.5M500.5 367.5C505.507 365.664 509.136 360.167 511.705 353.5M511.705 353.5L513.5 373C462.3 399.8 458.833 377.831 463.5 363.497" stroke="black" stroke-opacity="0.2" stroke-width="3"/>
<ellipse cx="305.5" cy="275" rx="13.5" ry="20" fill="black"/>
<path d="M408.5 298C403.833 290 388.4 277.2 364 290" stroke="black" stroke-width="4"/>
<path d="M408.5 298C403.833 290 388.4 277.2 364 290" stroke="black" stroke-opacity="0.2" stroke-width="4"/>
<path d="M323.5 297C323.167 299.667 322.8 305.4 324 307" stroke="black" stroke-width="4"/>
<path d="M323.5 297C323.167 299.667 322.8 305.4 324 307" stroke="black" stroke-opacity="0.2" stroke-width="4"/>
<path d="M315 254.5C310 245 283.3 239.4 278.5 271" stroke="black" stroke-width="4"/>
<path d="M315 254.5C310 245 283.3 239.4 278.5 271" stroke="black" stroke-opacity="0.2" stroke-width="4"/>
<path d="M460 330C462.192 329.787 464.187 329.532 466 329.241M466 329.241C488.013 325.704 483.197 316.812 477.5 312.5C417 303 451 355 451.5 355.5C454 358.5 461.9 365.1 473.5 367.5M466 329.241C471.167 334.327 480.7 345.3 477.5 348.5M466 329.241C470.333 332.66 478.9 342 478.5 352" stroke="black" stroke-width="3"/>
<path d="M460 330C462.192 329.787 464.187 329.532 466 329.241M466 329.241C488.013 325.704 483.197 316.812 477.5 312.5C417 303 451 355 451.5 355.5C454 358.5 461.9 365.1 473.5 367.5M466 329.241C471.167 334.327 480.7 345.3 477.5 348.5M466 329.241C470.333 332.66 478.9 342 478.5 352" stroke="black" stroke-opacity="0.2" stroke-width="3"/>
<path d="M462 566.6C424.875 524.634 402.531 506.048 396 502C437.25 543.966 454.094 564.819 457.359 570C459.009 569.223 461.141 567.41 462 566.6Z" fill="#FFAAE0"/>
<path d="M513.5 354C513.9 352.4 514.667 350 515 349C521.333 351 533.2 358.4 530 372C529.167 365.333 524.7 352.4 513.5 354Z" fill="#FFAAE0"/>
<path d="M531.352 376.315C531.227 376.025 531.11 375.752 531 375.5C531.121 375.773 531.238 376.045 531.352 376.315C533.12 380.439 536.253 388.137 537 391.5C537 395.167 535.8 403.1 531 405.5C533.749 401.899 537.578 391.097 531.352 376.315Z" fill="#FFAAE0"/>
<path d="M531.214 420.534C531.771 420.534 533.304 420.178 534 420C533.768 434.951 525.643 466.883 495 475C506.607 470.55 530.1 453.427 531.214 420.534Z" fill="#FFAAE0"/>
<path d="M300 560.76C298.792 557.084 298.154 551.059 297.986 548.506C290.334 569.338 273.989 577.95 266.772 579.652C253.079 605.795 234.552 613.352 227 613.862C227.806 615.088 233.041 618.798 235.559 620.5C254.488 620.908 267.611 599.906 271.807 589.353C291.139 585.677 298.657 568.759 300 560.76Z" fill="#6C0044"/>
<path d="M361.502 322.5C358.001 377.5 306 358 312.502 321C325.336 318.167 353.103 314.5 361.502 322.5Z" fill="#952E6F"/>
<path d="M361.502 322.5C358.001 377.5 306 358 312.502 321C325.336 318.167 353.103 314.5 361.502 322.5Z" stroke="black" stroke-width="3"/>
<path d="M361.502 322.5C358.001 377.5 306 358 312.502 321C325.336 318.167 353.103 314.5 361.502 322.5Z" stroke="black" stroke-opacity="0.2" stroke-width="3"/>
<path d="M317.5 335C318.3 321.4 332.833 319 340 319.5C356.4 318.3 360.167 324 360 327C356.5 356.5 337.5 355 337 355C321 353.8 317.333 341.167 317.5 335Z" fill="#D683B7"/>
</svg>
