<svg width="1139" height="1031" viewBox="0 0 1139 1031" fill="none" xmlns="http://www.w3.org/2000/svg">
<path d="M799.987 332.822C790.06 320.746 755.144 296.475 694.886 296L640 339.949C652.612 339.474 697.027 343.71 717.658 345.888C719.059 352.065 701.503 373.802 692.55 383.898C756.545 439.488 806.993 422.502 814 405.872C790.177 412.999 751.134 405.279 734.591 400.527C755.611 383.502 798.118 346.126 799.987 332.822Z" fill="#613060" stroke="black" stroke-width="3"/>
<path d="M679 403C677.639 402.667 672.933 402 665 402" stroke="black" stroke-width="3"/>
<path d="M785.943 336.033C785.943 326.567 773.448 314.733 767.2 310C783.131 316.153 795.705 328.342 800 333.667C798.126 346.447 771.886 370.547 759 381C773.994 365.38 783.21 344.514 785.943 336.033Z" fill="black" stroke="black" stroke-width="3"/>
<path d="M785 336.268C784.111 328.725 780 323.304 775 318C776.667 320.357 780 327.429 782.222 336.857C782.667 338.743 780.185 347.071 778.889 351C780 349.232 782.778 342.75 785 336.268Z" fill="#D9D9D9"/>
<path d="M740 311.757C725.931 306.406 713.034 306.406 696.621 314.135L672 317.703L674.345 351C718.428 344.816 736.483 322.261 740 311.757Z" fill="#888888" stroke="black" stroke-width="3"/>
<path d="M679.087 299.545C679.675 298.955 683.789 274.727 699.657 270C705.73 280.833 710.119 309.118 679.087 335.591C685.16 339.136 697.071 351.782 696.131 374C680.851 365.924 649.232 342.682 645 314.318L679.087 299.545Z" fill="#D9D9D9"/>
<path d="M679.087 335.591C710.119 309.118 705.73 280.833 699.657 270C683.789 274.727 679.675 298.955 679.087 299.545L645 314.318M679.087 335.591C685.16 339.136 697.071 351.782 696.131 374C680.851 365.924 649.232 342.682 645 314.318M679.087 335.591C673.289 330.391 653.946 319.242 645 314.318" stroke="black" stroke-width="3"/>
<path d="M468 97.0495C520.631 160.418 582.619 173.447 583.203 174.04C563.554 184.463 556.303 200.493 555.134 207.205C643.437 214.904 656.887 284.787 639.343 338.68L655.132 360C748.699 224.379 565.66 94.0884 468 97.0495Z" fill="#AF50AC" stroke="black" stroke-width="3"/>
<path d="M659.978 353.006C688.319 352.416 684.849 394.302 638 383.093L659.978 353.006Z" fill="#F6AAF3" stroke="black" stroke-width="3"/>
<path d="M489 221.293C456.766 218.938 440.355 230.126 461.454 279L489 221.293Z" fill="#B972B6" stroke="black" stroke-width="3"/>
<path d="M621.184 677.248C611.352 684.371 553.098 694.068 525.201 698.025C518.177 715.835 481.891 765.108 414 822.692C419.619 826.491 506.082 826.254 548.611 825.66C560.316 812.362 601.87 721.178 621.184 677.248Z" fill="#D785D4"/>
<path d="M809.055 704.555V663C819.823 667.274 836.172 681.799 843 688.527C838.786 688.052 818.614 699.015 809.055 704.555Z" fill="#D785D4"/>
<path d="M621.184 677.248C611.352 684.371 553.098 694.068 525.201 698.025C518.177 715.835 481.891 765.108 414 822.692C419.619 826.491 506.082 826.254 548.611 825.66C560.316 812.362 601.87 721.178 621.184 677.248Z" stroke="black" stroke-width="3"/>
<path d="M809.055 704.555V663C819.823 667.274 836.172 681.799 843 688.527C838.786 688.052 818.614 699.015 809.055 704.555Z" stroke="black" stroke-width="3"/>
<path d="M422 819.5C438.59 806.86 478.65 764.899 497.303 744.754C491.841 757.596 456.916 799.091 439 819.5H422Z" fill="#D9D9D9"/>
<path d="M796.299 657.816C790.216 648.802 757.889 632.315 742.486 625.199C748.569 620.454 754.379 611.756 756.524 608C773.37 618.912 839.194 661.968 870 682.132C868.596 683.08 858.106 692.016 853.037 696.365C852.842 696.958 852.452 697.788 852.452 696.365C852.452 694.941 846.603 691.027 843.678 689.248C826.364 692.095 799.809 712.575 788.695 722.459C791.971 716.766 795.129 676.992 796.299 657.816Z" fill="black" fill-opacity="0.96"/>
<path d="M558.233 828.615C557.648 830.592 554.49 837.037 546.535 847H381C391.529 839.883 412.937 825.057 414.341 822.685C431.6 823.211 455.669 823.885 479.268 824.44L455.286 785.323C457.821 782.95 463.241 777.732 464.645 775.834L496.816 824.832C528.458 825.495 555.719 825.804 559.403 825.057L558.233 828.615Z" fill="black" fill-opacity="0.96"/>
<path d="M479.268 824.44C455.669 823.885 431.6 823.211 414.341 822.685C412.937 825.057 391.529 839.883 381 847H546.535C554.49 837.037 557.648 830.592 558.233 828.615L559.403 825.057C555.719 825.804 528.458 825.495 496.816 824.832M479.268 824.44L455.286 785.323C457.821 782.95 463.241 777.732 464.645 775.834L496.816 824.832M479.268 824.44C485.185 824.58 491.073 824.712 496.816 824.832M742.486 625.199C757.889 632.315 790.216 648.802 796.299 657.816C795.129 676.992 791.971 716.766 788.695 722.459C799.809 712.575 826.364 692.095 843.678 689.248C846.603 691.027 852.452 694.941 852.452 696.365C852.452 697.788 852.842 696.958 853.037 696.365C858.106 692.016 868.596 683.08 870 682.132C839.194 661.968 773.37 618.912 756.524 608C754.379 611.756 748.569 620.454 742.486 625.199Z" stroke="black" stroke-width="3"/>
<path d="M841 689L810.5 666C809.3 665.095 807 663.623 806 663C806.8 667.4 805 696.167 804 710C806.8 704 829.833 693.5 841 689Z" fill="#D785D4" stroke="black"/>
<path d="M640.926 696.26C653.566 685.876 662.578 666.76 665.504 658.5L585.919 669.71C585.45 678.678 567.778 726.547 559 749.361C683.527 758.329 765.375 728.317 790.733 712.191C793.074 704.639 795.22 673.25 796 658.5C792.255 649.532 762.84 635.097 748.6 629C719.575 664.872 664.723 688.787 640.926 696.26Z" fill="#D785D4" stroke="black" stroke-width="3"/>
<path d="M660.611 743.769C740.585 738.277 780.158 718.547 789.947 709.368L790.479 708.809L789.986 698.16C759.918 722.635 691.208 738.764 660.611 743.769Z" fill="#D9D9D9"/>
<path d="M417 714C659.536 560.545 552.002 473.449 534.469 478.189L522.781 472.856L537.976 430.79C582.003 417.36 672.394 393.107 681.744 403.535C691.095 413.963 708.251 516.276 715.66 566.13C724.75 687.944 549.573 698.014 417 714Z" fill="#612B60"/>
<path d="M715.641 565.877C715.648 565.962 715.654 566.046 715.66 566.13M715.66 566.13C724.75 687.944 549.573 698.014 417 714C659.536 560.545 552.002 473.449 534.469 478.189L522.781 472.856L537.976 430.79C582.003 417.36 672.394 393.107 681.744 403.535C691.095 413.963 708.251 516.276 715.66 566.13Z" stroke="black" stroke-width="3"/>
<path d="M297.99 207C298.551 234.526 276.105 256.781 280.594 218.713L297.99 207Z" fill="black" stroke="black" stroke-width="3"/>
<path d="M301 180C290.612 194.946 272.187 226.845 281.595 234.869C293.356 244.898 298.648 218.349 301 180Z" fill="#AF50AC" stroke="black" stroke-width="3"/>
<path d="M282.98 234.379C277.876 231.571 280.467 222.29 282.4 218C280.66 229.699 282.98 243.154 294 220.34C293.42 225.605 289.36 237.889 282.98 234.379Z" fill="white"/>
<path d="M335.009 222C334.417 238.496 362.862 265.008 373.528 249.101C382.062 236.375 351.404 225.731 335.009 222Z" fill="black" stroke="black" stroke-width="3"/>
<path d="M335 173.344C352.99 173.344 305.403 252.906 373.302 249.343C376.397 254.291 383.052 255.756 384.909 222.031C386.766 188.306 359.761 171.958 346.026 168L335 173.344Z" fill="#4D114B" stroke="black" stroke-width="3"/>
<path d="M424.829 306.247C422.954 301.536 392.411 256.786 377.374 235C377.374 239.711 371.125 240.103 368 239.711L405.495 301.536C412.721 305.069 426.704 310.957 424.829 306.247Z" fill="white" stroke="black" stroke-width="3"/>
<path d="M434.013 534C506.76 502.595 553.107 494.892 547.827 415.491L549 407.195C532.573 437.533 492.093 463.684 473.907 472.968C472.968 471.071 473.516 446.896 473.907 435.045C473.907 419.046 424.04 354.458 449.853 354.458C484.115 403.284 516.147 432.082 532.573 407.195C517.32 373.025 484.232 303.381 473.907 298.166C463.581 292.952 402.333 298.364 373 301.722L375.933 306.462C403.507 356.236 436.36 435.637 434.013 534Z" fill="#D785D4" stroke="black" stroke-width="3"/>
<path d="M449.961 354C428.486 354 455.185 390.102 474.339 433.306C477.241 436.265 483.045 439.816 491.751 441C495.001 419.22 465.632 374.714 449.961 354Z" fill="#D9D9D9" stroke="black" stroke-width="3"/>
<path d="M548.131 162C561.679 162 580.25 168.308 587.842 171.462C564.95 181.87 556.501 199.453 555.138 206.944C654.65 214.987 652.664 297.818 639.232 338.228C644.488 344.93 655 358.689 655 360.108C655 361.882 637.48 383.172 636.312 383.763C635.378 384.236 628.916 385.931 625.801 386.72C375.853 436.395 448.852 217.589 548.131 162Z" fill="#D785D4" stroke="black" stroke-width="3"/>
<path d="M804 517.78C752.135 484.16 706.071 486.804 689.522 492.328C678.308 494.553 673.168 499.964 672 502.391C726.202 523.226 782.584 521.332 804 517.78Z" fill="#B6B6B6" stroke="black" stroke-width="3"/>
<path d="M648.818 457.216C640.818 480.169 624.164 530.149 621.545 546.442C623 563.253 629.618 599.978 644.455 612.392L639 625C631.182 603.017 613.036 558.662 603 557.111C617.909 518.963 647.618 440.535 647.182 432C658.091 466.591 680.127 535.968 681 536.744C682.079 537.703 675.156 565.221 686.609 595.847C686.746 596.203 686.877 596.545 687 596.874C686.867 596.531 686.737 596.189 686.609 595.847C682.303 584.672 671.323 560.729 658.636 546.442L652.636 464.005L648.818 457.216Z" fill="#EC93EA"/>
<path d="M480 388.371C532.046 396.076 624.442 392.52 650.172 386C651.389 389.786 652.76 395.193 654.053 402.003C662.303 402.003 675.956 403.188 681.751 403.781C713.914 462.459 654.851 560.255 616.84 581C606.547 553.973 603.974 475.342 603.974 439.405C544.761 450.37 497.767 411.92 480 388.371Z" fill="#D785D4"/>
<path d="M654.851 515.21C662.122 466.567 658.562 425.753 654.053 402.003M629.705 431.638C620.917 435.33 612.324 437.859 603.974 439.405M603.974 439.405C544.761 450.37 497.767 411.92 480 388.371C532.046 396.076 624.442 392.52 650.172 386C651.389 389.786 652.76 395.193 654.053 402.003M603.974 439.405C603.974 475.342 606.547 553.973 616.84 581C654.851 560.255 713.914 462.459 681.751 403.781C675.956 403.188 662.303 402.003 654.053 402.003" stroke="black" stroke-width="3"/>
<path d="M377.985 235.1C388.498 202.652 372.145 160.174 319 166.663C373.897 180.823 304.4 229.791 369.225 241C375.299 240.528 377.596 236.87 377.985 235.1Z" fill="#AF50AC" stroke="black" stroke-width="3"/>
<path d="M341.828 172.469C360.117 174.355 372.897 190.942 377 199C369.028 170.7 339.678 165.983 326 167.162C337.724 169.992 343.782 180.133 345.345 184.85C346.752 179.19 343.586 174.237 341.828 172.469Z" fill="#D9D9D9"/>
<path d="M678.356 499.459C707.516 506.576 732.164 552.836 736.793 573C687.613 541.567 671.992 539.788 675.463 505.983L678.356 499.459C687.613 481.271 713.302 443.117 742 436C736.793 463.874 733.321 465.061 678.356 499.459Z" fill="#D9D9D9"/>
<path d="M678.356 499.459C707.516 506.576 732.164 552.836 736.793 573C687.613 541.567 671.992 539.788 675.463 505.983L678.356 499.459ZM678.356 499.459C687.613 481.271 713.302 443.117 742 436C736.793 463.874 733.321 465.061 678.356 499.459Z" stroke="black" stroke-width="3"/>
<path d="M499 326C509.925 333.034 518.55 339.483 522 343" stroke="black" stroke-width="3"/>
<path d="M514 309C555.359 266.107 567.592 222.627 515.748 205M575.165 239.079C577.495 240.254 613.612 246.718 634 304.299" stroke="black" stroke-width="3"/>
<path d="M538.797 180.566C544.053 177.627 549.174 175.707 554 175C548.749 176.47 543.678 178.34 538.797 180.566C484.468 210.95 415.859 350.269 512.312 385C425.489 371.715 452.149 220.086 538.797 180.566Z" fill="#FFC9FE"/>
<path d="M518.2 259.278C519.61 260.2 531.321 260.046 537 259.854C533.701 254.393 526.663 248.509 518.744 243.139C517.975 248.134 516.79 258.356 518.2 259.278Z" fill="black"/>
<path d="M490 227C497.035 230.235 508.611 236.267 518.744 243.139M518.744 243.139C526.663 248.509 533.701 254.393 537 259.854C531.321 260.046 519.61 260.2 518.2 259.278C516.79 258.356 517.975 248.134 518.744 243.139Z" stroke="black" stroke-width="3"/>
<path d="M597.821 327.588C604.421 329 613.929 327.557 617.857 326.659C612.014 319.135 606.006 312.309 600.179 306.255C596.879 311.306 597.232 322.582 597.821 327.588Z" fill="black"/>
<path d="M566 277C573.132 281.561 586.132 291.664 600.179 306.255M632 347C627.536 339.759 622.754 332.964 617.857 326.659M617.857 326.659C613.929 327.557 604.421 329 597.821 327.588C597.232 322.582 596.879 311.306 600.179 306.255M617.857 326.659C612.014 319.135 606.006 312.309 600.179 306.255" stroke="black" stroke-width="3"/>
<path d="M430 708C496.778 668.241 531.477 629.434 540.479 615C536.944 641.375 488.595 680.116 464.862 696.19C479.396 697.765 557.01 687.661 594 682.413C567.289 693.041 473.537 703.899 430 708Z" fill="#FFC9FE"/>
<path d="M456.5 297.5C453.7 297.9 402.667 302.333 377.5 304.5C390.587 324.329 411.637 381.513 420.767 408.315C422.58 399.366 401.678 340.376 391 312C411.8 306.4 442.667 307 455.5 308C455.1 305.6 456 300 456.5 297.5Z" fill="#FFC9FE"/>
<path d="M472.5 99C482.1 110.6 509.167 132.5 521.5 142C506.7 128.8 496.667 114.5 493.5 109C560.7 117 629.5 177.667 655.5 207C601.1 123 510.833 100 472.5 99Z" fill="#FFB8FD"/>
<path d="M456 787.414C456.7 786.656 463 780.156 466.062 777L470 783.154C466.938 787.256 460.812 795.366 460.812 794.987C460.812 794.609 457.604 789.78 456 787.414Z" fill="#8E8E8E"/>
<path d="M642.5 398C612.9 404.4 560.833 399.333 538.5 396C575.3 398 627.5 392.833 649 390C658.2 428 655.5 456.167 653 465.5C651 432.3 645.167 406.667 642.5 398Z" fill="#FFC9FE"/>
<path d="M794.5 412.5C790.9 414.9 784 410.833 781 408.5C784.2 410.1 804 407.833 813.5 406.5C808.3 417.7 789.667 420.833 781 421C788.2 419.8 793 414.833 794.5 412.5Z" fill="black" stroke="black"/>
<path d="M533.922 282.613C520.654 278.564 493.62 288.32 513.648 308.323C520.043 300.444 533.052 284.271 533.922 282.613Z" fill="#FFC9FE"/>
</svg>
