<svg width="578" height="741" viewBox="0 0 578 741" fill="none" xmlns="http://www.w3.org/2000/svg">
<path d="M334.5 634.5C338.5 574.1 355.167 517.333 363 496.5C349 474.5 313.833 428 298 407.5C284 411.9 257.833 462 246.5 486.5C265.7 508.9 259.167 577.5 253.5 609C274.7 628.6 316.333 634.167 334.5 634.5Z" fill="#5143A0" stroke="black" stroke-width="3"/>
<path d="M272 460.5C301.802 462.279 297.573 444.669 306.133 576.637C307.841 593.229 309.18 611.946 310 633C308.454 611.693 307.195 593.013 306.133 576.637C297.845 496.137 280.844 465.613 272 460.5Z" fill="black" stroke="black" stroke-width="3"/>
<path d="M352.5 411.5C359.833 423.5 376.1 449.3 382.5 456.5C377.833 464 367.4 482.6 363 497C345.667 478.833 307.3 436.9 292.5 414.5C287 419.167 270.1 440.2 246.5 487C242.333 481.833 233.9 463 233.5 429C250.167 424.833 285.3 416.1 292.5 414.5L352.5 411.5Z" fill="#6F64A9"/>
<path d="M292.5 414.5C307.3 436.9 345.667 478.833 363 497C367.4 482.6 377.833 464 382.5 456.5C376.1 449.3 359.833 423.5 352.5 411.5L292.5 414.5ZM292.5 414.5C287 419.167 270.1 440.2 246.5 487C242.333 481.833 233.9 463 233.5 429C250.167 424.833 285.3 416.1 292.5 414.5Z" stroke="black" stroke-width="3"/>
<path d="M273.5 442C276.7 436.8 280.833 430.833 282.5 428.5C286.9 428.1 295.667 427 299.5 426.5C299.9 426.9 300.333 427.667 300.5 428C291.7 434 278.833 439.833 273.5 442Z" fill="#322772"/>
<path d="M365.148 402.678C345.148 423.078 282.814 428.178 254.148 428.178C251.648 422.178 281.148 279.678 322.648 295.178C355.848 307.578 435.481 358.678 471.148 382.678C462.748 396.278 453.981 406.344 450.648 409.678C445.848 408.078 412.648 389.678 396.648 380.678C393.048 385.878 374.148 397.511 365.148 402.678Z" fill="#140F2E" stroke="black" stroke-width="3"/>
<path d="M121 145C137.4 140.2 154.167 129.667 160.5 125C170.9 131 177.167 135.5 179 137V145H121Z" fill="#20166D" stroke="black" stroke-width="3"/>
<path d="M139 69.5C253.4 74.3 313.667 102.167 329.5 115.5L196.5 148.5C156.9 120.1 112.667 98.6667 95.5 91.5C106.7 88.7 141.5 87.6667 157.5 87.5C156.7 83.1 144.833 73.6667 139 69.5Z" fill="#3727AA" stroke="black" stroke-width="3"/>
<path d="M223 282C181.4 259.2 176.667 176.167 179.5 137.5C191.1 144.3 195.667 147.667 196.5 148.5C199.3 139.3 209 121 213.5 113C267.5 104.2 313.333 111 329.5 115.5C372 232 335.5 287 322 285L223 282Z" fill="#7C66F4" stroke="black" stroke-width="3"/>
<path d="M312.5 240C256.1 247.2 217.667 274.333 205.5 287C234.7 336.2 249 402.5 252.5 429.5C292.9 403.9 323 394.167 333 392.5C327.4 304.9 317 254.333 312.5 240Z" fill="#7C66F4" stroke="black" stroke-width="3"/>
<path d="M356 178C380 166 412.5 214.5 357.5 239C356.167 224.167 354 191.2 356 178Z" fill="#7C66F4" stroke="black" stroke-width="3"/>
<path d="M166 198.328C176 182.328 204.5 166.328 217.5 160.328C220.3 174.728 228 197.661 231.5 207.328C238.7 207.328 250.833 203.995 256 202.328C255.2 201.528 248 168.995 244.5 152.828C281.3 143.628 333.5 149.661 355 153.828C355.4 179.428 356.167 223.495 356.5 242.328C350.9 244.328 302.5 245.828 279 246.328C269 237.128 260.833 219.161 258 211.328C250.4 211.728 241.167 214.495 237.5 215.828C238.7 229.028 250.667 246.995 256.5 254.328C247.3 256.728 225.333 270.995 215.5 277.828C185.9 251.028 170.167 213.661 166 198.328Z" fill="#B4A7FF" stroke="black" stroke-width="3"/>
<path d="M180.5 300C182.9 298.8 198.167 290.833 205.5 287C239.1 345.8 250.833 406.167 252.5 429H230C222 379.4 193.667 322.333 180.5 300Z" fill="#7C66F4" stroke="black" stroke-width="3"/>
<path d="M164.5 418.5C201.3 420.9 223.5 426.5 230 429C218.4 371 192.167 318.833 180.5 300C166.5 276 127 272 109 273C157.8 335.8 166.333 396.167 164.5 418.5Z" fill="#241288" stroke="black" stroke-width="3"/>
<path d="M190 392C194 409.6 166 419.333 151.5 422C149.861 407.793 149.263 396.836 149.294 388.5C149.352 372.427 151.744 366.097 153.5 365C151.5 363.8 150 351.5 149.5 345.5C156.3 339.1 181.667 334.167 193.5 332.5C195.5 334 195 357.5 194.5 358C194.1 358.4 167 362.833 153.5 365C174.7 365 187.667 369 191.5 371C194.3 379.4 191.667 388.5 190 392Z" fill="#7C66F4"/>
<path d="M190 392C194 409.6 166 419.333 151.5 422C149.861 407.793 149.263 396.836 149.294 388.5M190 392C191.667 388.5 194.3 379.4 191.5 371C187.667 369 174.7 365 153.5 365M190 392C186.4 392 161.362 389.667 149.294 388.5M153.5 365C151.744 366.097 149.352 372.427 149.294 388.5M153.5 365C167 362.833 194.1 358.4 194.5 358C195 357.5 195.5 334 193.5 332.5C181.667 334.167 156.3 339.1 149.5 345.5C150 351.5 151.5 363.8 153.5 365Z" stroke="black" stroke-width="3"/>
<path d="M165.5 232C169.1 236.8 193.333 270.333 205 286.5L180.5 300C171.3 284.4 147.333 276.833 136.5 275C138.9 264.6 144.167 248.667 146.5 242C147.3 243.2 150.833 246.5 152.5 248C154.5 246.4 162 236.667 165.5 232Z" fill="#C8BFFF" stroke="black"/>
<path d="M152.5 248C162.5 258.333 184.4 282 192 294" stroke="black"/>
<path d="M298 100C310.8 105.2 319.333 110.167 322 112C320.4 111.6 319 111.5 318.5 111.5C312.9 107.1 302.5 102 298 100Z" fill="#D9D9D9"/>
<path d="M143.5 71C182.3 68.6 248.667 84.3333 277 92.5C229 80.5 171.667 76.1667 149 75.5C147.4 73.9 144.667 71.8333 143.5 71Z" fill="#D9D9D9"/>
<path d="M100.5 92C134.5 106.8 178 134.167 195.5 146C181.5 132.4 144 103 127 90C122.6 89.6 107.5 91.1667 100.5 92Z" fill="#D9D9D9"/>
<path d="M328 243C333.2 199 345.5 165.667 351 154.5L343 153C327.8 177.4 320.667 223.167 319 243H328Z" fill="#D0C9F8"/>
<path d="M340 242C342.4 210.4 350.333 196.5 354 193.5L355 241C351.8 241.4 343.667 241.833 340 242Z" fill="#D0C9F8"/>
<path d="M230 207C229.6 206.2 229.167 205 229 204.5C227.8 208.1 225.833 249.333 225 269.5C226.6 268.3 229.667 266.333 231 265.5C230.2 254.3 230 221.833 230 207Z" fill="#D0C9F8"/>
<path d="M342 285.834C348.333 282.5 362.6 276.134 369 277.334C386 266.834 431.8 257.834 479 305.834L411.5 330.334C407.5 332.834 340 358.834 340 357.334C340 356.134 341.333 309.167 342 285.834Z" fill="#B4A7FF"/>
<path d="M369 277.334C362.6 276.134 348.333 282.5 342 285.834C341.333 309.167 340 356.134 340 357.334C340 358.834 407.5 332.834 411.5 330.334M369 277.334C377.4 286.134 400.833 316.334 411.5 330.334M369 277.334C386 266.834 431.8 257.834 479 305.834L411.5 330.334" stroke="black" stroke-width="3"/>
<mask id="path-27-inside-1_23_27" fill="white">
<path d="M454.5 296C477.972 296 497 316.147 497 341C497 365.853 477.972 386 454.5 386C442.481 386 431.629 380.716 423.898 372.224C419.497 393.292 402.41 409 382 409C358.252 409 339 387.734 339 361.5C339 335.266 358.252 314 382 314C394.437 314 405.638 319.835 413.489 329.159C418.399 310.051 434.898 296 454.5 296Z"/>
</mask>
<path d="M454.5 296C477.972 296 497 316.147 497 341C497 365.853 477.972 386 454.5 386C442.481 386 431.629 380.716 423.898 372.224C419.497 393.292 402.41 409 382 409C358.252 409 339 387.734 339 361.5C339 335.266 358.252 314 382 314C394.437 314 405.638 319.835 413.489 329.159C418.399 310.051 434.898 296 454.5 296Z" fill="#7C66F4"/>
<path d="M423.898 372.224L426.117 370.204L422.163 365.861L420.962 371.61L423.898 372.224ZM413.489 329.159L411.194 331.091L414.946 335.546L416.395 329.906L413.489 329.159ZM454.5 296V299C476.156 299 494 317.64 494 341H497H500C500 314.654 479.788 293 454.5 293V296ZM497 341H494C494 364.36 476.156 383 454.5 383V386V389C479.788 389 500 367.346 500 341H497ZM454.5 386V383C443.389 383 433.323 378.12 426.117 370.204L423.898 372.224L421.68 374.243C429.935 383.311 441.573 389 454.5 389V386ZM423.898 372.224L420.962 371.61C416.803 391.52 400.765 406 382 406V409V412C404.054 412 422.192 395.064 426.835 372.837L423.898 372.224ZM382 409V406C360.183 406 342 386.365 342 361.5H339H336C336 389.102 356.321 412 382 412V409ZM339 361.5H342C342 336.635 360.183 317 382 317V314V311C356.321 311 336 333.898 336 361.5H339ZM382 314V317C393.459 317 403.851 322.37 411.194 331.091L413.489 329.159L415.784 327.227C407.426 317.3 395.415 311 382 311V314ZM413.489 329.159L416.395 329.906C420.999 311.986 436.405 299 454.5 299V296V293C433.391 293 415.798 308.117 410.584 328.413L413.489 329.159Z" fill="black" mask="url(#path-27-inside-1_23_27)"/>
<ellipse cx="383" cy="361" rx="30" ry="32" fill="#201858"/>
<ellipse cx="455" cy="342" rx="29" ry="31" fill="#201858"/>
<circle cx="386" cy="359" r="12" fill="black"/>
<circle cx="393" cy="351" r="7" fill="#D9D9D9"/>
<circle cx="454.5" cy="337.5" r="11.5" fill="black"/>
<circle cx="463" cy="328" r="7" fill="#D9D9D9"/>
<path d="M490 319C504.8 251 466.5 209.667 445.5 197.5C435.833 207.318 413.1 231.058 399.5 247.477C393.461 253.375 393.931 259.159 402.428 262C400.716 263.838 400.431 265.863 401.5 268C444.7 268.4 478.5 302.167 490 319Z" fill="#7C66F4"/>
<path d="M465.5 252.5C428.136 252.119 407.925 256.098 402.428 262M402.428 262C400.716 263.838 400.431 265.863 401.5 268C444.7 268.4 478.5 302.167 490 319C504.8 251 466.5 209.667 445.5 197.5C435.833 207.318 413.1 231.058 399.5 247.477M402.428 262C393.931 259.159 393.461 253.375 399.5 247.477M475 230C436.799 227.826 409.401 237.806 399.5 247.477" stroke="black" stroke-width="3"/>
<path d="M236.5 451C235.3 445.684 235 434.815 235 430.044C252.6 430.453 271.667 428.852 279 428C276.2 432.907 271.167 440.267 269 443.333C265.8 444.56 246 448.956 236.5 451Z" fill="#282448"/>
<path d="M203.5 665.5C235.9 643.5 250.333 618.667 253.5 609C266.913 621.609 290.372 628.475 310 631.831C319.638 633.479 328.353 634.28 334.5 634.5C369.235 655.406 389.704 663.058 399.078 664.994C401.398 665.14 403.07 665.308 404 665.5C402.988 665.598 401.362 665.466 399.078 664.994C385.232 664.124 348.289 664.047 308 664.303C270.851 664.54 230.858 665.059 203.5 665.5Z" fill="#0B0143"/>
<path d="M310 631.831C319.638 633.479 328.352 634.28 334.5 634.5C377.7 660.5 398.833 666 404 665.5C397.519 664.159 355.04 664.004 308 664.303M310 631.831C290.372 628.475 266.913 621.609 253.5 609C250.333 618.667 235.9 643.5 203.5 665.5C230.858 665.059 270.851 664.54 308 664.303M310 631.831C310.667 642.09 311.2 662.946 308 664.303" stroke="black" stroke-width="3"/>
<path d="M332 636H334C356 649.2 378.833 659.5 387.5 663H377C352.2 650.2 336.667 639.667 332 636Z" fill="#CDC4FF"/>
<path d="M330 632.5C330.4 632.9 332.167 633 333 633C343 550.2 356.167 508.167 361.5 497.5C360.3 496.7 359.333 495.5 359 495C342.6 534.6 332.833 603.167 330 632.5Z" fill="#D9D9D9"/>
<path d="M445.5 199.5C439.1 204.7 418.167 228.333 408.5 239.5C425.7 220.7 440.667 207 446 202.5C456.8 208.5 466.5 222 470 228C471.6 228 473.667 228.333 474.5 228.5C464.9 212.5 451.167 202.5 445.5 199.5Z" fill="#D9D9D9"/>
<path d="M472 231.5H476C482.5 240.5 498 271.5 489 315L488 313.5C493.2 260.7 479.5 236.833 472 231.5Z" fill="#D9D9D9"/>
<path d="M362 319.5L360.5 292C369.3 299.6 378.661 309.833 382.241 314C385.827 314.167 390.8 314.4 382 314C373.2 313.6 365 317.5 362 319.5Z" fill="#C5BBFF"/>
<ellipse cx="309" cy="185.5" rx="9" ry="12.5" fill="black"/>
<ellipse cx="219" cy="216.5" rx="9" ry="12.5" fill="black"/>
</svg>
