<svg width="354" height="520" viewBox="0 0 354 520" fill="none" xmlns="http://www.w3.org/2000/svg">
<path d="M117 297.971L103.262 176.77C103.262 176.77 98.5969 171.653 95.1623 170.048C91.7277 168.443 79.5316 162.857 79.5316 162.857L73.9114 160.717C73.9114 160.717 67.04 158.36 62.3587 157.773C57.6773 157.187 43 156.971 43 156.971C43 156.971 54.8998 178.801 59.2157 193.795C63.5315 208.789 66.4404 218.62 68.5962 234.026C70.0816 244.64 70.3611 249.835 68.5962 260.418C67.3992 267.596 61.8422 278.06 61.8422 278.06C61.8422 278.06 81.5853 281.984 93.3609 286.484C103.053 290.188 117 297.971 117 297.971Z" fill="#5B5BB5" stroke="black" stroke-width="6"/>
<path d="M104 209C104 209 93.2961 212.57 84.5 216C77.9876 218.54 67.5669 226.5 67.5669 226.5L70.4968 243.141C77.2477 241.997 80.9454 240.786 87.7834 240.211C94.6196 239.637 107 240.211 107 240.211L104 209Z" fill="#D2D2ED"/>
<path d="M101.5 249.5L70.4968 243.141V255.927L101.5 263.5V249.5Z" fill="#D2D2ED"/>
<path d="M101.5 275V263.5L70.4968 255.927C69.9488 260.391 69.2901 262.906 67.5669 267.115C65.9067 271.17 62 276.971 62 276.971C62 276.971 79.3838 280.502 87 278.5C94.3086 276.579 101.5 275 101.5 275Z" fill="#D2D2ED"/>
<path d="M67.5669 226.5C67.5669 226.5 70.1536 240.021 70.4968 243.141M67.5669 226.5L70.4968 243.141M67.5669 226.5C67.5669 226.5 77.9876 218.54 84.5 216C93.2961 212.57 104 209 104 209L107 240.211C107 240.211 94.6196 239.637 87.7834 240.211C80.9454 240.786 77.2477 241.997 70.4968 243.141M70.4968 243.141C82.0534 246.782 101.5 249.5 101.5 249.5M70.4968 243.141C70.4968 248.135 70.4968 250.934 70.4968 255.927M70.4968 243.141L101.5 249.5M70.4968 243.141V255.927M101.5 249.5V263.5M70.4968 255.927C82.0534 257.384 101.5 263.5 101.5 263.5M70.4968 255.927C69.9488 260.391 69.2901 262.906 67.5669 267.115C65.9067 271.17 62 276.971 62 276.971C62 276.971 79.3838 280.502 87 278.5C94.3086 276.579 101.5 275 101.5 275V263.5M70.4968 255.927L101.5 263.5" stroke="black" stroke-width="6"/>
<path d="M60 155.211L66.1765 138.971L97.6471 159.272L115 170.369L102.059 174.971L83.8235 163.873L60 155.211Z" fill="#CCCCFF" stroke="black" stroke-width="4"/>
<path d="M73 143.333L83.3205 133.971C83.3205 133.971 92.6944 141.898 94.2308 143.333C103.077 151.594 104.31 152.458 111.333 160.956C115.374 165.845 119 170.594 119 170.594L115.167 171.971C115.167 171.971 103.714 163.335 99.8333 160.956C87.7148 153.53 73 143.333 73 143.333Z" fill="#CCCCFF" stroke="black" stroke-width="4"/>
<path d="M212 182.971L213.174 140.971L239 143.971C239 143.971 239.052 161.663 233.13 170.221C227.047 179.012 212 182.971 212 182.971Z" fill="#D2D2ED" stroke="black" stroke-width="6"/>
<path d="M242 133L244.156 82.5117C244.156 82.5117 251.265 79.3431 255.858 80.1237C260.592 80.9284 263.769 82.3558 266.636 86.6053C270.74 92.6877 268.67 98.7986 266.636 106.05C264.495 113.683 261.134 117.216 255.916 122.705L255.858 122.766C251.141 127.727 242 133 242 133Z" fill="#D2D2ED"/>
<path d="M255.858 122.766C251.141 127.727 242 133 242 133L244.156 82.5117C244.156 82.5117 251.265 79.3431 255.858 80.1237C260.592 80.9284 263.769 82.3558 266.636 86.6053C270.74 92.6877 268.67 98.7986 266.636 106.05C264.495 113.683 261.134 117.216 255.916 122.705M255.858 122.766L255.916 122.705M255.858 122.766C255.877 122.745 255.896 122.725 255.916 122.705" stroke="black" stroke-width="6"/>
<path d="M120.454 158.033L94.0824 114.121C94.0824 114.121 89.9547 112.792 88.7222 114.418C87.4518 116.094 87.0495 117.999 88.1882 122.319C89.818 128.502 93.6513 133.447 98.0506 139.401C102.681 145.668 105.665 148.084 110.299 151.838L110.35 151.879C114.539 155.272 120.454 158.033 120.454 158.033Z" fill="#D2D2ED"/>
<path d="M110.35 151.879C114.539 155.272 120.454 158.033 120.454 158.033L94.0824 114.121C94.0824 114.121 89.9547 112.792 88.7222 114.418C87.4518 116.094 87.0495 117.999 88.1882 122.319C89.818 128.502 93.6513 133.447 98.0506 139.401C102.681 145.668 105.665 148.084 110.299 151.838M110.35 151.879L110.299 151.838M110.35 151.879C110.333 151.865 110.316 151.852 110.299 151.838" stroke="black" stroke-width="6"/>
<path d="M151.5 102.5L166 98L160.5 77.5L157 60.5C157 60.5 169.805 58.1185 177.307 57.0561C185.431 55.9057 198.304 55.7023 198.304 55.7023L221.961 57.0561L240 59.7637L229 29.5L106.926 36.2074L105.743 61.1175L88.2957 54.5662L86.8171 59.7637C87.3065 63.5806 87.6305 65.7166 88.2957 69.5111C89.2649 75.0396 91.2529 83.5908 91.2529 83.5908L109.588 73.0311L139.455 64.0959L143.595 82.237L151.5 102.5Z" fill="#D2D2ED"/>
<path d="M155 111L162.521 108.5L170 106C170 106 170.978 113.449 175.829 120.956L188.249 140.18L173.167 143.971C173.167 143.971 166.146 133.83 162.521 126.913C158.662 119.548 155 111 155 111Z" fill="#D2D2ED"/>
<path d="M106.926 36.2074L229 29.5C229 29.5 213.263 20.5279 198.304 16.1709C175.987 9.67103 162.717 8.08952 139.455 5.61119C104.812 1.92033 50.1479 5.61119 50.1479 5.61119L73.5097 16.7125L12 25.9184L58.8716 43.5179L88.2957 54.5662L105.743 61.1175L106.926 36.2074Z" fill="#5B5BB5"/>
<path d="M88.2957 54.5662L58.8716 43.5179L30.6304 61.1175L86.8171 59.7637L88.2957 54.5662Z" fill="#5B5BB5"/>
<path d="M88.2957 54.5662C88.2957 54.5662 87.3946 57.734 86.8171 59.7637M88.2957 54.5662L105.743 61.1175M88.2957 54.5662L86.8171 59.7637M88.2957 54.5662L58.8716 43.5179M229 29.5L240 59.7637L221.961 57.0561L198.304 55.7023C198.304 55.7023 185.431 55.9057 177.307 57.0561C169.805 58.1185 157 60.5 157 60.5L160.5 77.5L166 98L151.5 102.5L143.595 82.237L139.455 64.0959L109.588 73.0311L91.2529 83.5908C91.2529 83.5908 89.2649 75.0396 88.2957 69.5111C87.6305 65.7166 87.3065 63.5806 86.8171 59.7637M229 29.5L106.926 36.2074L105.743 61.1175M229 29.5C229 29.5 213.263 20.5279 198.304 16.1709C175.987 9.67103 162.717 8.08952 139.455 5.61119C104.812 1.92033 50.1479 5.61119 50.1479 5.61119L73.5097 16.7125L12 25.9184L58.8716 43.5179M105.743 61.1175L58.8716 43.5179M58.8716 43.5179L30.6304 61.1175M30.6304 61.1175C30.6304 61.1175 64.8748 60.2924 86.8171 59.7637M30.6304 61.1175L86.8171 59.7637M188.249 140.18L173.167 143.971C173.167 143.971 166.146 133.83 162.521 126.913C158.662 119.548 155 111 155 111L162.521 108.5L170 106C170 106 170.978 113.449 175.829 120.956M188.249 140.18C183.399 132.673 180.679 128.463 175.829 120.956M188.249 140.18L175.829 120.956" stroke="black" stroke-width="6"/>
<path d="M169 291.128L142 293.163C142 293.163 127.399 309.469 123 322.332C119.225 333.37 119.5 352 119.5 352C128.947 400.691 136.255 428.204 142 476.5L176 497.5H207L217.5 348L169 291.128Z" fill="#3A3A72"/>
<path d="M169 291.128L217.5 348C217.5 348 218.501 329.369 217.5 317.5C216.513 305.799 215.405 299.227 212.5 287.849L169 291.128Z" fill="#7D8ABD"/>
<path d="M217.5 269.5C213.665 260.099 213.665 252.901 217.5 243.5L228.589 192L212.5 194L209.5 271.5C198.522 267.723 168.157 271.391 111 295.5L142 293.163L169 291.128L212.5 287.849L224.5 280.293C221.766 276.078 219.398 274.152 217.5 269.5Z" fill="#000042"/>
<path d="M111 295.5C111 295.5 113.628 314.715 115.5 327C116.99 336.774 119.5 352 119.5 352C119.5 352 119.225 333.37 123 322.332C127.399 309.469 142 293.163 142 293.163L111 295.5Z" fill="#7D8ABD"/>
<path d="M252 220C261.76 219.763 267.897 221.553 276 227L255.592 182C245.393 181.821 239.795 182.512 230 185L228.589 192L217.5 243.5C222.382 237.056 223.48 231.779 230 227C237.272 221.67 242.987 220.219 252 220Z" fill="#7D8ABD"/>
<path d="M319.5 220C324.162 219.525 326.838 219.525 331.5 220L310.5 208H285L283.158 194L281.316 180L281.184 179C281.184 179 255.5 181 255.592 182L276 227L285 247.5C285 247.5 289.728 232.76 297 227C304.214 221.287 310.345 220.932 319.5 220Z" fill="#7D8ABD"/>
<path d="M331.5 220L348 235.5C348.781 220.66 351.852 212.245 350 197.5C349.079 190.166 348.495 185.958 346 179C343.317 171.518 336.5 161 336.5 161C336.5 161 328.371 158.563 323 158C305.661 156.182 280 170 280 170L281.184 179L281.316 180L283.158 194L285 208H310.5L331.5 220Z" fill="#D2D2ED"/>
<path d="M280 170C280 170 305.661 156.182 323 158C328.371 158.563 336.5 161 336.5 161L319.5 144L298 156L280 170Z" fill="#D2D2ED"/>
<path d="M285 261C285 261 282.205 275.588 276 282C274.557 283.492 273.562 284.133 272 285.5L327 306.5L341 281.5C335.533 283.648 332.762 285.856 327 287C320.68 288.254 316.757 288.539 310.5 287C304.784 285.594 301.576 283.997 297 280.293C290.102 274.712 285 261 285 261Z" fill="#D2D2ED"/>
<path d="M217.5 243.5C213.665 252.901 213.665 260.099 217.5 269.5C219.398 274.152 221.766 276.078 224.5 280.293C228.292 282.531 234.5 285.5 234.5 285.5C234.5 285.5 243.3 290.305 249.5 291C258.489 292.008 263.213 287.648 272 285.5C273.562 284.133 274.557 283.492 276 282C282.205 275.588 285 261 285 261C285 261 290.102 274.712 297 280.293C301.576 283.997 304.784 285.594 310.5 287C316.757 288.539 320.68 288.254 327 287C332.762 285.856 335.533 283.648 341 281.5C342.953 271.542 344.585 266.049 346 256C347.121 248.035 347.219 243.506 348 235.5L331.5 220C326.838 219.525 324.162 219.525 319.5 220C310.345 220.932 304.214 221.287 297 227C289.728 232.76 285 247.5 285 247.5L276 227C267.897 221.553 261.76 219.763 252 220C242.987 220.219 237.272 221.67 230 227C223.48 231.779 222.382 237.056 217.5 243.5Z" fill="#7D8ABD"/>
<path d="M176 497.5L142 476.5C142 476.5 130.031 492.422 120 500C107.943 509.109 85 516.5 85 516.5H166L176 497.5Z" fill="#000035"/>
<path d="M207 497.5H176L166 516.5H252.5C233.21 511.658 223.225 507.578 207 497.5Z" fill="#000035"/>
<path d="M217.5 243.5C213.665 252.901 213.665 260.099 217.5 269.5C219.398 274.152 221.766 276.078 224.5 280.293M217.5 243.5C222.382 237.056 223.48 231.779 230 227C237.272 221.67 242.987 220.219 252 220C261.76 219.763 267.897 221.553 276 227M217.5 243.5C221.83 223.388 228.589 192 228.589 192M217.5 243.5L228.589 192M341 281.5C335.533 283.648 332.762 285.856 327 287C320.68 288.254 316.757 288.539 310.5 287C304.784 285.594 301.576 283.997 297 280.293C290.102 274.712 285 261 285 261C285 261 282.205 275.588 276 282C274.557 283.492 273.562 284.133 272 285.5M341 281.5C335.533 291.263 327 306.5 327 306.5M341 281.5C342.953 271.542 344.585 266.049 346 256C347.121 248.035 347.219 243.506 348 235.5M341 281.5L327 306.5M348 235.5C341.556 229.447 337.944 226.053 331.5 220M348 235.5C348.781 220.66 351.852 212.245 350 197.5C349.079 190.166 348.495 185.958 346 179C343.317 171.518 336.5 161 336.5 161M348 235.5L331.5 220M331.5 220C326.838 219.525 324.162 219.525 319.5 220C310.345 220.932 304.214 221.287 297 227C289.728 232.76 285 247.5 285 247.5M331.5 220C323.299 215.314 310.5 208 310.5 208M331.5 220L310.5 208M285 247.5C285 247.5 279.515 235.006 276 227M285 247.5L276 227M276 227C268.03 209.426 255.592 182 255.592 182M276 227L255.592 182M280 170C280 170 305.661 156.182 323 158C328.371 158.563 336.5 161 336.5 161M280 170L281.184 179M280 170L298 156L319.5 144L336.5 161M327 306.5C327 306.5 293.479 293.701 272 285.5M327 306.5L272 285.5M272 285.5C263.213 287.648 258.489 292.008 249.5 291C243.3 290.305 234.5 285.5 234.5 285.5C234.5 285.5 228.292 282.531 224.5 280.293M228.589 192L230 185C239.795 182.512 245.393 181.821 255.592 182M228.589 192L212.5 194L209.5 271.5C198.522 267.723 168.157 271.391 111 295.5M111 295.5C111 295.5 113.628 314.715 115.5 327C116.99 336.774 119.5 352 119.5 352M111 295.5L142 293.163M224.5 280.293C219.814 283.244 217.186 284.898 212.5 287.849M224.5 280.293L212.5 287.849M119.5 352C128.947 400.691 136.255 428.204 142 476.5M119.5 352C119.5 352 119.225 333.37 123 322.332C127.399 309.469 142 293.163 142 293.163M142 293.163L169 291.128M169 291.128L217.5 348M169 291.128C169 291.128 195.512 289.13 212.5 287.849M169 291.128L212.5 287.849M217.5 348C217.5 348 218.501 329.369 217.5 317.5C216.513 305.799 215.405 299.227 212.5 287.849M217.5 348C213.399 406.383 211.101 439.117 207 497.5M217.5 348L207 497.5M142 476.5L176 497.5M142 476.5C142 476.5 130.031 492.422 120 500C107.943 509.109 85 516.5 85 516.5H166M176 497.5C176 497.5 169 342.5 154 327M176 497.5H207M176 497.5L166 516.5M207 497.5C223.225 507.578 233.21 511.658 252.5 516.5H166M310.5 208H285L283.158 194M281.184 179L281.316 180M281.184 179C281.184 179 255.5 181 255.592 182M281.316 180L283.158 194M281.316 180C281.316 180 297.815 175.87 308.5 176.5C315.84 176.933 327 180 327 180M283.158 194C283.158 194 298.666 190.018 308.5 191.5C318.11 192.948 331.5 201 331.5 201" stroke="black" stroke-width="6"/>
<path d="M128.5 168.5L83 93.413C83 93.413 91.3687 83.9491 98.0503 79.2647C111.547 69.8025 138.775 64.3001 138.775 64.3001C138.775 64.3001 141.299 78.0969 142.611 81.9855C146.743 94.2292 151.464 103.752 151.464 103.752L166.81 98.8547C166.81 98.8547 162.383 88.5155 159.432 77.3601C158.067 72.1987 156.776 60.763 156.776 60.763C156.776 60.763 176.435 56.8668 189.238 56.1376C210.607 54.9205 243.832 60.763 243.832 60.763C243.832 60.763 244.21 81.6619 243.832 95.0455C243.304 113.777 240.586 142.932 240.586 142.932C240.586 142.932 221.368 141.164 209.01 140.755C197.608 140.379 186.582 140.211 186.582 140.211C186.582 140.211 179.686 130.09 177 126C170.569 116.205 168.5 107.5 168.5 107.5L156.776 112C156.776 112 161.032 122.64 166.81 132.5C169.243 136.653 175 147.5 175 147.5C175 147.5 156.691 153.833 147 158.5C139.008 162.349 128.5 168.5 128.5 168.5Z" fill="#CCCCFF" stroke="black" stroke-width="6"/>
<path d="M240.283 243.916C236.347 251.289 234.537 259.898 240.283 265.718C242.613 268.076 244.133 269.661 247.003 271.168C249.873 272.676 251.869 272.684 254.983 273.439C262.531 275.272 269.049 272.59 273.462 265.718C277.953 258.725 277.386 251.297 273.462 243.916C269.787 237.005 264.87 233.283 257.503 233.015C249.715 232.73 244.179 236.617 240.283 243.916Z" fill="#17255C" stroke="black" stroke-width="4"/>
<path d="M250.536 248.791C248.887 252.027 248.124 255.811 250.536 258.36C251.527 259.408 253.669 260.054 253.669 260.054C253.669 260.054 255.478 261.417 256.802 261.749C260.014 262.553 262.808 261.427 264.678 258.36C266.553 255.286 266.324 252.029 264.678 248.791C263.118 245.721 261.001 244.125 257.876 244.007C254.571 243.881 252.189 245.546 250.536 248.791Z" fill="#111111" stroke="black" stroke-width="2"/>
<path d="M259.632 246.129C258.953 247.568 258.639 249.249 259.632 250.382C260.041 250.848 260.922 251.135 260.922 251.135C260.922 251.135 261.667 251.741 262.212 251.888C263.535 252.246 264.686 251.745 265.456 250.382C266.228 249.016 266.133 247.569 265.456 246.129C264.813 244.765 263.941 244.056 262.655 244.003C261.294 243.947 260.313 244.687 259.632 246.129Z" fill="white" stroke="white" stroke-width="2"/>
<path d="M307.008 245.303C303.691 250.765 300.721 254.896 302.567 260.992C304.774 268.277 311.283 271.241 318.999 271.887C324.364 272.336 327.961 271.5 332.322 268.401C340.504 262.586 341.918 252.546 337.651 243.559C336.186 240.474 335.057 238.68 332.322 236.586C328.602 233.739 325.47 232.644 320.775 233.1C313.566 233.8 310.717 239.195 307.008 245.303Z" fill="#17255C" stroke="black" stroke-width="4"/>
<path d="M315.292 251.906C313.7 254.018 312.273 255.61 313.197 257.945C314.274 260.667 317.259 261.9 320.947 262.139C323.485 262.303 325.168 261.945 327.231 260.797C331.246 258.563 331.786 254.707 329.745 251.235C329.053 250.059 328.543 249.359 327.231 248.552C325.488 247.479 324.009 247.048 321.785 247.21C318.318 247.462 317.037 249.591 315.292 251.906Z" fill="#111111" stroke="black" stroke-width="2"/>
<path d="M324.632 245.129C323.953 246.568 323.639 248.249 324.632 249.382C325.041 249.848 325.922 250.135 325.922 250.135C325.922 250.135 326.667 250.741 327.212 250.888C328.535 251.246 329.686 250.745 330.456 249.382C331.228 248.016 331.133 246.569 330.456 245.129C329.813 243.765 328.941 243.056 327.655 243.003C326.294 242.947 325.313 243.687 324.632 245.129Z" fill="white" stroke="white" stroke-width="2"/>
<path d="M101 175.971L121.857 170.236L130.694 297.24L117.615 299.971L101 175.971Z" fill="#5B5BB5"/>
<path d="M121.857 170.236L130.694 297.24C130.694 297.24 155.079 284.439 172.408 278.94C179.314 276.749 183.21 275.475 190.436 274.024C197.487 272.608 208.818 271.566 208.818 271.566L212 143.196C212 143.196 198.914 140.62 190.436 141.011C178.975 141.54 173.021 144.543 162.51 148.113C158.722 149.399 156.609 150.151 152.965 151.663C139.44 157.277 121.857 170.236 121.857 170.236Z" fill="#5B5BB5"/>
<path d="M121.857 170.236L101 175.971L117.615 299.971L130.694 297.24M121.857 170.236L130.694 297.24M121.857 170.236C121.857 170.236 139.44 157.277 152.965 151.663C156.609 150.151 158.722 149.399 162.51 148.113C173.021 144.543 178.975 141.54 190.436 141.011C198.914 140.62 212 143.196 212 143.196L208.818 271.566C208.818 271.566 197.487 272.608 190.436 274.024C183.21 275.475 179.314 276.749 172.408 278.94C155.079 284.439 130.694 297.24 130.694 297.24" stroke="black" stroke-width="6"/>
<path d="M205.5 79.3452C204.602 80.6738 206.471 91.6858 207.5 92.2912C208.391 92.8151 213.681 92.9985 214.614 92.2912C215.546 91.5839 214.614 80.0212 213.681 79.3452C213.018 78.8654 207.373 76.5744 205.5 79.3452Z" fill="black"/>
<path d="M133.662 99.2533C132.764 100.582 135.126 111.594 136.155 112.199C137.046 112.723 141.567 111.207 142.5 110.5C143.433 109.793 140.933 98.6759 140 98C139.338 97.5201 135.536 96.4824 133.662 99.2533Z" fill="black"/>
</svg>
