<svg width="703" height="757" viewBox="0 0 703 757" fill="none" xmlns="http://www.w3.org/2000/svg">
<path d="M436.147 167.871C468.146 -13.1295 136.147 101.87 203.147 363.371L384.647 329.87C434.147 284.37 484.48 293.037 517.647 291.87C496.847 241.87 425.98 233.37 393.147 235.37C419.947 217.37 432.98 182.871 436.147 167.871Z" fill="#CA8A00" stroke="black" stroke-width="3"/>
<path d="M204.147 358.37C199.147 387.537 202.747 461.07 257.147 521.87C232.807 532.375 192.89 531.753 185.348 471.87H158.147C159.313 448.037 164.147 400.07 174.147 398.87C182.418 397.878 186.926 398.869 188.804 399.807C191.415 390.521 197.877 370.127 204.147 358.37Z" fill="#734E00"/>
<path d="M185.348 471.87C192.89 531.753 232.807 532.375 257.147 521.87C202.747 461.07 199.147 387.537 204.147 358.37C197.747 370.37 191.147 391.37 188.647 400.37C183.742 430.449 183.078 453.844 185.348 471.87ZM185.348 471.87H158.147C159.313 448.037 164.147 400.07 174.147 398.87C184.147 397.67 188.647 399.37 189.647 400.37" stroke="black" stroke-width="3"/>
<path d="M418.147 620.37C427.647 603.87 430.647 589.87 437.147 575.87C469.147 596.27 503.48 631.037 516.647 645.87C513.147 682.87 502.647 711.37 496.147 724.87C480.547 693.67 449.313 652.204 435.647 635.37C448.647 620.87 445.147 600.37 440.647 593.37C430.647 592.17 423.48 611.87 421.147 621.87L418.147 620.37Z" fill="#A87E24" stroke="black" stroke-width="3"/>
<path d="M436.167 574.51C437.767 571.696 442.498 554.911 444.663 546.87C458.256 552.901 499.969 582.55 519.126 596.622C519.525 602.25 516.96 631.799 515.627 645.87C509.63 634.613 460.155 593.606 436.167 574.51Z" fill="#EDC05F" stroke="black" stroke-width="3"/>
<path d="M327.147 549.37C327.547 548.97 338.647 532.87 344.147 524.87C354.147 530.37 422.647 608.87 421.647 611.37C420.847 613.37 404.98 639.204 397.147 651.87C396.647 646.87 352.147 579.37 327.147 549.37Z" fill="#EDC05F" stroke="black" stroke-width="3"/>
<path d="M301.647 580.87C309.247 576.47 321.813 558.037 327.147 549.37C335.647 557.37 383.647 627.87 397.147 651.87C390.647 659.87 375.047 679.67 364.647 694.87C362.48 685.87 351.747 657.67 326.147 616.87C330.98 607.704 340.647 586.97 340.647 577.37C336.98 577.037 325.947 580.07 311.147 594.87C308.98 591.537 304.047 584.07 301.647 580.87Z" fill="#A87E24" stroke="black" stroke-width="3"/>
<path d="M222.147 313.87C208.547 311.87 210.48 259.704 213.147 233.87L344.647 234.37C352.647 254.77 337.98 278.204 329.647 287.37C381.313 275.537 480.647 243.37 489.147 291.87C446.647 287.87 402.647 310.37 385.147 329.87L222.147 313.87Z" fill="#7A580F" stroke="black"/>
<path d="M344.147 523.87C357.647 507.37 390.647 443.37 393.647 417.87C412.647 418.37 443.147 411.87 457.647 408.87C458.647 416.87 466.647 515.87 421.147 612.37C419.547 601.17 369.147 548.704 344.147 523.87Z" fill="#CFDB6A" stroke="black" stroke-width="3"/>
<path d="M372.647 324.37C350.247 311.17 305.647 301.537 286.147 298.37C282.147 303.97 294.48 316.37 301.147 321.87C332.347 316.67 361.813 321.37 372.647 324.37Z" fill="#986D10" stroke="black" stroke-width="3"/>
<path d="M326.647 549.37C269.047 562.17 240.647 502.37 213.147 449.37L251.147 383.37C287.147 410.97 335.647 417.37 393.647 417.37C386.447 460.57 345.98 523.37 326.647 549.37Z" fill="#C1BF3E" stroke="black" stroke-width="3"/>
<path d="M266.647 435.87C263.313 426.37 255.747 402.77 252.147 384.37C238.147 374.77 214.98 352.037 205.147 341.87C203.147 347.87 195.147 400.87 213.147 449.37C229.547 449.37 255.647 440.37 266.647 435.87Z" fill="#D79D20" stroke="black" stroke-width="3"/>
<path d="M252.647 384.87C248.647 380.47 246.647 354.37 246.147 341.87C240.547 337.07 226.147 319.537 219.647 311.37C215.647 314.57 208.313 333.037 205.147 341.87C208.747 349.47 238.313 373.704 252.647 384.87Z" fill="#5E4817" stroke="black" stroke-width="3"/>
<path d="M246.147 341.87C241.747 340.27 226.313 321.204 219.147 311.87C238.747 295.87 281.98 312.204 301.147 322.37C279.947 323.57 255.647 335.87 246.147 341.87Z" fill="#D79D20" stroke="black" stroke-width="3"/>
<path d="M362.647 230.37C375.647 227.87 386.147 258.37 343.147 266.37L362.647 230.37Z" fill="#FAD484" stroke="black" stroke-width="3"/>
<path d="M219.147 311.87C218.747 304.27 236.98 272.704 246.147 257.87C264.147 257.87 299.647 258.57 297.647 261.37C295.647 264.17 289.147 287.87 286.147 299.37C291.147 302.037 301.147 310.37 301.147 322.37C271.647 307.37 240.147 299.87 219.147 311.87Z" fill="#FAD484" stroke="black" stroke-width="3"/>
<path d="M462.647 407.87C400.647 423.87 355.147 417.37 312.147 410.37L310.647 409.87C312.647 406.87 338.647 342.87 425.147 351.87C507.147 372.37 545.147 415.87 544.647 420.37C544.247 423.97 538.408 430.393 535.539 433.154C539.378 438.668 542.147 443.169 542.147 444.37C542.147 447.17 531.813 457.006 526.647 461.574C528.72 466.155 530.602 470.372 532.147 473.87C529.747 475.87 508.813 477.704 498.647 478.37C496.247 460.37 473.647 423.87 462.647 407.87Z" fill="#FFD16E"/>
<path d="M501.147 410.37C505.363 415.56 517.756 441.924 526.647 461.574M526.647 461.574C528.72 466.155 530.602 470.372 532.147 473.87C529.747 475.87 508.813 477.704 498.647 478.37C496.247 460.37 473.647 423.87 462.647 407.87C400.647 423.87 355.147 417.37 312.147 410.37L310.647 409.87C312.647 406.87 338.647 342.87 425.147 351.87C507.147 372.37 545.147 415.87 544.647 420.37C544.247 423.97 538.408 430.393 535.539 433.154M526.647 461.574C531.813 457.006 542.147 447.17 542.147 444.37C542.147 443.169 539.378 438.668 535.539 433.154M513.647 406.37C516.93 408.34 528.193 422.603 535.539 433.154" stroke="black" stroke-width="3"/>
<path d="M444.647 547.37C455.647 515.37 460.647 435.37 457.647 409.37C461.313 408.537 468.947 406.77 470.147 406.37C484.147 431.37 512.647 460.87 519.147 596.87C513.947 590.47 467.313 561.204 444.647 547.37Z" fill="#CFDB6A" stroke="black" stroke-width="3"/>
<path d="M486.734 530.39C488.664 512.427 470.813 443.178 461.647 410.799L469.848 407.87C501.208 454.242 514.717 515.746 516.647 592.87C513.173 588.965 490.755 574.647 479.98 567.976C481.427 562.932 484.805 548.353 486.734 530.39Z" fill="#F3FD9E"/>
<path d="M362.647 230.37C401.147 68.8703 247.647 102.87 218.647 217.37C192.147 234.871 226.647 258.37 245.147 257.37C271.647 293.37 358.647 288.37 362.647 230.37Z" fill="#FAD484"/>
<path d="M218.647 217.37C247.647 102.87 401.147 68.8703 362.647 230.37C358.647 288.37 271.647 293.37 245.147 257.37C226.647 258.37 192.147 234.871 218.647 217.37ZM218.647 217.37C221.147 217.37 227.647 218.37 233.647 222.37" stroke="black" stroke-width="3"/>
<path d="M370.646 323.37C380.48 327.537 405.446 339.17 426.646 352.37C358.146 347.87 334.146 374.37 310.646 410.37C302.98 409.87 287.246 407.57 285.646 402.37C281.548 402.732 275.218 401.681 274.146 396.229C266.008 396.229 252.343 388.622 253.414 383.533C253.151 384.111 252.717 384.655 252.147 384.37C251.147 383.87 244.647 354.37 246.647 341.87C261.313 330.87 306.646 311.77 370.646 323.37Z" fill="#FFD16E"/>
<path d="M285.646 402.37C287.246 407.57 302.98 409.87 310.646 410.37C334.146 374.37 358.146 347.87 426.646 352.37C405.446 339.17 380.48 327.537 370.646 323.37C306.646 311.77 261.313 330.87 246.647 341.87C244.647 354.37 251.147 383.87 252.147 384.37C252.947 384.77 253.48 383.537 253.646 382.87M285.646 402.37C293.813 389.037 310.846 361.97 313.646 360.37C316.446 358.77 296.146 387.704 285.646 402.37ZM285.646 402.37C281.548 402.732 275.218 401.681 274.146 396.229M294.146 351.87C288.946 355.87 279.646 377.537 275.646 387.87C274.097 391.413 273.736 394.143 274.146 396.229M274.146 396.229C265.646 396.229 251.116 387.93 253.646 382.87M253.646 382.87C256.147 377.87 268.646 346.37 274.146 345.87" stroke="black" stroke-width="3"/>
<path d="M442.296 641.403C445.817 639.121 461.039 615.097 468.211 603.37C478.381 609.455 503.741 633.163 515.15 644.255C516.617 653.288 506.838 701.305 495.592 719.37C488.551 702.636 457.128 660.419 442.296 641.403Z" fill="#DCAF4D"/>
<path d="M313.147 361.87C306.48 371.37 293.347 390.37 294.147 390.37" stroke="black" stroke-width="3"/>
<path d="M378.147 508.069C387.448 494.123 410.185 440.03 412.252 418.477C425.342 418.9 446.357 413.406 456.347 410.87C457.036 417.632 462.548 501.308 431.199 582.87C430.096 573.404 395.371 529.059 378.147 508.069Z" fill="#F3FD9E"/>
<path d="M467.832 598.699C469.42 596.781 476.103 579.681 479.246 571.37C483.216 572.904 506.706 588.631 517.955 596.302C517.955 604.357 515.639 629.704 514.481 641.37C514.084 638.685 483.216 612.124 467.832 599.178C467.17 599.818 466.244 600.617 467.832 598.699Z" fill="#F8D790"/>
<path d="M460.147 593.87C478.147 609.204 514.647 641.27 516.647 646.87C519.147 653.87 500.647 719.37 496.147 722.87C482.313 700.204 451.647 653.87 442.147 644.37" stroke="black" stroke-width="3"/>
<path d="M311.647 409.87C300.147 429.704 276.347 471.87 273.147 481.87" stroke="black" stroke-width="3"/>
<path d="M350.147 449.089C342.349 464.816 344.623 501.84 346.735 518.387L325.778 548.366C264.37 561.145 235.129 489.39 215.147 450.563C217.876 451.35 231.23 448.597 237.565 447.123C240.941 456.2 259.618 479.949 269.567 491.952C272.492 481.42 289.722 448.338 299.948 432.87C304.237 437.195 335.201 445.485 350.147 449.089Z" fill="#FFFD7E"/>
<path d="M220.147 225.87C223.98 227.537 231.247 233.57 229.647 244.37" stroke="black" stroke-width="3"/>
<path d="M164.147 530.87C158.147 528.87 157.647 490.704 158.147 471.87H170.647C171.047 473.07 176.48 509.704 179.147 527.87C177.547 529.87 168.48 530.704 164.147 530.87Z" fill="#402D04" stroke="black" stroke-width="3"/>
<path d="M419.976 158.925C423.823 129.152 415.543 72.4998 351.647 84.0764C387.966 74.5955 454.879 80.5834 431.979 180.381L429.209 185.87C429.579 170.302 396.738 152.105 380.271 144.953C401.324 143.356 415.513 153.602 419.976 158.925Z" fill="#FFDB8D"/>
<path d="M429.647 185.87C429.647 177.87 419.147 161.87 379.647 145.37" stroke="black"/>
<path d="M431.147 183.267C430.147 165.514 387.647 142.829 366.147 139.87C400.147 157.624 422.247 194.511 414.647 211.87C419.147 204.802 428.747 189.185 431.147 183.267Z" fill="#7A580F"/>
<path d="M488.647 290.37C486.247 266.654 447.98 245.822 429.147 238.37C486.747 244.591 511.813 275.629 517.147 290.37H488.647Z" fill="#FFDB8D"/>
<path d="M277.147 228.882C281.137 234.395 294.325 245.31 315.147 244.869" stroke="black" stroke-width="3"/>
<path d="M336.877 190.87C336.877 194.736 333.967 197.87 330.377 197.87C326.788 197.87 323.877 194.736 323.877 190.87C323.877 187.004 326.788 183.87 330.377 183.87C333.967 183.87 336.877 187.004 336.877 190.87Z" fill="black"/>
<ellipse cx="261.647" cy="180.87" rx="6.5" ry="7" fill="black"/>
<path d="M316.647 140.87C315.647 141.37 308.147 150.37 277.147 150.87M294.147 178.87C292.48 166.037 280.847 149.17 247.647 184.37M358.647 167.37C348.651 159.516 331.671 154.721 323.213 177.37M308.147 226.87C308.147 224.87 314.813 221.037 318.147 219.37C317.803 199.921 319.824 186.443 323.213 177.37M354.147 202.37C351.357 191.704 341.266 171.77 323.213 177.37M315.147 244.87C305.813 244.87 285.447 241.87 278.647 229.87" stroke="black" stroke-width="2"/>
</svg>
