<svg width="387" height="524" viewBox="0 0 387 524" fill="none" xmlns="http://www.w3.org/2000/svg">
<path d="M242.731 330.882C228.679 351.464 205.66 359.076 182.075 350.94C166.291 345.496 163.029 333.184 150.824 321.806C113.05 316.961 24.3752 333.968 13.9925 342.552C13.9925 342.552 0.548317 353.061 3.39601 360.787C6.75654 369.905 53.456 382.081 93.2843 402.492C118.329 393.455 137.612 383.563 192.307 379.651C146.282 359.459 135.806 354.96 93.2843 350.94C287.279 368.795 261.3 372.65 230.672 378.657L270.501 369.54L250.404 373.88L230.672 378.657L192.307 379.651C137.612 383.563 118.329 393.455 93.2843 402.492L49.8014 420.212L62.9564 428.023L75.7449 435.616L88.5334 443.209L97.0968 451.484L105.096 459.213L113.095 466.942L121.093 474.671L129.092 482.401C138.867 473.7 146.569 467.397 155.036 462.439C162.714 457.943 171.022 454.553 182.075 451.484L239.443 438.833L332.618 397.622C359.949 374.953 362.995 368.583 372.081 342.552L343.565 330.882H329.408L332.618 350.94C332.618 350.94 327.702 348.956 320.561 346.073C309.979 341.802 297.906 346.073 282.924 330.882C267.228 330.882 258.427 330.882 242.731 330.882Z" fill="#F1FAAD"/>
<path d="M49.8014 420.212L45.4166 489.526C70.7564 512.262 86.7639 519.328 118.861 520.525C99.099 488.133 88.1688 451.484 88.5334 443.209L75.7449 435.616L62.9564 428.023L49.8014 420.212Z" fill="#ADB858"/>
<path d="M182.075 451.484C188.717 459.281 190.03 466.722 190.479 482.401C214.56 466.139 233.373 463.927 239.443 438.833L182.075 451.484Z" fill="#ADB858"/>
<path d="M255.885 179.167C248.238 179.167 239.454 179.167 230.673 179.167C216.151 179.167 201.64 179.167 192.307 179.167C186.014 179.167 182.075 179.167 182.075 179.167C182.075 179.167 155.529 217.355 152.843 245.542C150.318 272.042 166.728 312.282 166.728 312.282L148.824 319.941C148.824 319.941 150.043 321.078 150.824 321.806C163.029 333.184 166.291 345.496 182.075 350.94C205.66 359.076 228.679 351.464 242.731 330.882C244.871 297.555 248.212 245.542 248.212 245.542C248.212 245.542 265.021 298.424 282.924 330.882C297.906 346.073 309.979 341.802 320.561 346.073C327.702 348.956 332.618 350.94 332.618 350.94L329.408 330.882L328.416 324.682L324.214 298.424H318.003H313.892C313.892 298.424 307.6 298.424 303.569 298.424C298.789 288.027 291.328 271.801 291.328 271.801C291.328 271.801 269.727 215.343 255.885 179.167Z" fill="#3F6304"/>
<path d="M255.885 128.839C255.885 128.839 235.842 139.064 222.999 145.615C222.999 154.445 222.999 168.226 222.999 168.226L190.844 176.823L182.075 179.167C182.075 179.167 186.014 179.167 192.307 179.167C201.64 179.167 216.151 179.167 230.673 179.167C239.454 179.167 248.238 179.167 255.885 179.167C255.885 159.513 255.885 128.839 255.885 128.839Z" fill="#ADB858"/>
<path d="M270.501 133.945L255.885 128.839C255.885 128.839 255.885 159.513 255.885 179.167C269.727 215.343 291.328 271.801 291.328 271.801C291.328 271.801 298.789 288.027 303.569 298.424C307.6 298.424 313.892 298.424 313.892 298.424C313.892 298.424 308.165 282.195 304.483 271.801C296.103 248.145 288.635 235.696 282.924 211.261C274.705 176.091 276.713 118.992 276.713 118.992L270.501 133.945Z" fill="#121D00"/>
<path d="M161.613 32.5587C147.763 47.4772 136.818 54.9027 130.189 74.1343C123.225 94.3355 120.259 109.913 130.189 128.839C134.055 136.209 139.324 136.498 145.536 139.78C149.764 142.014 168.054 151.267 190.844 150.345C201.535 149.913 212.733 148.526 222.999 145.615C235.842 139.064 255.885 128.839 255.885 128.839L270.501 133.945L276.713 118.992C276.713 118.992 285.219 109.932 282.924 104.04C281.931 101.49 278.54 98.5691 278.54 98.5691L274.155 93.0987L255.885 104.04C255.885 104.04 261.797 69.4341 255.885 48.6054C250.588 29.9431 238.711 3.74754 238.711 3.74754C223.014 0.745696 201.806 7.39454 189.748 12.865C189.748 12.865 172.182 21.1738 161.613 32.5587Z" fill="#ADB858"/>
<path d="M255.885 104.04L274.155 93.0987L278.54 98.5691C278.54 98.5691 291.696 60.6918 282.924 39.1233C277.643 26.1369 273.261 17.5105 261.001 10.6768C250.637 4.90014 238.711 3.74754 238.711 3.74754C238.711 3.74754 250.588 29.9431 255.885 48.6054C261.797 69.4341 255.885 104.04 255.885 104.04Z" fill="#121D00"/>
<path d="M383.043 289.671L324.214 298.424L328.416 324.682L343.565 330.882L372.081 342.552L383.043 289.671Z" fill="#ADB858"/>
<path d="M248.212 245.542L242.731 330.882H282.924C260.636 288.212 261.768 278.87 248.212 245.542Z" fill="#121D00"/>
<path d="M328.416 324.682L329.408 330.882H343.565L328.416 324.682Z" fill="#D9D9D9"/>
<path d="M222.999 168.226V145.615C212.733 148.526 201.535 149.913 190.844 150.345V176.823L222.999 168.226Z" fill="#121D00"/>
<path d="M222.999 145.615C235.842 139.064 255.885 128.839 255.885 128.839M222.999 145.615C222.999 154.445 222.999 168.226 222.999 168.226M222.999 145.615C212.733 148.526 201.535 149.913 190.844 150.345M222.999 145.615V168.226M255.885 128.839L270.501 133.945L276.713 118.992M255.885 128.839C255.885 128.839 255.885 159.513 255.885 179.167M238.711 3.74754C238.711 3.74754 250.588 29.9431 255.885 48.6054C261.797 69.4341 255.885 104.04 255.885 104.04L274.155 93.0987L278.54 98.5691M238.711 3.74754C223.014 0.745696 201.806 7.39454 189.748 12.865C189.748 12.865 172.182 21.1738 161.613 32.5587C147.763 47.4772 136.818 54.9027 130.189 74.1343C123.225 94.3355 120.259 109.913 130.189 128.839C134.055 136.209 139.324 136.498 145.536 139.78C149.764 142.014 168.054 151.267 190.844 150.345M238.711 3.74754C238.711 3.74754 250.637 4.90014 261.001 10.6768C273.261 17.5105 277.643 26.1369 282.924 39.1233C291.696 60.6918 278.54 98.5691 278.54 98.5691M278.54 98.5691C278.54 98.5691 281.931 101.49 282.924 104.04C285.219 109.932 276.713 118.992 276.713 118.992M222.999 168.226L190.844 176.823M182.075 179.167C182.075 179.167 155.529 217.355 152.843 245.542C150.318 272.042 166.728 312.282 166.728 312.282L148.824 319.941C148.824 319.941 150.043 321.078 150.824 321.806M182.075 179.167L190.844 176.823M182.075 179.167C157.35 299.514 181.623 281.276 255.885 179.167M182.075 179.167C182.075 179.167 186.014 179.167 192.307 179.167M255.885 179.167C269.727 215.343 291.328 271.801 291.328 271.801C291.328 271.801 298.789 288.027 303.569 298.424M255.885 179.167C248.238 179.167 239.454 179.167 230.673 179.167M276.713 118.992C276.713 118.992 274.705 176.091 282.924 211.261C288.635 235.696 296.103 248.145 304.483 271.801C308.165 282.195 313.892 298.424 313.892 298.424M242.731 330.882C228.679 351.464 205.66 359.076 182.075 350.94C166.291 345.496 163.029 333.184 150.824 321.806M242.731 330.882C244.871 297.555 248.212 245.542 248.212 245.542M242.731 330.882C258.427 330.882 267.228 330.882 282.924 330.882M242.731 330.882L248.212 245.542M242.731 330.882H282.924M248.212 245.542C248.212 245.542 265.021 298.424 282.924 330.882M248.212 245.542C261.768 278.87 260.636 288.212 282.924 330.882M282.924 330.882C297.906 346.073 309.979 341.802 320.561 346.073M324.214 298.424L383.043 289.671L372.081 342.552M324.214 298.424L328.416 324.682M324.214 298.424H318.003M286.214 291.859C286.214 291.859 295.507 298.424 303.569 298.424M303.569 298.424C307.6 298.424 313.892 298.424 313.892 298.424M313.892 298.424H318.003M372.081 342.552L343.565 330.882M372.081 342.552C362.995 368.583 359.949 374.953 332.618 397.622L239.443 438.833M328.416 324.682L329.408 330.882M328.416 324.682L343.565 330.882M150.824 321.806C113.05 316.961 24.3752 333.968 13.9925 342.552C13.9925 342.552 0.548317 353.061 3.39601 360.787C6.75654 369.905 53.456 382.081 93.2843 402.492M93.2843 402.492C118.329 393.455 137.612 383.563 192.307 379.651M93.2843 402.492L49.8014 420.212M93.2843 402.492C96.9519 404.614 100.348 406.686 103.515 408.732M192.307 379.651C146.282 359.459 135.806 354.96 93.2843 350.94C287.279 368.795 261.3 372.65 230.672 378.657M192.307 379.651L230.672 378.657M49.8014 420.212L45.4166 489.526C70.7564 512.262 86.7639 519.328 118.861 520.525C99.099 488.133 88.1688 451.484 88.5334 443.209M49.8014 420.212C113.394 393.899 148.092 377.777 230.672 378.657M49.8014 420.212L62.9564 428.023M329.408 330.882L332.618 350.94C332.618 350.94 327.702 348.956 320.561 346.073M329.408 330.882H343.565M182.075 451.484C188.717 459.281 190.03 466.722 190.479 482.401C214.56 466.139 233.373 463.927 239.443 438.833M182.075 451.484L239.443 438.833M182.075 451.484C171.022 454.553 162.714 457.943 155.036 462.439M88.5334 443.209L75.7449 435.616M88.5334 443.209L124.708 424.973M88.5334 443.209L97.0968 451.484M230.672 378.657L270.501 369.54L250.404 373.88L230.672 378.657ZM190.844 150.345V176.823M155.036 462.439C146.569 467.397 138.867 473.7 129.092 482.401L121.093 474.671M155.036 462.439C153.593 460.344 152.194 458.324 150.824 456.372M62.9564 428.023L103.515 408.732M62.9564 428.023L75.7449 435.616M103.515 408.732C107.359 411.215 110.866 413.661 114.112 416.115M75.7449 435.616L114.112 416.115M114.112 416.115C117.969 419.03 121.459 421.958 124.708 424.973M124.708 424.973C127.139 427.228 129.435 429.532 131.651 431.916M97.0968 451.484L131.651 431.916M97.0968 451.484L105.096 459.213M131.651 431.916C134.136 434.591 136.52 437.368 138.878 440.291M113.095 466.942L144.506 447.585M113.095 466.942L105.096 459.213M113.095 466.942L121.093 474.671M144.506 447.585C142.621 445.045 140.757 442.622 138.878 440.291M144.506 447.585C146.569 450.365 148.659 453.284 150.824 456.372M105.096 459.213L138.878 440.291M121.093 474.671L150.824 456.372M318.003 298.424L320.561 346.073M192.307 179.167C201.64 179.167 216.151 179.167 230.673 179.167M192.307 179.167C178.217 255.988 189.741 247.75 230.673 179.167" stroke="black" stroke-width="6"/>
<path d="M206.946 117.603C200.999 123.963 178.529 113.796 164.926 106.839C177.91 101.361 188.985 104.302 206.946 117.603Z" fill="#121D00"/>
<path d="M164.926 106.839C158.979 113.199 147.837 121.547 134.233 114.59C152.211 108.677 161.227 100.089 164.926 106.839Z" fill="#121D00"/>
<path d="M207.677 47.8506C217.312 44.3042 236.528 50.3404 241.404 60.4217C243.641 65.0447 243.993 70.9866 242.921 77.0264C240.593 90.1359 231.553 103.707 220.498 105.255C216.138 105.865 187.896 98.2113 186.77 92.6837C174.291 80.9898 191.617 53.7614 207.677 47.8506Z" fill="#215803" fill-opacity="0.4"/>
<path d="M157.229 124.827C173.504 129.357 189.813 123.449 182.831 123.343M164.926 106.839C158.979 113.199 147.837 121.547 134.233 114.59C152.211 108.677 161.227 100.089 164.926 106.839ZM164.926 106.839C178.529 113.796 200.999 123.963 206.946 117.603C188.985 104.302 177.91 101.361 164.926 106.839ZM242.921 77.0264C243.993 70.9866 243.641 65.0447 241.404 60.4217C236.528 50.3404 217.312 44.3042 207.677 47.8506C191.617 53.7614 174.291 80.9898 186.77 92.6837C187.896 98.2113 216.138 105.865 220.498 105.255C231.553 103.707 240.593 90.1359 242.921 77.0264ZM242.921 77.0264L274.91 94.5319" stroke="black" stroke-width="6"/>
<path d="M147.363 44.5024C155.995 44.1748 164.492 46.086 170.234 52.752C180.958 65.2018 165.975 96.4367 149.921 95.1807C147.932 95.0252 130.408 91.7682 127.049 86.9312C114.825 74.865 130.44 45.1445 147.363 44.5024Z" fill="#215803" fill-opacity="0.4" stroke="black" stroke-width="6"/>
<path d="M173.306 58.0876C181.048 54.1364 184.45 55.8539 189.749 62.0992M203.269 39.8526C235.567 41.0231 246.956 59.1297 247.482 65.0168M159.421 35.1116C167.544 33.7726 178.847 36.2266 181.345 37.6645" stroke="black" stroke-width="6"/>
<path d="M169.89 116.525C143.456 155.82 130.057 158.107 99.0535 186.689C106.991 209.419 112.659 226.911 117.747 239.677L166.238 204.96L140.314 226.887L150.903 230.176C153.675 227.964 156.226 225.893 158.57 223.943C178.001 207.789 183.286 200.014 183.034 190.708C182.99 189.699 182.944 188.725 182.892 187.785C182.501 180.805 181.754 175.652 178.858 171.34C176.96 168.514 174.139 166.048 169.89 163.666C157.328 160.495 149.065 161.729 130.455 173.533C156.689 145.765 169.293 141.772 169.89 116.525Z" fill="#ADB858"/>
<path d="M150.903 230.176L140.314 226.887L166.238 204.96L117.747 239.677C127.536 264.237 135.182 271.304 152.728 264.527C150.773 250.448 150.815 242.079 158.57 223.943C156.226 225.893 153.675 227.964 150.903 230.176Z" fill="#121D00"/>
<path d="M152.728 264.527C135.182 271.304 127.536 264.237 117.747 239.677C112.659 226.911 106.991 209.419 99.0535 186.689C93.7717 193.157 88.7905 198.567 84.0829 203.315C96.8653 248.667 104.439 272.167 126.439 273.709C134.677 271.342 143.314 268.307 152.728 264.527Z" fill="#3F6304"/>
<path d="M84.0829 203.315C60.2042 227.401 43.3642 234.46 30.043 276.221C70.0377 282.067 95.4117 282.624 126.439 273.709C104.439 272.167 96.8653 248.667 84.0829 203.315Z" fill="#3F6304"/>
<path d="M152.728 264.527C135.182 271.304 127.536 264.237 117.747 239.677M152.728 264.527C150.773 250.448 150.815 242.079 158.57 223.943M152.728 264.527C143.314 268.307 134.677 271.342 126.439 273.709M99.0535 186.689C130.057 158.107 143.456 155.82 169.89 116.525C169.293 141.772 156.689 145.765 130.455 173.533C149.065 161.729 157.328 160.495 169.89 163.666C174.139 166.048 176.96 168.514 178.858 171.34M99.0535 186.689C106.991 209.419 112.659 226.911 117.747 239.677M99.0535 186.689C93.7717 193.157 88.7905 198.567 84.0829 203.315M117.747 239.677L166.238 204.96L140.314 226.887L150.903 230.176C153.675 227.964 156.226 225.893 158.57 223.943M158.57 223.943C178.001 207.789 183.286 200.014 183.034 190.708C182.99 189.699 182.944 188.725 182.892 187.785M182.892 187.785C165.624 182.921 159.329 187.555 149.442 198.748M182.892 187.785C182.501 180.805 181.754 175.652 178.858 171.34M178.858 171.34C163.361 168.857 156.066 171.167 145.06 180.476M84.0829 203.315C60.2042 227.401 43.3642 234.46 30.043 276.221C70.0377 282.067 95.4117 282.624 126.439 273.709M84.0829 203.315C96.8653 248.667 104.439 272.167 126.439 273.709" stroke="black" stroke-width="6"/>
<path d="M223.51 69.6587C226.733 70.701 230.188 72.1318 233.973 73.8482C228.804 79.4635 222.562 77.7156 223.51 69.6587Z" fill="#111111"/>
<path d="M147.043 69.6587C157.409 73.5888 162.332 73.523 169.784 69.6587M198.394 67.761C204.374 65.0418 216.293 67.3249 223.51 69.6587M242.043 77.5249C236.903 75.0606 238.17 75.7508 233.973 73.8482M223.51 69.6587C226.733 70.701 230.188 72.1318 233.973 73.8482M223.51 69.6587C222.562 77.7156 228.804 79.4635 233.973 73.8482" stroke="black" stroke-width="6"/>
<path d="M173.043 87.5249L168.043 91.5249" stroke="black" stroke-width="6"/>
</svg>
