<svg width="844" height="744" viewBox="0 0 844 744" fill="none" xmlns="http://www.w3.org/2000/svg">
<path d="M301 409C379.8 481.4 481.167 459.5 522 439.5C528 429.5 479.5 346.5 476 336.5C472.5 326.5 314 325 277 327C247.4 328.6 275 362.667 292.5 379.5C296.1 379.5 300.667 378.833 302.5 378.5L301 409Z" fill="#071907" stroke="black" stroke-width="4"/>
<path d="M540 437C461.5 294 575.5 72 461.5 63.5C449.1 72.7 464.333 180 473.5 232.5C464.3 337.7 494 419.5 521.5 439C532.7 437.8 538.5 437.167 540 437Z" fill="#0C2B0D" stroke="black" stroke-width="3"/>
<path d="M429.746 268C429.342 265.6 429.914 252 430.25 245.5C421.375 249.5 388.227 252.167 372.763 253C373.973 258.2 372.259 274.167 371.25 281.5C390.614 271.5 418.316 268.333 429.746 268Z" fill="#071907" stroke="black" stroke-width="3"/>
<path d="M334.949 243.747C237.358 169.636 388.319 38.1576 461.512 64.4139C448.906 98.1011 476.252 128.98 491.501 140.209C484.894 155.731 472.491 189.055 475.744 198.17C522.507 166.96 551.784 229.182 473.711 230.371C443.383 243.086 373.172 263.563 334.949 243.747Z" fill="#84A836"/>
<path d="M473.711 230.371C551.784 229.182 522.507 166.96 475.744 198.17C472.491 189.055 484.894 155.731 491.501 140.209C476.252 128.98 448.906 98.1011 461.512 64.4139C388.319 38.1576 237.358 169.636 334.949 243.747C373.172 263.563 443.383 243.086 473.711 230.371ZM473.711 230.371C474.728 223.105 479.709 207.088 491.501 201.143" stroke="black" stroke-width="3"/>
<path d="M324.5 204.5C340.1 192.9 364 191.667 374 192.5C395.2 190.806 412.5 205.461 418.5 213C394.5 217.8 378.833 201.333 374 192.5C361.6 207.3 335.833 206.667 324.5 204.5Z" fill="black"/>
<path d="M374 192.5C364 191.667 340.1 192.9 324.5 204.5C335.833 206.667 361.6 207.3 374 192.5ZM374 192.5C378.833 201.333 394.5 217.8 418.5 213C412.5 205.461 395.2 190.806 374 192.5Z" stroke="black"/>
<path d="M367 192.5C359.5 192.167 340.5 194.1 324.5 204.5C333.833 200.833 355.4 193.3 367 192.5Z" fill="#D9D9D9"/>
<path d="M346 214C356.167 217.667 378.8 224.3 388 221.5" stroke="black" stroke-width="4"/>
<path d="M357.5 291C359.5 288.6 368 283.333 372 281C388.4 271.4 416.5 268.333 428.5 268V246C452.5 239.6 466.167 234.333 470 232.5C470 234.5 469.333 269 469 286C461.4 293.6 391.5 292.5 357.5 291Z" fill="#84A836" stroke="black" stroke-width="3"/>
<path d="M293.5 277C332.3 256.2 358.333 217.667 366.5 201C370.648 216.593 369.886 248.736 340.5 268.408C344.333 269.605 352.1 273.2 352.5 278C354.167 280.167 357.5 285.3 357.5 288.5C359.667 298.5 357.6 322.3 332 337.5C329.833 336 326.3 332 329.5 328C320.333 333.333 299.5 344.2 289.5 345C289.667 326.667 290.7 287.4 293.5 277Z" fill="#84A836"/>
<path d="M323.5 277C330.018 274.563 335.649 271.655 340.5 268.408M340.5 268.408C369.886 248.736 370.648 216.593 366.5 201C358.333 217.667 332.3 256.2 293.5 277C290.7 287.4 289.667 326.667 289.5 345C299.5 344.2 320.333 333.333 329.5 328M340.5 268.408C344.333 269.605 352.1 273.2 352.5 278M352.5 278C348 278.167 337.1 280.3 329.5 287.5M352.5 278C354.167 280.167 357.5 285.3 357.5 288.5M357.5 288.5C352.5 289 341.5 291.3 337.5 296.5M357.5 288.5C359.667 298.5 357.6 322.3 332 337.5C329.833 336 326.3 332 329.5 328M329.5 328C334.667 323.833 345.3 314.1 346.5 308.5" stroke="black" stroke-width="3"/>
<path d="M117.5 478C187.9 437.2 252.167 436.666 275.5 441.5L413.5 450C449.333 449.667 533.1 459.8 581.5 503C503.5 579.5 326 594.5 314 638C304.833 622.5 276.2 584.1 235 554.5C266 540.167 330.8 512.2 342 515C318.8 496.6 278.667 494.336 261.5 495.505C281.925 506.578 297.069 517.554 304.5 524C294.1 524 253.167 544 234 554C175.2 528 131.833 492.5 117.5 478Z" fill="#C5F27D"/>
<path d="M198.5 469.5C222.382 476.35 243.901 485.963 261.5 495.505M261.5 495.505C281.925 506.578 297.069 517.554 304.5 524C294.1 524 253.167 544 234 554C175.2 528 131.833 492.5 117.5 478C187.9 437.2 252.167 436.666 275.5 441.5L413.5 450C449.333 449.667 533.1 459.8 581.5 503C503.5 579.5 326 594.5 314 638C304.833 622.5 276.2 584.1 235 554.5C266 540.167 330.8 512.2 342 515M261.5 495.505C278.667 494.336 318.8 496.6 342 515M342 515C355.333 511.67 397.7 503.108 460.5 495.505" stroke="black" stroke-width="3"/>
<path d="M201.5 363.5C216.7 327.9 269.167 291 293.5 277C286.3 361.8 294.5 378.667 299.5 376.5C274.7 391.7 223.833 374.167 201.5 363.5Z" fill="#2C7F30"/>
<path d="M299.719 427C299.282 374.29 310.437 343.916 317 334.5L330 328C326 330.4 329.667 335.667 332 338C356 322.8 359.667 300 358.5 290.5C398.5 297.7 450.5 289.833 471.5 285C470.7 367.8 504.167 421.833 521 438.5L540 436C544.4 472.4 539.833 504.167 537 515.5C465.4 502.3 444.23 415.667 442.595 374C422.391 401.936 415.107 434.905 414 448.5C332 538 295.5 485 275 441.5C281.8 436.7 294.313 429.833 299.719 427Z" fill="#2C7F30"/>
<path d="M301 455.5C300.194 445.364 299.792 435.866 299.719 427M299.719 427C299.282 374.29 310.437 343.916 317 334.5L330 328C326 330.4 329.667 335.667 332 338C356 322.8 359.667 300 358.5 290.5C398.5 297.7 450.5 289.833 471.5 285C470.7 367.8 504.167 421.833 521 438.5L540 436C544.4 472.4 539.833 504.167 537 515.5C465.4 502.3 444.23 415.667 442.595 374M299.719 427C294.313 429.833 281.8 436.7 275 441.5C295.5 485 332 538 414 448.5C415.107 434.905 422.391 401.936 442.595 374M446 369.5C444.826 370.983 443.692 372.484 442.595 374M293.5 277C269.167 291 216.7 327.9 201.5 363.5C223.833 374.167 274.7 391.7 299.5 376.5C294.5 378.667 286.3 361.8 293.5 277Z" stroke="black" stroke-width="3"/>
<path d="M250 650.5C235.2 618.5 254.5 590.167 266 580C262.4 576 244.833 561 236.5 554C215.3 556 179 596.5 163.5 616.5C177.5 643.7 227 650.5 250 650.5Z" fill="#84A836"/>
<path d="M360 630.5C358.8 624.9 351.167 614.833 347.5 610.5C362.3 603.7 393.333 593 407 588.5C405 617.3 374.833 644.167 360 654C362 650.4 360.833 636.833 360 630.5Z" fill="#84A836"/>
<path d="M250 650.5C235.2 618.5 254.5 590.167 266 580C262.4 576 244.833 561 236.5 554C215.3 556 179 596.5 163.5 616.5C177.5 643.7 227 650.5 250 650.5Z" stroke="black" stroke-width="3"/>
<path d="M360 630.5C358.8 624.9 351.167 614.833 347.5 610.5C362.3 603.7 393.333 593 407 588.5C405 617.3 374.833 644.167 360 654C362 650.4 360.833 636.833 360 630.5Z" stroke="black" stroke-width="3"/>
<path d="M622.5 425.5C604.1 423.1 559.833 432.167 540 437C542.4 448.2 542 468.667 541.5 477.5C561.9 486.3 575.667 498.5 580 503.5C613.6 479.9 622.333 441.667 622.5 425.5Z" fill="#84A836" stroke="black" stroke-width="3"/>
<path d="M540 437C551.333 434.667 578.3 429.8 595.5 429C608 434.5 610 457.5 587.5 459.5C586.708 459.57 585.931 459.606 585.171 459.609C570.538 460.281 544.532 461.258 541.5 460.5L540 437Z" fill="#84A836"/>
<path d="M595.5 429C578.3 429.8 551.333 434.667 540 437L541.5 460.5C544.7 461.3 573.5 460.167 587.5 459.5M595.5 429C608 434.5 610 457.5 587.5 459.5M595.5 429C555.1 435.4 565 461.5 587.5 459.5" stroke="black" stroke-width="3"/>
<path d="M304.5 147.002C318 98.9993 397.501 93.0038 385 143.502C388.418 139.001 397.227 132.4 405.126 142C407.23 139.193 409.68 136.353 412.5 133.5C446.56 99.0342 480.62 140.856 469.348 171.5C466.72 178.643 461.629 185.179 453.5 190C413.387 213.788 375.884 181.01 405.126 142C397.227 132.4 388.418 139.001 385 143.502C372.5 194 291.001 195.004 304.5 147.002Z" fill="#445916"/>
<path d="M385 143.502C397.501 93.0038 318 98.9993 304.5 147.002C291.001 195.004 372.5 194 385 143.502ZM385 143.502C388.418 139.001 397.227 132.4 405.126 142M405.126 142C375.884 181.011 413.387 213.788 453.5 190C461.629 185.179 466.72 178.643 469.348 171.5M405.126 142C407.23 139.193 409.68 136.353 412.5 133.5C446.56 99.0342 480.62 140.856 469.348 171.5M469.348 171.5L481 176" stroke="black" stroke-width="3"/>
<path d="M590 457.5C610.4 452.7 602.5 432 595 431H594.5C563.5 433 559.5 460 590 457.5Z" fill="#DFFF99"/>
<path d="M566.5 445.5C567.3 438.7 574.5 434 578 432.5C574.167 432.667 561.5 434.1 541.5 438.5C541.667 440.667 542 445.4 542 447L566.5 445.5Z" fill="#DFFF99"/>
<path d="M236 553.5L291 529.5L356.5 607C326.9 615.8 315.833 631 314 637.5C299.6 609.9 256 570 236 553.5Z" fill="#658530" stroke="black" stroke-width="3"/>
<path d="M239 554L290.5 531.5L295 537C289.4 538.2 263.667 552.167 251.5 559C276.045 578.794 299.676 611.322 308.723 625.562C308.816 625.709 308.909 625.855 309 626C308.909 625.856 308.817 625.71 308.723 625.562C295.643 605.087 256.872 569.39 239 554Z" fill="#CAFF73"/>
<path d="M294 531C326.4 514.6 418.5 501.5 460.5 497C389.7 506.2 322.667 526.5 298 535.5C297.6 535.1 295.167 532.333 294 531Z" fill="#D9D9D9"/>
<path d="M120 478.5C189.2 438.9 251.5 438.333 274 443C209.6 439 148.167 465 125.5 478.5C136.3 490.1 185.667 524.333 209 540C170.6 521.2 133.667 491.167 120 478.5Z" fill="#D9D9D9"/>
<path d="M165.5 616.5C201.1 571.3 227.333 557 236 555.5L243.5 562C210.7 576.4 189.5 615.667 183 633.5C171.8 627.1 166.667 619.5 165.5 616.5Z" fill="#DBEEB1"/>
<path d="M350 611C352.4 609.8 357 608.167 359 607.5C366.2 617.5 371.333 634.667 373 642L362.5 650.5C364.5 624 358 623.5 350 611Z" fill="#DBEEB1"/>
<path d="M273 292C277 288.4 287 282.5 291.5 280L291.5 280.5C285.9 350.9 291.833 374.167 295.5 377C291.5 378.6 287.5 379.333 286 379.5C273.6 343.1 272.167 306 273 292Z" fill="#B4E699" stroke="black"/>
<path d="M203.5 363C213.9 336.6 253.833 305 272.5 292.5V297C249.7 309 217 346 203.5 363Z" fill="#B8FFBC"/>
<path d="M303 454.5C296.6 384.5 310.333 346.333 318 336L326.5 331.5C307.7 351.1 303 421.667 303 454.5Z" fill="#B8FFBC"/>
<path d="M517.5 508C523.1 495.2 524.833 457 525 439.5L538.5 437.5C542.9 468.3 538.667 501.333 536 514C533.6 514 522.667 510 517.5 508Z" fill="#B4E699" stroke="black"/>
<path d="M461.5 134.001C434.7 103.601 404.5 139 398.5 157.501C419.3 119.902 441.5 122.501 450 128.5L403 187C405.8 191 412.833 194 416 195C417.2 193.4 446.833 153.667 461.5 134.001Z" fill="#EFFDD0"/>
<path d="M333 180.5L374.5 114C363.3 107.2 347.5 110.167 341 112.5C350.6 109.7 361 110.667 365 111.5L311.5 173.5C318.7 179.9 328.833 180.833 333 180.5Z" fill="#EFFDD0"/>
<path d="M437.062 172.09C436.079 169.376 436.552 161.994 436.91 158.642C444.694 163.113 449.203 168.754 451.262 173.203C449.434 174.421 441.033 172.969 437.062 172.09Z" fill="black"/>
<path d="M452.095 175.331C451.883 174.662 451.607 173.949 451.262 173.203M396.317 151.419C414.914 149.973 428.039 153.547 436.91 158.642M436.91 158.642C436.552 161.994 436.079 169.376 437.062 172.09C441.034 172.969 449.434 174.421 451.262 173.203M436.91 158.642C444.694 163.113 449.203 168.754 451.262 173.203M362.466 145.62C358.826 153.204 347.229 164.103 329.964 147.033" stroke="black" stroke-width="2"/>
<path d="M517 507.5C464.2 485.1 446.667 409.5 444.5 374.5C463.7 474.1 501.833 502.333 518.5 504C517.7 506.4 517.167 507.333 517 507.5Z" fill="#B8FFBC"/>
<path d="M445 192.5C457.8 187.7 464.333 178.833 466 175C468.4 170.2 469.333 166.667 469.5 165.5C463.5 181.1 450.667 190 445 192.5Z" fill="#EFFDD0"/>
<path d="M461.5 63.5001C435.5 60.0001 374.5 64.6001 338.5 111" stroke="black" stroke-width="3"/>
<path d="M342.5 109C376.1 66.9998 433.5 62.1665 458 64.9998C457.2 65.7997 456.333 70.6665 456 73C407.2 67.8 369.333 93.1667 356.5 106.5C350.1 106.5 344.5 108.167 342.5 109Z" fill="#F4FFDC"/>
</svg>
