<svg width="710" height="812" viewBox="0 0 710 812" fill="none" xmlns="http://www.w3.org/2000/svg">
<path d="M267.294 478.491C264.233 475.638 235.069 402.002 220.87 365.54L235.871 364.249C266.287 459.798 269.493 480.222 267.294 478.491Z" fill="#333333" stroke="black" stroke-width="2"/>
<path d="M431.5 673.5C418.3 664.3 382.667 627.667 366.5 610.5C364.9 611.3 344.833 621.5 335 626.5C335 627.3 334.667 640.833 334.5 647.5C338.9 648.7 344.667 650 347 650.5C350 643 354.5 637 359.5 653C379.9 661.8 416 670.333 431.5 673.5Z" fill="#666666"/>
<path d="M314.5 654.5V620.5L286 618.5C273.2 641.7 234 681.833 216 699C226 697.8 271.833 675.833 293.5 665C293 654.5 305.5 632 304.5 660.5L314.5 654.5Z" fill="#666666"/>
<path d="M431.5 673.5C418.3 664.3 382.667 627.667 366.5 610.5C364.9 611.3 344.833 621.5 335 626.5C335 627.3 334.667 640.833 334.5 647.5C338.9 648.7 344.667 650 347 650.5C350 643 354.5 637 359.5 653C379.9 661.8 416 670.333 431.5 673.5Z" stroke="black" stroke-width="3"/>
<path d="M314.5 654.5V620.5L286 618.5C273.2 641.7 234 681.833 216 699C226 697.8 271.833 675.833 293.5 665C293 654.5 305.5 632 304.5 660.5L314.5 654.5Z" stroke="black" stroke-width="3"/>
<path d="M285.5 619C288.7 567.4 267.5 509.167 256.5 486.5C284.9 457.7 352.333 470.5 382.5 480.5C372.5 504.9 367.667 577.333 366.5 610.5C363.3 612.5 344.167 622.333 335 627C334.6 612.2 330.993 545.229 329.239 513.594C319.169 522.617 319.54 549.16 314.5 620.5C312.9 620.5 294.5 619.5 285.5 619Z" fill="#292929"/>
<path d="M341 509.5C335.947 509.837 332.155 510.981 329.239 513.594M329.239 513.594C319.169 522.617 319.54 549.16 314.5 620.5C312.9 620.5 294.5 619.5 285.5 619C288.7 567.4 267.5 509.167 256.5 486.5C284.9 457.7 352.333 470.5 382.5 480.5C372.5 504.9 367.667 577.333 366.5 610.5C363.3 612.5 344.167 622.333 335 627C334.6 612.2 330.993 545.229 329.239 513.594Z" stroke="black" stroke-width="3"/>
<path d="M481.501 410C449.101 324 383.001 279.833 354.001 268.5L293 267C288 277 242.5 291 241 291C237 300.2 211.333 330.5 199 344.5C200.6 337.7 206 320.333 208.5 312.5C208.5 309.7 182.167 302 169 298.5C168.6 302.1 165.834 313.333 164.501 318.5C160.001 340 120.5 387.5 122.001 423.5C168.001 423.9 216.501 389 235.001 371.5C242.001 392.833 255.801 435.9 255.001 437.5C254.201 439.1 253.334 448.167 253.001 452.5C248.201 464.1 242.667 478.667 240.501 484.5C270.901 487.7 300.167 501.167 311.001 507.5C318.201 503.5 328.001 488.5 332.001 481.5C332.801 483.9 342.667 496.167 347.501 502C359.901 497.2 376.001 485.667 382.501 480.5C384.901 459.7 392.167 426.167 395.501 412L404.501 376.5C409.501 380.5 417.501 395.5 415.501 402C413.901 407.2 401.834 410.5 396.001 411.5C391.601 424.7 384.167 471.333 381.001 493C409.801 476.6 460.001 430.833 481.501 410Z" fill="#494949"/>
<path d="M235.001 371.5C242.001 392.833 255.801 435.9 255.001 437.5C254.201 439.1 253.334 448.167 253.001 452.5C248.201 464.1 242.667 478.667 240.501 484.5C270.901 487.7 300.167 501.167 311.001 507.5C318.201 503.5 328.001 488.5 332.001 481.5C332.801 483.9 342.667 496.167 347.501 502C359.901 497.2 376.001 485.667 382.501 480.5C384.901 459.7 392.167 426.167 395.501 412L404.501 376.5C409.501 380.5 417.501 395.5 415.501 402C413.901 407.2 401.834 410.5 396.001 411.5C391.601 424.7 384.167 471.333 381.001 493C409.801 476.6 460.001 430.833 481.501 410C449.101 324 383.001 279.833 354.001 268.5L293 267C288 277 242.5 291 241 291C237 300.2 211.333 330.5 199 344.5M235.001 371.5C236.667 369.833 241.701 367 248.501 369M235.001 371.5C216.501 389 168.001 423.9 122.001 423.5C120.5 387.5 160.001 340 164.501 318.5C165.834 313.333 168.6 302.1 169 298.5C182.167 302 208.5 309.7 208.5 312.5C206 320.333 200.6 337.7 199 344.5M199 344.5C196.833 349.167 191.8 359.8 189 365" stroke="black" stroke-width="3"/>
<path d="M267.5 282C276.5 278.5 281 276 281.5 276C288.3 300 313.333 363 325 391.5V405C319.4 405.8 284.333 371.333 267.5 354C269.9 348 278.833 336.167 283 331C277.8 329 265.167 323.833 259.5 321.5C260.3 314.3 265.167 292.333 267.5 282Z" fill="#3E3E3E"/>
<path d="M335 401C340.6 390.6 363.333 315.5 374.5 279C392.1 289.4 404.167 300.5 408 304.5C401.6 310.1 388 317.833 381.5 321.5C388.3 325.5 393.333 330.5 395 332.5C387.8 346.1 352 383.833 335 401Z" fill="#3E3E3E"/>
<path d="M267.5 282C276.5 278.5 281 276 281.5 276C288.3 300 313.333 363 325 391.5V405C319.4 405.8 284.333 371.333 267.5 354C269.9 348 278.833 336.167 283 331C277.8 329 265.167 323.833 259.5 321.5C260.3 314.3 265.167 292.333 267.5 282Z" stroke="black" stroke-width="3"/>
<path d="M335 401C340.6 390.6 363.333 315.5 374.5 279C392.1 289.4 404.167 300.5 408 304.5C401.6 310.1 388 317.833 381.5 321.5C388.3 325.5 393.333 330.5 395 332.5C387.8 346.1 352 383.833 335 401Z" stroke="black" stroke-width="3"/>
<path d="M320 379C317.2 374.6 292.833 309.333 281.5 276.5C285.1 275.7 287 273.5 287.5 273C293.5 280.6 317.167 314 328 329C328 335.4 323 364.667 320 379Z" fill="#D9D9D9"/>
<path d="M336.5 329C338.5 323.4 343.333 309 345.5 302.5C348.7 294.5 356 277.167 359 270.5C361 270.9 370.167 277.5 374 279C372.8 288.6 355.5 340.333 347 364.5C344.6 360.5 338.5 338.333 336.5 329Z" fill="#D9D9D9"/>
<path d="M320 379C317.2 374.6 292.833 309.333 281.5 276.5C285.1 275.7 287 273.5 287.5 273C293.5 280.6 317.167 314 328 329C328 335.4 323 364.667 320 379Z" stroke="black" stroke-width="3"/>
<path d="M336.5 329C338.5 323.4 343.333 309 345.5 302.5C348.7 294.5 356 277.167 359 270.5C361 270.9 370.167 277.5 374 279C372.8 288.6 355.5 340.333 347 364.5C344.6 360.5 338.5 338.333 336.5 329Z" stroke="black" stroke-width="3"/>
<path d="M405 88.5C390.6 73.7 369.667 64.3333 361 61.5C370.6 71.1 381 86.8333 385 93.5C391.8 93.1 401.167 90 405 88.5Z" fill="#272727" stroke="black" stroke-width="3"/>
<path d="M354 268.5C354 267.7 353.667 258.833 353.5 254.5C341.5 243.3 307.833 251.833 292.5 257.5V267C299.7 269 318.167 274.833 326.5 277.5H334C341.5 272.5 354 269.5 354 268.5Z" fill="#8E8E8E" stroke="black" stroke-width="3"/>
<path d="M252 252C244.4 196.8 214.167 120 200 88.5C223.6 90.5 333.5 92.6667 385.5 93.5C397.5 91.5 403.833 89.3333 405.5 88.5C389.1 129.3 404 196.5 413.5 225C379.1 266.6 291.5 260.333 252 252Z" fill="#8E8E8E" stroke="black" stroke-width="3"/>
<path d="M248 229C238 216.2 229.833 182 227 166.5C236.6 164.5 288 156.667 312.5 153V171H333V148C335.8 146.8 391.5 136.833 419 132L420.5 207.5C413.3 208.7 359.167 209 333 209V180.5H312.5V212C309.7 214 268.333 224.167 248 229Z" fill="#B5B5B5" stroke="black" stroke-width="3"/>
<path d="M361 61.5C324.2 65.5 238.333 81.1667 200 88.5C292.4 92.1 362.167 93.6667 385.5 94C383.5 88.8 368.333 70.1667 361 61.5Z" fill="#1A1A1A" stroke="black" stroke-width="3"/>
<path d="M171 264.5C186.164 264.5 198.5 277.012 198.5 292.5C198.5 307.988 186.164 320.5 171 320.5C155.836 320.5 143.5 307.988 143.5 292.5C143.5 277.012 155.836 264.5 171 264.5Z" fill="#D9D9D9" stroke="black" stroke-width="3"/>
<path d="M213 295C213 294.6 203 290.5 198 288.5C198.8 295.7 196.333 303.167 195 306L208.5 312C208.5 311.6 211.5 300.5 213 295Z" fill="#151515" stroke="black" stroke-width="3"/>
<path d="M174 275.5C172.667 280.167 169.7 290.5 168.5 294.5C171.333 295.333 177.5 297.1 179.5 297.5M174 275.5L174.5 280.5M174 275.5L171 279.5" stroke="black" stroke-width="3"/>
<path d="M474 547.5L417 467L436 452C444.4 468 478.5 510 494.5 529L474 547.5Z" fill="#DDDDDD" stroke="black" stroke-width="3"/>
<path d="M175 265C175.167 246.833 164.1 204.2 118.5 179C121.5 170.667 128.4 153.3 132 150.5C143.5 159.333 166.9 178.6 168.5 185C172.167 171.833 179.8 144.9 181 142.5C185 144.5 193.4 148.5 195 148.5C204.5 152.667 224.2 160.7 227 159.5C227.667 165.5 229.2 178.8 230 184C225.833 183.167 216.9 181.1 214.5 179.5C215.229 195.611 216.028 220.327 216.107 243C220.993 243.4 229.738 245.167 233.5 246C249.5 219.2 263.833 226.833 269 234C256.6 238.8 245.5 262 241.5 273C240.3 273.4 223.698 274.5 215.546 275C215.072 284.62 214.265 292.021 213 295.5L198.5 289C197.167 281.667 190.6 266.6 175 265Z" fill="#8E8E8E"/>
<path d="M168.5 185C166.9 178.6 143.5 159.333 132 150.5C128.4 153.3 121.5 170.667 118.5 179C164.1 204.2 175.167 246.833 175 265C190.6 266.6 197.167 281.667 198.5 289L213 295.5C214.265 292.021 215.072 284.62 215.546 275M168.5 185C167 186 163.4 188.7 161 191.5C166.333 199 177.4 214.3 179 215.5M168.5 185C172.167 171.833 179.8 144.9 181 142.5C185 144.5 193.4 148.5 195 148.5M195 148.5C193.167 156.667 189.5 175.2 189.5 184M195 148.5C204.5 152.667 224.2 160.7 227 159.5C227.667 165.5 229.2 178.8 230 184C225.833 183.167 216.9 181.1 214.5 179.5C215.229 195.611 216.028 220.327 216.107 243M215.546 275C223.698 274.5 240.3 273.4 241.5 273C245.5 262 256.6 238.8 269 234C263.833 226.833 249.5 219.2 233.5 246C229.738 245.167 220.993 243.4 216.107 243M215.546 275C215.998 265.853 216.148 254.698 216.107 243" stroke="black" stroke-width="3"/>
<path d="M442 503C415 516 409 500.5 381 493L417 467C422.5 462.833 434.1 453.9 436.5 451.5L445.5 443.5L461.5 460.257C465.044 459.336 468.299 458.647 470.5 458.5L471.5 485C461.667 484.667 440.7 484.5 435.5 486.5C435.333 482.167 436.9 471.9 444.5 465.5L436.5 451.5C434.1 453.9 422.5 462.833 417 467L442 503Z" fill="#8E8E8E"/>
<path d="M417 467L442 503C415 516 409 500.5 381 493L417 467ZM417 467C422.5 462.833 434.1 453.9 436.5 451.5M436.5 451.5L444.5 465.5M436.5 451.5L445.5 443.5L461.5 460.257M444.5 465.5C436.9 471.9 435.333 482.167 435.5 486.5C440.7 484.5 461.667 484.667 471.5 485L470.5 458.5C468.299 458.647 465.044 459.336 461.5 460.257M444.5 465.5C448.405 464.128 455.383 461.848 461.5 460.257" stroke="black" stroke-width="3"/>
<ellipse cx="281.5" cy="181" rx="5.5" ry="7" fill="black"/>
<ellipse cx="358.5" cy="167" rx="5.5" ry="7" fill="black"/>
<path d="M379.5 115.5C377.833 115.5 373.88 115.619 372 117C347.5 135 341.5 152 319.5 151M311.5 152.5C287.5 155.5 269 134.5 245.5 134.5" stroke="black" stroke-width="3"/>
<path d="M365 230.5C354.833 238.5 326.8 250.5 296 234.5" stroke="black" stroke-width="4"/>
<path d="M344 299L319.5 300L315 311.5L328 329C327.2 342.2 322.333 367.167 320 378L325 391V402L331 407L335 401C336.2 399 344.167 376.5 348 365.5C344 361.5 338.667 339.5 336.5 329L345.5 303.5L344 299Z" fill="black" stroke="black" stroke-width="3"/>
<path d="M335.5 278C333.1 277.2 328.167 277.667 326 278C326 278.8 321.333 293 319 300L344.5 298.5L335.5 278Z" fill="#D9D9D9" stroke="black" stroke-width="2"/>
<circle cx="331.5" cy="426.5" r="6" stroke="black" stroke-width="3"/>
<circle cx="331.5" cy="459.5" r="6" stroke="black" stroke-width="3"/>
<path d="M425 670.5C421.4 668.9 384.5 631.5 366.5 613L365 613.5C374.2 625.5 404.833 655.5 419 669C419.8 669.4 423.333 670.167 425 670.5Z" fill="#D9D9D9"/>
<path d="M221.5 696C248.3 672.8 276.333 636.333 287 621H288C279 640.5 227.5 694 227 694C226.6 694 223.167 695.333 221.5 696Z" fill="#D9D9D9"/>
<path d="M363 610.5L365 609.5C364.6 564.7 373.833 508.5 378.5 486L376.5 487C366.1 522.6 363.167 584.167 363 610.5Z" fill="#D9D9D9"/>
<path d="M289 617.5H287.5C287.5 593.167 282 533.6 260 490C260.667 490.167 262.2 490.6 263 491C272.833 513.167 291.8 569.5 289 617.5Z" fill="#D9D9D9"/>
<path d="M431 453C435 449.8 473.667 415.167 479.5 409.5C473.667 391 451.4 344.6 409 307C428.333 328.667 468 379.1 476 409.5C474 412.3 436.833 447.333 431 453Z" fill="#D9D9D9"/>
<path d="M123.5 422C125.5 393.2 146.667 355.333 157 340C137 373.6 127.667 407.333 125.5 420C159.9 414.8 186.5 403.5 195.5 398.5C166.3 416.5 135.333 421.667 123.5 422Z" fill="#D9D9D9"/>
<path d="M411.5 224.5C411.1 222.1 408.333 213.833 407 210H404.5L408.5 225C406.9 230.2 390.5 240.5 382.5 245C396.1 240.2 407.5 229.333 411.5 224.5Z" fill="#D9D9D9"/>
<path d="M416.5 100C416.695 101.696 416.825 103.602 416.862 105.653C419.417 134.585 431.612 142.64 440.124 143.251C441.361 143.056 442.652 142.967 444 143C442.85 143.248 441.538 143.352 440.124 143.251C426.31 145.428 419.336 160.893 417.5 169C416.3 149.8 398.333 147 389.5 148C412.106 144.821 417.141 121.134 416.862 105.653C416.703 103.851 416.581 101.968 416.5 100Z" fill="white"/>
<path d="M416.5 100C418.167 114.5 415.1 144.4 389.5 148C398.333 147 416.3 149.8 417.5 169C419.5 160.167 427.6 142.6 444 143C435.5 144.833 418.1 138.8 416.5 100Z" stroke="black"/>
<path d="M230.5 166.5L255 91.5L200 88.5C204.8 96.5 222.333 143.833 230.5 166.5Z" fill="#1B1B1B" stroke="black" stroke-width="3"/>
</svg>
