<svg width="613" height="732" viewBox="0 0 613 732" fill="none" xmlns="http://www.w3.org/2000/svg">
<rect width="613" height="732" fill="black"/>
<path d="M362.5 39.5L385.5 50C353.5 99.6 375.5 151 390.5 170.5C371.715 180.395 359.176 187.084 347.521 191L348.5 202C339.3 207.585 320.333 206.327 312 205V195.018C296.744 194.018 277.022 190.521 247 185L231.228 101.5L221.5 50L362.5 39.5Z" fill="#C3C3C3"/>
<path d="M221.5 50L362.5 39.5M221.5 50L245.5 51.329M221.5 50L231.228 101.5M375 58.5L362.5 39.5M375 58.5L385.5 50M375 58.5L245.5 51.329M362.5 39.5L385.5 50M385.5 50C353.5 99.6 375.5 151 390.5 170.5C371.715 180.395 359.176 187.084 347.521 191M245.5 51.329L231.228 101.5M231.228 101.5L247 185C277.022 190.521 296.744 194.018 312 195.018M312 195.018V205C320.333 206.327 339.3 207.585 348.5 202L347.521 191M312 195.018C326.124 195.944 336.421 194.73 347.521 191" stroke="black"/>
<path d="M367 66C365.333 65 361.2 63.3 358 64.5C354 66 336.5 90.5 324.5 88C314.9 86 315.5 86.1667 317 86.5M292.5 91C279.3 97.4 253 79.3333 241.5 69.5C241.333 69 239.9 68.3 235.5 69.5" stroke="black" stroke-width="2"/>
<path d="M239 151C235.833 135 229.5 102.8 229.5 102L229 98L302 90.5L303 101H317.5L318 90H385.5L384 141.5H315L316.5 111.5H303.5V143L239 151Z" fill="#FFFDFD" stroke="black"/>
<circle cx="282.5" cy="110.5" r="2.5" fill="black"/>
<circle cx="340.5" cy="107.5" r="2.5" fill="black"/>
<path d="M239 151C254.2 148.6 260.333 154 261.5 157C261.9 158.2 261.667 159.167 261.5 159.5C247.9 159.9 235.5 188 231 202L206.5 203.5L205.5 187.5C211.5 186.7 217.333 187.833 219.5 188.5C226.3 158.5 235.333 151 239 151Z" fill="#D8D2D2" stroke="black"/>
<path d="M209 100C202.5 100.591 206.5 203.5 206.5 203.5L205 210L161.5 207.5C175.5 169.5 136.333 118 115 97C115.8 90.2 124.333 81.8333 128.5 78.5C132.1 79.7 152 106.125 161.5 119.188L166.5 117C166.9 99.4 170 79 174 78C178 77 187.942 81.5 187.942 81.5C188.254 80.7471 188.604 80.226 189 80C192.5 78 216.667 86.6667 229 90L230.5 97.5L229 98L230.5 107.5C230.5 107.5 215.5 99.4091 209 100Z" fill="#D8D2D2"/>
<path d="M185.5 111.5C185.5 107.597 185.5 87.409 187.942 81.5M187.942 81.5C188.254 80.7471 188.604 80.226 189 80C192.5 78 216.667 86.6667 229 90L230.5 97.5L229 98L230.5 107.5C230.5 107.5 215.5 99.4091 209 100C202.5 100.591 206.5 203.5 206.5 203.5L205 210L161.5 207.5C175.5 169.5 136.333 118 115 97C115.8 90.2 124.333 81.8333 128.5 78.5C132.1 79.7 152 106.125 161.5 119.188M187.942 81.5C187.942 81.5 178 77 174 78C170 79 166.9 99.4 166.5 117L161.5 119.188M165.5 141C161.5 134.6 159.167 124.667 158.5 120.5L161.5 119.188" stroke="black"/>
<circle cx="165.5" cy="219.5" r="22.5" fill="black"/>
<circle cx="165.5" cy="219.5" r="21.5" fill="white"/>
<path d="M184 231.5C189.6 223.1 187 213 185 209L205 210L200.5 232L184 231.5Z" fill="#4E4949" stroke="black"/>
<path d="M167.228 205.289L163.857 222.461L172.198 224.098M167.228 205.289L165.275 207.453M167.228 205.289L168.218 208.031M172.198 224.098L170.831 225.868M172.198 224.098L171.602 221.943" stroke="black" stroke-width="2"/>
<path d="M123.5 354C114.5 339.5 150 304 154.5 239C170.5 245.8 180.833 236.833 184 231.5H200.5C200.5 243.487 195.238 264.594 192.106 275.44L194 269L248.5 219.5C262.1 213.5 296.5 207.333 312 205C331.6 209.4 344.5 204.833 348.5 202C392.9 208.8 464.5 328.5 462 341C459.5 353.5 381 435.5 381 435.5L399.5 304L383.5 417.5L348.5 439.5L336 422L323.5 442.5L246 422C246.4 416 258.167 398.167 264 390L242.5 304C238.5 314 132.5 368.5 123.5 354Z" fill="#727272"/>
<path d="M123.5 354C114.5 339.5 150 304 154.5 239C170.5 245.8 180.833 236.833 184 231.5H200.5C200.5 243.487 195.238 264.594 192.106 275.44L194 269L248.5 219.5C262.1 213.5 296.5 207.333 312 205C331.6 209.4 344.5 204.833 348.5 202C392.9 208.8 464.5 328.5 462 341C459.5 353.5 381 435.5 381 435.5L399.5 304L383.5 417.5L348.5 439.5L336 422L323.5 442.5L246 422C246.4 416 258.167 398.167 264 390L242.5 304C238.5 314 132.5 368.5 123.5 354Z" fill="url(#paint0_linear_0_1)" fill-opacity="0.2"/>
<path d="M123.5 354C114.5 339.5 150 304 154.5 239C170.5 245.8 180.833 236.833 184 231.5H200.5C200.5 243.487 195.238 264.594 192.106 275.44L194 269L248.5 219.5C262.1 213.5 296.5 207.333 312 205C331.6 209.4 344.5 204.833 348.5 202C392.9 208.8 464.5 328.5 462 341C459.5 353.5 381 435.5 381 435.5L399.5 304L383.5 417.5L348.5 439.5L336 422L323.5 442.5L246 422C246.4 416 258.167 398.167 264 390L242.5 304C238.5 314 132.5 368.5 123.5 354Z" fill="url(#paint1_linear_0_1)" fill-opacity="0.2"/>
<path d="M123.5 354C114.5 339.5 150 304 154.5 239C170.5 245.8 180.833 236.833 184 231.5H200.5C200.5 243.487 195.238 264.594 192.106 275.44L194 269L248.5 219.5C262.1 213.5 296.5 207.333 312 205C331.6 209.4 344.5 204.833 348.5 202C392.9 208.8 464.5 328.5 462 341C459.5 353.5 381 435.5 381 435.5L399.5 304L383.5 417.5L348.5 439.5L336 422L323.5 442.5L246 422C246.4 416 258.167 398.167 264 390L242.5 304C238.5 314 132.5 368.5 123.5 354Z" stroke="black"/>
<path d="M410.5 338.5C424.5 335.5 397.5 319 397.5 319L394 343C394 343 396.5 341.5 410.5 338.5Z" fill="white" stroke="black"/>
<path d="M332.5 322L289 209.5L312 205C332 209 344.667 204.667 348.5 202C354.1 202.4 363.167 207.167 367 209.5L332.5 322Z" fill="white" stroke="black"/>
<path d="M355 204L345.5 234.5L334.535 209.5H333.5L333 206L348.5 201L355 204Z" fill="white"/>
<path d="M317 235L328.5 206.5L308 202.5C306.4 202.9 305 205.333 304.5 206.5L317 235Z" fill="white"/>
<path d="M333 206L333.5 209.5H334.535M333 206L334.535 209.5M333 206L348.5 201L355 204L345.5 234.5L334.535 209.5M308 202.5C306.4 202.9 305 205.333 304.5 206.5L317 235L328.5 206.5L308 202.5ZM308 202.5C308.833 202.333 310.7 202 311.5 202" stroke="black"/>
<path d="M321.5 224L341 224.5L344 230L340 258.5L344 285L332.5 321.5L319.5 288L323 258.5L318.5 231L321.5 224Z" fill="black" stroke="black"/>
<path d="M285 165C285 165 323 180.5 351.5 163" stroke="black" stroke-width="2"/>
<path d="M386 61.0052C385.941 61.4526 385.877 61.9139 385.807 62.3877C384.927 69.5703 382.375 102.26 407.516 103.976C407.676 103.985 407.838 103.994 408 104.005C407.837 103.997 407.676 103.987 407.516 103.976C389.907 103.04 384.83 115.899 384.5 122.505C383.3 108.905 368.333 102.505 361 101.005C376.101 102.554 383.675 76.7394 385.807 62.3877C385.922 61.446 386.008 60.9428 386 61.0052Z" fill="white"/>
<path d="M386 61.0052C385.941 61.4526 385.877 61.9139 385.807 62.3877C384.927 69.5703 382.375 102.26 407.516 103.976C407.676 103.985 407.838 103.994 408 104.005C407.837 103.997 407.676 103.987 407.516 103.976C389.907 103.04 384.83 115.899 384.5 122.505C383.3 108.905 368.333 102.505 361 101.005C376.101 102.554 383.675 76.7394 385.807 62.3877C385.922 61.446 386.008 60.9428 386 61.0052Z" fill="url(#paint2_linear_0_1)" fill-opacity="0.3"/>
<path d="M386 61.0052C385.941 61.4526 385.877 61.9139 385.807 62.3877C384.927 69.5703 382.375 102.26 407.516 103.976C407.676 103.985 407.838 103.994 408 104.005C407.837 103.997 407.676 103.987 407.516 103.976C389.907 103.04 384.83 115.899 384.5 122.505C383.3 108.905 368.333 102.505 361 101.005C376.101 102.554 383.675 76.7394 385.807 62.3877C385.922 61.446 386.008 60.9428 386 61.0052Z" stroke="black"/>
<path d="M362 101.5V101H359H356.5" stroke="black"/>
<path d="M361 590.5C358.6 581.3 375 471.667 383.5 418L348.5 439.5L336 422L323.5 442.5L268 428C282.8 469.6 273.833 562.333 267.5 603.5L302.5 607.5L323.5 487L336 607.5L361 590.5Z" fill="#363535"/>
<path d="M361 590.5C358.6 581.3 375 471.667 383.5 418L348.5 439.5L336 422L323.5 442.5L268 428C282.8 469.6 273.833 562.333 267.5 603.5L302.5 607.5L323.5 487L336 607.5L361 590.5Z" fill="url(#paint3_linear_0_1)" fill-opacity="0.2"/>
<path d="M361 590.5C358.6 581.3 375 471.667 383.5 418L348.5 439.5L336 422L323.5 442.5L268 428C282.8 469.6 273.833 562.333 267.5 603.5L302.5 607.5L323.5 487L336 607.5L361 590.5Z" fill="url(#paint4_linear_0_1)" fill-opacity="0.2"/>
<path d="M361 590.5C358.6 581.3 375 471.667 383.5 418L348.5 439.5L336 422L323.5 442.5L268 428C282.8 469.6 273.833 562.333 267.5 603.5L302.5 607.5L323.5 487L336 607.5L361 590.5Z" stroke="black"/>
<path d="M267.557 603.003L302.557 607.003L302.979 607.052L302.999 607.477L303.999 628.977L304.018 629.376L303.633 629.482L289.133 633.482L288.5 633.656V633C288.5 631.648 288.392 630.62 288.213 629.859C288.032 629.093 287.788 628.641 287.549 628.396C287.33 628.172 287.101 628.104 286.845 628.135C286.561 628.169 286.208 628.33 285.809 628.644C285.012 629.27 284.178 630.387 283.542 631.675C282.906 632.962 282.5 634.353 282.5 635.5V635.862L282.155 635.976L228.655 653.476L227.084 653.989L228.107 652.69L267.107 603.19L267.28 602.972L267.557 603.003ZM408.987 637.78L407.41 637.492L355.41 627.992L355.173 627.948L355.06 627.736C354.442 626.584 353.673 625.309 352.869 624.207C352.056 623.092 351.244 622.205 350.55 621.775C350.204 621.562 349.944 621.497 349.76 621.514C349.603 621.528 349.424 621.609 349.235 621.891C349.037 622.188 348.848 622.682 348.712 623.452C348.577 624.216 348.5 625.217 348.5 626.5V627.043L347.958 626.998L335.958 625.998L335.5 625.96V607.235L335.719 607.087L360.719 590.087L361.061 589.854L408.987 637.78Z" fill="url(#paint5_linear_0_1)"/>
<path d="M267.557 603.003L302.557 607.003L302.979 607.052L302.999 607.477L303.999 628.977L304.018 629.376L303.633 629.482L289.133 633.482L288.5 633.656V633C288.5 631.648 288.392 630.62 288.213 629.859C288.032 629.093 287.788 628.641 287.549 628.396C287.33 628.172 287.101 628.104 286.845 628.135C286.561 628.169 286.208 628.33 285.809 628.644C285.012 629.27 284.178 630.387 283.542 631.675C282.906 632.962 282.5 634.353 282.5 635.5V635.862L282.155 635.976L228.655 653.476L227.084 653.989L228.107 652.69L267.107 603.19L267.28 602.972L267.557 603.003ZM408.987 637.78L407.41 637.492L355.41 627.992L355.173 627.948L355.06 627.736C354.442 626.584 353.673 625.309 352.869 624.207C352.056 623.092 351.244 622.205 350.55 621.775C350.204 621.562 349.944 621.497 349.76 621.514C349.603 621.528 349.424 621.609 349.235 621.891C349.037 622.188 348.848 622.682 348.712 623.452C348.577 624.216 348.5 625.217 348.5 626.5V627.043L347.958 626.998L335.958 625.998L335.5 625.96V607.235L335.719 607.087L360.719 590.087L361.061 589.854L408.987 637.78Z" fill="url(#paint6_linear_0_1)" fill-opacity="0.2"/>
<path d="M232.5 97.5H230.5L221.521 50.6092L221.5 50L245.5 51.5L232.5 97.5Z" fill="#5E5E5E"/>
<path d="M232.5 97.5H230.5L221.521 50.6092L221.5 50L245.5 51.5L232.5 97.5Z" fill="url(#paint7_linear_0_1)" fill-opacity="0.2"/>
<path d="M221.5 50.5L221.521 50.6092M221.521 50.6092L230.5 97.5H232.5L245.5 51.5L221.5 50L221.521 50.6092Z" stroke="black"/>
<path d="M375 58.5L222 50L362.5 39.5L375 58.5Z" fill="black"/>
<path d="M375 58.5L222 50L362.5 39.5L375 58.5Z" fill="url(#paint8_linear_0_1)" fill-opacity="0.2"/>
<path d="M375 58.5L222 50L362.5 39.5L375 58.5Z" stroke="black"/>
<path d="M385.5 50L375 58.5L362 39.5H362.5L385.5 50Z" fill="#383838" stroke="black"/>
<circle cx="333.5" cy="344.5" r="4" fill="#727272" stroke="black" stroke-width="3"/>
<circle cx="334.5" cy="370.5" r="4" fill="#727272" stroke="black" stroke-width="3"/>
<circle cx="334.5" cy="396.5" r="4" fill="#727272" stroke="black" stroke-width="3"/>
<defs>
<linearGradient id="paint0_linear_0_1" x1="442.5" y1="372.5" x2="362.5" y2="347" gradientUnits="userSpaceOnUse">
<stop offset="0.376356" stop-opacity="0"/>
<stop offset="0.514423"/>
</linearGradient>
<linearGradient id="paint1_linear_0_1" x1="161.5" y1="9" x2="276.5" y2="406" gradientUnits="userSpaceOnUse">
<stop stop-color="white" stop-opacity="0.77"/>
<stop offset="1"/>
</linearGradient>
<linearGradient id="paint2_linear_0_1" x1="376.5" y1="105.5" x2="382" y2="103.5" gradientUnits="userSpaceOnUse">
<stop stop-color="#2B2B2B"/>
<stop offset="1" stop-color="white"/>
</linearGradient>
<linearGradient id="paint3_linear_0_1" x1="367.5" y1="493.5" x2="354.5" y2="491.5" gradientUnits="userSpaceOnUse">
<stop stop-color="white"/>
<stop offset="1"/>
</linearGradient>
<linearGradient id="paint4_linear_0_1" x1="267" y1="549" x2="296.5" y2="551" gradientUnits="userSpaceOnUse">
<stop stop-color="white"/>
<stop offset="1"/>
</linearGradient>
<linearGradient id="paint5_linear_0_1" x1="350" y1="626.5" x2="400.5" y2="594.5" gradientUnits="userSpaceOnUse">
<stop/>
<stop offset="1" stop-color="#E5E5E5"/>
</linearGradient>
<linearGradient id="paint6_linear_0_1" x1="313.5" y1="649.5" x2="260" y2="617.5" gradientUnits="userSpaceOnUse">
<stop stop-opacity="0.96"/>
<stop offset="1" stop-color="white"/>
</linearGradient>
<linearGradient id="paint7_linear_0_1" x1="242.5" y1="66.5" x2="229.5" y2="64" gradientUnits="userSpaceOnUse">
<stop stop-color="white"/>
<stop offset="1"/>
</linearGradient>
<linearGradient id="paint8_linear_0_1" x1="305.5" y1="52.5" x2="303.5" y2="35.5" gradientUnits="userSpaceOnUse">
<stop stop-color="white"/>
<stop offset="1"/>
</linearGradient>
</defs>
</svg>
